<svg width="61" height="8" viewBox="0 0 61 8" fill="none" xmlns="http://www.w3.org/2000/svg">
<path d="M60.3536 4.03568C60.5488 3.84042 60.5488 3.52384 60.3536 3.32858L57.1716 0.146595C56.9763 -0.0486672 56.6597 -0.0486672 56.4645 0.146595C56.2692 0.341857 56.2692 0.65844 56.4645 0.853702L59.2929 3.68213L56.4645 6.51056C56.2692 6.70582 56.2692 7.0224 56.4645 7.21766C56.6597 7.41293 56.9763 7.41293 57.1716 7.21766L60.3536 4.03568ZM0 3.68213V4.18213H1V3.68213V3.18213H0V3.68213ZM3 3.68213V4.18213H5V3.68213V3.18213H3V3.68213ZM7 3.68213V4.18213H9V3.68213V3.18213H7V3.68213ZM11 3.68213V4.18213H13V3.68213V3.18213H11V3.68213ZM15 3.68213V4.18213H17V3.68213V3.18213H15V3.68213ZM19 3.68213V4.18213H21V3.68213V3.18213H19V3.68213ZM23 3.68213V4.18213H25V3.68213V3.18213H23V3.68213ZM27 3.68213V4.18213H29V3.68213V3.18213H27V3.68213ZM31 3.68213V4.18213H33V3.68213V3.18213H31V3.68213ZM35 3.68213V4.18213H37V3.68213V3.18213H35V3.68213ZM39 3.68213V4.18213H41V3.68213V3.18213H39V3.68213ZM43 3.68213V4.18213H45V3.68213V3.18213H43V3.68213ZM47 3.68213V4.18213H49V3.68213V3.18213H47V3.68213ZM51 3.68213V4.18213H53V3.68213V3.18213H51V3.68213ZM55 3.68213V4.18213H57V3.68213V3.18213H55V3.68213ZM59 3.68213V4.18213H60V3.68213V3.18213H59V3.68213Z" fill="#3A3F42"/>
</svg>
