<svg width="24" height="24" viewBox="0 0 24 24" fill="none" xmlns="http://www.w3.org/2000/svg">
<path fill-rule="evenodd" clip-rule="evenodd" d="M6.93794 2.76923L10.5628 7.74841L8.97054 10.5137C9.02714 10.6807 9.11813 10.9209 9.25369 11.207C9.53009 11.7902 9.98692 12.5532 10.7066 13.2728C11.4688 14.0351 12.2777 14.5349 12.8968 14.8437C13.2048 14.9973 13.4631 15.1023 13.6414 15.168L16.3988 13.5803L21.5105 17.3497L21.2123 17.8826C20.3581 19.4088 19.2678 20.4992 17.7416 21.3533L17.5987 21.4333L17.4351 21.4408C12.9317 21.6469 9.05938 19.1981 6.45338 16.1671C5.14592 14.6464 4.13534 12.9561 3.50637 11.3291C2.88215 9.7144 2.61126 8.10232 2.86211 6.76108L2.88409 6.6435L2.94426 6.54013C3.80712 5.05744 4.9211 3.95219 6.39705 3.08649L6.93794 2.76923ZM13.7175 15.923C13.5346 16.5907 13.5343 16.5907 13.5341 16.5906L13.5326 16.5902L13.5301 16.5895L13.5228 16.5874L13.5004 16.5809C13.4821 16.5755 13.4569 16.5679 13.4254 16.5578C13.3622 16.5378 13.2738 16.5082 13.164 16.4677C12.9444 16.3869 12.6384 16.2621 12.2788 16.0827C11.5612 15.7248 10.6199 15.1443 9.72747 14.2519C8.87053 13.3949 8.32967 12.4903 8.00249 11.8C7.83856 11.4541 7.72707 11.1595 7.65565 10.9477C7.6199 10.8417 7.59409 10.7561 7.57669 10.6948C7.56799 10.6642 7.56138 10.6396 7.55668 10.6216L7.55104 10.5994L7.54925 10.5921L7.5486 10.5895L7.54834 10.5884C7.54828 10.5882 7.54812 10.5874 8.22158 10.427L7.54812 10.5874L7.4844 10.3199L8.91432 7.83655L6.56888 4.61483C5.58977 5.28152 4.82648 6.09185 4.2035 7.13073C4.05193 8.1124 4.24649 9.40369 4.79784 10.8298C5.36626 12.3002 6.29198 13.8556 7.50329 15.2644C9.901 18.0532 13.3328 20.1783 17.2077 20.0638C18.258 19.4517 19.0441 18.7138 19.6893 17.7271L16.3055 15.2318L13.8129 16.667L13.5341 16.5906L13.7175 15.923Z" fill="white"/>
</svg>
