<svg width="16" height="16" viewBox="0 0 16 16" fill="none" xmlns="http://www.w3.org/2000/svg">
<mask id="mask0_10285_415" style="mask-type:alpha" maskUnits="userSpaceOnUse" x="0" y="0" width="16" height="16">
<rect width="16" height="16" fill="#D9D9D9"/>
</mask>
<g mask="url(#mask0_10285_415)">
<path d="M12.9602 13.6663C11.7039 13.6663 10.4417 13.3742 9.17371 12.79C7.90582 12.2058 6.74087 11.3817 5.67887 10.3177C4.61699 9.25356 3.79393 8.08856 3.20971 6.82267C2.62549 5.5569 2.33337 4.29584 2.33337 3.03951C2.33337 2.83762 2.40004 2.6694 2.53337 2.53484C2.66671 2.40029 2.83337 2.33301 3.03337 2.33301H5.20771C5.37604 2.33301 5.52454 2.38795 5.65321 2.49784C5.78187 2.60762 5.86371 2.74329 5.89871 2.90484L6.28087 4.86634C6.30732 5.04834 6.30176 5.20473 6.26421 5.33551C6.22654 5.46629 6.15899 5.57612 6.06154 5.66501L4.52187 7.16384C4.76965 7.61762 5.05276 8.0469 5.37121 8.45167C5.68954 8.85634 6.03421 9.24284 6.40521 9.61117C6.77098 9.97706 7.15987 10.3168 7.57187 10.6305C7.98387 10.9442 8.42876 11.2361 8.90654 11.5062L10.4025 9.99717C10.5069 9.88862 10.6332 9.81251 10.7815 9.76884C10.9298 9.72529 11.0838 9.71462 11.2437 9.73684L13.0949 10.1138C13.2632 10.1583 13.4006 10.2442 13.507 10.3715C13.6135 10.4988 13.6667 10.6433 13.6667 10.8048V12.9663C13.6667 13.1663 13.5994 13.333 13.4649 13.4663C13.3303 13.5997 13.1621 13.6663 12.9602 13.6663ZM4.04871 6.21767L5.23854 5.07917C5.25987 5.06206 5.27376 5.03856 5.28021 5.00867C5.28665 4.97879 5.2856 4.95101 5.27704 4.92534L4.98721 3.43551C4.97865 3.4014 4.96371 3.37579 4.94237 3.35867C4.92104 3.34156 4.89326 3.33301 4.85904 3.33301H3.43337C3.40771 3.33301 3.38632 3.34156 3.36921 3.35867C3.35221 3.37579 3.34371 3.39717 3.34371 3.42284C3.37782 3.8784 3.45237 4.34117 3.56737 4.81117C3.68226 5.28129 3.84271 5.75012 4.04871 6.21767ZM9.84871 11.9792C10.2906 12.1852 10.7515 12.3427 11.2314 12.4517C11.7114 12.5606 12.1599 12.6253 12.5769 12.6458C12.6025 12.6458 12.6239 12.6373 12.641 12.6202C12.6582 12.6031 12.6667 12.5817 12.6667 12.556V11.1535C12.6667 11.1193 12.6582 11.0915 12.641 11.0702C12.6239 11.0488 12.5983 11.0339 12.5642 11.0253L11.1642 10.7407C11.1385 10.7321 11.1161 10.7311 11.0969 10.7375C11.0777 10.744 11.0573 10.7578 11.0359 10.7792L9.84871 11.9792Z" fill="#1C1B1F"/>
</g>
</svg>
