<svg width="24" height="24" viewBox="0 0 24 24" fill="none" xmlns="http://www.w3.org/2000/svg">
<path fill-rule="evenodd" clip-rule="evenodd" d="M6.93831 2.76923L10.5632 7.74841L8.97091 10.5137C9.02751 10.6807 9.1185 10.9209 9.25406 11.207C9.53046 11.7902 9.98729 12.5532 10.7069 13.2728C11.4692 14.0351 12.2781 14.5349 12.8972 14.8437C13.2051 14.9973 13.4635 15.1023 13.6418 15.168L16.3992 13.5803L21.5109 17.3497L21.2126 17.8826C20.3584 19.4088 19.2682 20.4992 17.742 21.3533L17.5991 21.4333L17.4355 21.4408C12.9321 21.6469 9.05974 19.1981 6.45375 16.1671C5.14629 14.6464 4.13571 12.9561 3.50673 11.3291C2.88251 9.7144 2.61163 8.10232 2.86247 6.76108L2.88446 6.6435L2.94463 6.54013C3.80748 5.05744 4.92147 3.95219 6.39741 3.08649L6.93831 2.76923ZM13.7179 15.923C13.5349 16.5907 13.5347 16.5907 13.5345 16.5906L13.533 16.5902L13.5304 16.5895L13.5231 16.5874L13.5008 16.5809C13.4824 16.5755 13.4572 16.5679 13.4257 16.5578C13.3626 16.5378 13.2742 16.5082 13.1643 16.4677C12.9447 16.3869 12.6387 16.2621 12.2792 16.0827C11.5616 15.7248 10.6202 15.1443 9.72784 14.2519C8.87089 13.3949 8.33003 12.4903 8.00286 11.8C7.83893 11.4541 7.72744 11.1595 7.65602 10.9477C7.62027 10.8417 7.59446 10.7561 7.57706 10.6948C7.56836 10.6642 7.56175 10.6396 7.55705 10.6216L7.55141 10.5994L7.54962 10.5921L7.54896 10.5895L7.5487 10.5884C7.54865 10.5882 7.54848 10.5874 8.22195 10.427L7.54848 10.5874L7.48476 10.3199L8.91468 7.83655L6.56925 4.61483C5.59014 5.28152 4.82685 6.09185 4.20387 7.13073C4.05229 8.1124 4.24686 9.40369 4.7982 10.8298C5.36662 12.3002 6.29235 13.8556 7.50366 15.2644C9.90137 18.0532 13.3332 20.1783 17.2081 20.0638C18.2583 19.4517 19.0444 18.7138 19.6897 17.7271L16.3058 15.2318L13.8133 16.667L13.5345 16.5906L13.7179 15.923Z" fill="#3A3F42"/>
</svg>
