<svg width="136" height="160" viewBox="0 0 136 160" fill="none" xmlns="http://www.w3.org/2000/svg">
<path d="M132.163 56.0736C132.163 53.9465 133.886 52.2334 136 52.2334V47.9333C133.875 47.9333 132.163 46.2087 132.163 44.0931C132.163 41.9776 133.886 40.2529 136 40.2529V35.9644C133.875 35.9644 132.163 34.2397 132.163 32.1242C132.163 30.0086 133.886 28.284 136 28.284V23.9839C133.875 23.9839 132.163 22.2593 132.163 20.1437C132.163 18.0282 133.886 16.3035 136 16.3035V12.0149C133.875 12.0149 132.163 10.2903 132.163 8.17476C132.163 6.05921 133.886 4.33458 136 4.33458V0H131.715C131.715 2.12705 129.992 3.84018 127.878 3.84018C125.764 3.84018 124.041 2.11555 124.041 0H119.744C119.744 2.12705 118.021 3.84018 115.907 3.84018C113.793 3.84018 112.07 2.11555 112.07 0H107.773C107.773 2.12705 106.05 3.84018 103.936 3.84018C101.822 3.84018 100.099 2.11555 100.099 0H95.802C95.802 2.12705 94.0787 3.84018 91.9649 3.84018C89.851 3.84018 88.1277 2.11555 88.1277 0H83.8425C83.8425 2.12705 82.1193 3.84018 80.0054 3.84018C77.8915 3.84018 76.1683 2.11555 76.1683 0H71.8716C71.8716 2.12705 70.1483 3.84018 68.0345 3.84018C65.9206 3.84018 64.1973 2.11555 64.1973 0H59.9121C59.9121 2.12705 58.1889 3.84018 56.075 3.84018C53.9611 3.84018 52.2379 2.11555 52.2379 0H47.9527C47.9527 2.12705 46.2294 3.84018 44.1156 3.84018C42.0017 3.84018 40.2784 2.11555 40.2784 0H35.9818C35.9818 2.12705 34.2585 3.84018 32.1446 3.84018C30.0307 3.84018 28.3075 2.11555 28.3075 0H24.0108C24.0108 2.12705 22.2875 3.84018 20.1737 3.84018C18.0598 3.84018 16.3365 2.11555 16.3365 0H12.0514C12.0514 2.12705 10.3281 3.84018 8.21423 3.84018C6.10035 3.84018 4.29667 2.12705 4.29667 0H0V4.30009C2.12536 4.30009 3.83713 6.02472 3.83713 8.14027C3.83713 10.2558 2.12536 11.9805 0 11.9805V16.269C2.12536 16.269 3.83713 17.9937 3.83713 20.1092C3.83713 22.2248 2.12536 23.9609 0 23.9609V28.261C2.12536 28.261 3.83713 29.9856 3.83713 32.1012C3.83713 34.2167 2.11387 35.9414 0 35.9414V40.2299C2.12536 40.2299 3.83713 41.9546 3.83713 44.0701C3.83713 46.1857 2.11387 47.9103 0 47.9103V52.2104C2.12536 52.2104 3.83713 53.935 3.83713 56.0506C3.83713 58.1661 2.11387 59.8908 0 59.8908V64.1909C2.12536 64.1909 3.83713 65.9155 3.83713 68.031C3.83713 70.1466 2.11387 71.8712 0 71.8712V76.1713C2.12536 76.1713 3.83713 77.8959 3.83713 80.0115C3.83713 82.127 2.11387 83.8517 0 83.8517V88.1403C2.12536 88.1403 3.83713 89.8649 3.83713 91.9804C3.83713 94.096 2.11387 95.8206 0 95.8206V100.121C2.11387 100.121 3.83713 101.845 3.83713 103.961C3.83713 106.076 2.12536 107.801 0 107.801V112.101C2.11387 112.101 3.83713 113.826 3.83713 115.941C3.83713 118.057 2.12536 119.782 0 119.782V124.082C2.11387 124.082 3.83713 125.806 3.83713 127.922C3.83713 130.037 2.12536 131.762 0 131.762V136.062C2.11387 136.062 3.83713 137.787 3.83713 139.902C3.83713 142.018 2.12536 143.742 0 143.742V148.043C2.11387 148.043 3.83713 149.767 3.83713 151.883C3.83713 153.998 2.12536 155.723 0 155.723V160H4.29667C4.29667 157.873 6.01994 156.16 8.13381 156.16C10.2477 156.16 11.9709 157.884 11.9709 160H16.2561C16.2561 157.873 17.9794 156.16 20.0933 156.16C22.2071 156.16 23.9304 157.884 23.9304 160H28.2271C28.2271 157.873 29.9503 156.16 32.0642 156.16C34.1781 156.16 35.9013 157.884 35.9013 160H40.198C40.198 157.873 41.9213 156.16 44.0351 156.16C46.149 156.16 47.8723 157.884 47.8723 160H52.1575C52.1575 157.873 53.8807 156.16 55.9946 156.16C58.1085 156.16 59.8317 157.884 59.8317 160H64.1169C64.1169 157.873 65.8402 156.16 67.954 156.16C70.0679 156.16 71.7912 157.884 71.7912 160H76.0879C76.0879 157.873 77.8111 156.16 79.925 156.16C82.0389 156.16 83.7621 157.884 83.7621 160H88.0473C88.0473 157.873 89.7706 156.16 91.8844 156.16C93.9983 156.16 95.7216 157.884 95.7216 160H100.018C100.018 157.873 101.742 156.16 103.855 156.16C105.969 156.16 107.693 157.884 107.693 160H111.989C111.989 157.873 113.712 156.16 115.826 156.16C117.94 156.16 119.663 157.884 119.663 160H123.96C123.96 157.873 125.683 156.16 127.797 156.16C129.911 156.16 131.634 157.884 131.634 160H135.92V155.723C133.794 155.723 132.082 153.998 132.082 151.883C132.082 149.767 133.806 148.043 135.92 148.043V143.742C133.794 143.742 132.082 142.018 132.082 139.902C132.082 137.787 133.806 136.062 135.92 136.062V131.762C133.794 131.762 132.082 130.037 132.082 127.922C132.082 125.806 133.806 124.082 135.92 124.082V119.793C133.794 119.793 132.082 118.068 132.082 115.953C132.082 113.837 133.806 112.113 135.92 112.113V107.813C133.794 107.813 132.082 106.088 132.082 103.972C132.082 101.857 133.806 100.132 135.92 100.132V95.8436C133.794 95.8436 132.082 94.119 132.082 92.0034C132.082 89.8879 133.806 88.1633 135.92 88.1633V83.8747C133.794 83.8747 132.082 82.15 132.082 80.0345C132.082 77.9189 133.806 76.1943 135.92 76.1943V71.8942C133.794 71.8942 132.082 70.1696 132.082 68.054C132.082 65.9385 133.806 64.2139 135.92 64.2139V59.9138C133.794 59.9138 132.082 58.1891 132.082 56.0736H132.163Z" fill="#F9F0DF"/>
<path d="M25.6152 118.244C24.502 118.854 23.3594 119.164 22.1875 119.176C20.5234 119.176 19.1816 118.631 18.1621 117.541C17.2129 116.498 16.7383 115.221 16.7383 113.709C16.7383 112.443 17.0898 111.324 17.793 110.352C18.8008 108.969 20.2539 108.277 22.1523 108.277C23.4648 108.277 24.5957 108.588 25.5449 109.209C25.5449 108.963 25.5566 108.775 25.5801 108.646C25.627 108.459 25.791 108.365 26.0723 108.365L26.125 111.688H25.6328C25.0586 109.777 23.9512 108.811 22.3105 108.787C21.7832 108.787 21.3086 108.893 20.8867 109.104C19.5742 109.771 18.918 111.301 18.918 113.691C18.918 113.914 18.9238 114.137 18.9355 114.359C19.0879 117.23 20.1836 118.666 22.2227 118.666C23.9688 118.654 25.1289 117.67 25.7031 115.713H26.1777V119.088C26.0488 119.088 25.9434 119.076 25.8613 119.053C25.6855 118.994 25.6035 118.725 25.6152 118.244ZM36.2233 118.561C36.3053 118.561 36.3756 118.566 36.4342 118.578C36.5866 118.602 36.6627 118.742 36.6627 119H33.9205L33.7975 117.348C33.692 117.594 33.5573 117.828 33.3932 118.051C32.8424 118.801 32.11 119.176 31.1959 119.176C29.5319 119.164 28.694 118.18 28.6823 116.223V111.934H27.4694V111.494H30.3698V116.504C30.3698 116.668 30.3815 116.832 30.4049 116.996C30.5455 117.898 31.0377 118.35 31.8815 118.35C32.1627 118.35 32.4381 118.268 32.7077 118.104C33.3756 117.693 33.7272 116.99 33.7623 115.994V111.934H32.567V111.494H35.4674V118.561H36.2233ZM42.0852 118.561C42.1673 118.561 42.2376 118.566 42.2962 118.578C42.4485 118.602 42.5247 118.742 42.5247 119H37.9192V118.561C38.2239 118.561 38.4524 118.537 38.6048 118.49C38.9446 118.396 39.1145 118.086 39.1145 117.559V111.934H37.9192V111.494H40.679L40.7669 113.199C40.9075 112.848 41.1067 112.531 41.3645 112.25C41.927 111.664 42.5598 111.371 43.263 111.371C43.3919 111.371 43.5208 111.383 43.6497 111.406C44.2005 111.547 44.4759 111.893 44.4759 112.443C44.4759 112.549 44.4583 112.654 44.4231 112.76C44.2825 113.146 44.0071 113.34 43.597 113.34C43.5032 113.34 43.4153 113.328 43.3333 113.305C43.1341 113.234 42.9348 113.023 42.7356 112.672C42.5716 112.391 42.4075 112.25 42.2434 112.25C42.0911 112.262 41.9212 112.35 41.7337 112.514C41.1126 113.064 40.802 113.949 40.802 115.168V118.561H42.0852ZM51.7792 119.176C50.9003 119.164 50.373 118.637 50.1972 117.594C50.1034 117.828 49.9687 118.051 49.7929 118.262C49.2538 118.871 48.539 119.176 47.6484 119.176C47.2851 119.176 46.9511 119.117 46.6464 119C45.8378 118.684 45.4335 118.057 45.4335 117.119C45.4335 116.943 45.4511 116.773 45.4862 116.609C45.7792 115.367 47.332 114.729 50.1445 114.693V113.568C50.1327 112.361 49.6523 111.746 48.703 111.723C48.4687 111.723 48.2695 111.764 48.1054 111.846C47.8827 111.975 47.6952 112.273 47.5429 112.742C47.5077 112.859 47.4784 112.947 47.455 113.006C47.3144 113.393 47.0624 113.586 46.6991 113.586C46.6054 113.586 46.5116 113.574 46.4179 113.551C46.0663 113.445 45.8905 113.205 45.8905 112.83C45.8905 112.631 45.955 112.432 46.0839 112.232C46.5175 111.6 47.4433 111.283 48.8612 111.283C50.8183 111.295 51.8085 112.203 51.832 114.008V117.699C51.8437 118.273 51.9902 118.572 52.2714 118.596C52.6347 118.584 52.8573 118.162 52.9394 117.33L53.3964 117.348C53.3847 117.617 53.3495 117.857 53.2909 118.068C53.1034 118.807 52.5995 119.176 51.7792 119.176ZM48.3691 118.455C48.5448 118.455 48.7265 118.414 48.914 118.332C49.5351 118.062 49.9452 117.518 50.1445 116.697V115.168C49.453 115.18 48.8905 115.238 48.457 115.344C47.6132 115.555 47.1913 116.059 47.1913 116.855C47.1913 117.02 47.203 117.172 47.2265 117.312C47.3437 118.074 47.7245 118.455 48.3691 118.455ZM54.1607 111.969V111.529H55.3912V109.859L57.0787 109.49V111.529H59.6275V111.969H57.0787V117.312C57.0904 118.191 57.3951 118.643 57.9927 118.666C58.5787 118.654 59.0005 118.127 59.2584 117.084L59.733 117.172C59.6978 117.359 59.6509 117.541 59.5923 117.717C59.2642 118.701 58.6021 119.193 57.606 119.193C57.5123 119.193 57.4127 119.188 57.3072 119.176C56.0298 119.059 55.3912 118.232 55.3912 116.697V111.969H54.1607ZM64.593 111.723C64.3703 111.723 64.1652 111.764 63.9777 111.846C63.1574 112.209 62.7238 113.141 62.677 114.641L64.2414 114.676C64.7336 114.699 65.1145 114.676 65.384 114.605C65.8645 114.477 66.1047 114.125 66.1047 113.551C66.1047 113.316 66.0754 113.088 66.0168 112.865C65.8176 112.104 65.343 111.723 64.593 111.723ZM67.7395 117.26C67.6691 117.424 67.5871 117.588 67.4934 117.752C66.9074 118.701 65.9523 119.176 64.6281 119.176C63.843 119.176 63.1398 118.988 62.5187 118.613C61.382 117.934 60.8137 116.814 60.8137 115.256C60.8137 114.354 61.0305 113.562 61.4641 112.883C62.1437 111.816 63.1809 111.283 64.5754 111.283C65.3137 111.283 65.9758 111.436 66.5617 111.74C67.4406 112.197 67.8801 112.865 67.8801 113.744C67.8801 114.084 67.7863 114.365 67.5988 114.588C67.2004 115.01 66.1984 115.203 64.593 115.168L62.677 115.133C62.677 115.145 62.677 115.156 62.677 115.168C62.7355 117.512 63.4973 118.684 64.9621 118.684C65.1496 118.684 65.3371 118.66 65.5246 118.613C66.3332 118.426 66.9309 117.928 67.3176 117.119L67.7395 117.26ZM75.4471 119L75.2537 117.225C75.2303 117.283 75.2069 117.342 75.1834 117.4C74.6444 118.584 73.7655 119.176 72.5467 119.176C71.9022 119.176 71.3221 118.982 70.8065 118.596C69.8807 117.904 69.4178 116.844 69.4178 115.414C69.4178 114.418 69.658 113.545 70.1385 112.795C70.8182 111.775 71.7674 111.266 72.9862 111.266C73.912 111.266 74.662 111.559 75.2362 112.145V108.014H73.5838V107.574H76.9237L76.9412 118.543H77.8026C77.8729 118.543 77.9373 118.549 77.9959 118.561C78.1483 118.584 78.2245 118.73 78.2245 119H75.4471ZM71.2811 115.203C71.2811 115.766 71.3338 116.27 71.4393 116.715C71.7205 117.863 72.2948 118.438 73.162 118.438C73.5487 118.438 73.8944 118.309 74.1991 118.051C74.9139 117.453 75.2713 116.393 75.2713 114.869C75.2713 114.26 75.201 113.727 75.0604 113.27C74.7557 112.273 74.1873 111.775 73.3553 111.775C73.0389 111.775 72.7459 111.857 72.4764 112.021C71.6795 112.514 71.2811 113.574 71.2811 115.203ZM21.2559 139H16.5625V138.543H17.9688V128.91H16.5625V128.453H21.2559V128.91H19.8496V138.543H20.7988C20.8574 138.543 20.916 138.549 20.9746 138.561C21.1621 138.596 21.2559 138.742 21.2559 139ZM26.1686 138.561C26.2506 138.561 26.3209 138.566 26.3795 138.578C26.5319 138.602 26.608 138.742 26.608 139H22.6354V138.561C22.9284 138.561 23.1569 138.537 23.3209 138.49C23.6608 138.396 23.8307 138.086 23.8307 137.559V131.934H22.6354V131.494H25.4127L25.5006 133.076C25.6178 132.807 25.7702 132.555 25.9577 132.32C26.5436 131.629 27.2702 131.283 28.1373 131.283C28.5475 131.283 28.9225 131.377 29.2623 131.564C30.1295 132.021 30.5631 132.877 30.5631 134.131V138.561H31.319C31.401 138.561 31.4713 138.566 31.5299 138.578C31.6823 138.602 31.7584 138.742 31.7584 139H27.7506V138.561C28.0436 138.561 28.2721 138.537 28.4362 138.49C28.7174 138.385 28.858 138.074 28.858 137.559V133.902C28.858 133.645 28.8288 133.398 28.7702 133.164C28.5709 132.461 28.1198 132.109 27.4166 132.109C27.1588 132.109 26.9069 132.18 26.6608 132.32C25.9928 132.707 25.6178 133.375 25.5358 134.324L25.5182 138.561H26.1686ZM39.1497 139L38.9563 137.225C38.9329 137.283 38.9095 137.342 38.886 137.4C38.347 138.584 37.468 139.176 36.2493 139.176C35.6048 139.176 35.0247 138.982 34.5091 138.596C33.5833 137.904 33.1204 136.844 33.1204 135.414C33.1204 134.418 33.3606 133.545 33.8411 132.795C34.5208 131.775 35.47 131.266 36.6887 131.266C37.6145 131.266 38.3645 131.559 38.9387 132.145V128.014H37.2864V127.574H40.6262L40.6438 138.543H41.5052C41.5755 138.543 41.6399 138.549 41.6985 138.561C41.8509 138.584 41.927 138.73 41.927 139H39.1497ZM34.9837 135.203C34.9837 135.766 35.0364 136.27 35.1419 136.715C35.4231 137.863 35.9973 138.438 36.8645 138.438C37.2512 138.438 37.597 138.309 37.9016 138.051C38.6165 137.453 38.9739 136.393 38.9739 134.869C38.9739 134.26 38.9036 133.727 38.763 133.27C38.4583 132.273 37.8899 131.775 37.0579 131.775C36.7415 131.775 36.4485 131.857 36.179 132.021C35.3821 132.514 34.9837 133.574 34.9837 135.203ZM46.8573 138.561C46.9394 138.561 47.0097 138.566 47.0683 138.578C47.2206 138.602 47.2968 138.742 47.2968 139H43.1308V138.561C43.4237 138.561 43.6523 138.543 43.8163 138.508C44.1913 138.402 44.3788 138.086 44.3788 137.559V131.934H43.1308V131.494H46.0663V138.561H46.8573ZM46.2597 129.033C46.2597 129.209 46.2245 129.373 46.1542 129.525C45.955 129.924 45.621 130.123 45.1523 130.123C44.9882 130.123 44.83 130.088 44.6777 130.018C44.2675 129.83 44.0624 129.502 44.0624 129.033C44.0624 128.857 44.1034 128.688 44.1855 128.523C44.3847 128.125 44.707 127.926 45.1523 127.926C45.328 127.926 45.498 127.967 45.662 128.049C46.0605 128.26 46.2597 128.588 46.2597 129.033ZM54.9517 139.176C54.0728 139.164 53.5455 138.637 53.3697 137.594C53.2759 137.828 53.1412 138.051 52.9654 138.262C52.4263 138.871 51.7115 139.176 50.8209 139.176C50.4576 139.176 50.1236 139.117 49.8189 139C49.0103 138.684 48.606 138.057 48.606 137.119C48.606 136.943 48.6236 136.773 48.6587 136.609C48.9517 135.367 50.5045 134.729 53.317 134.693V133.568C53.3052 132.361 52.8248 131.746 51.8755 131.723C51.6412 131.723 51.442 131.764 51.2779 131.846C51.0552 131.975 50.8677 132.273 50.7154 132.742C50.6802 132.859 50.6509 132.947 50.6275 133.006C50.4869 133.393 50.2349 133.586 49.8716 133.586C49.7779 133.586 49.6841 133.574 49.5904 133.551C49.2388 133.445 49.063 133.205 49.063 132.83C49.063 132.631 49.1275 132.432 49.2564 132.232C49.69 131.6 50.6158 131.283 52.0337 131.283C53.9908 131.295 54.981 132.203 55.0045 134.008V137.699C55.0162 138.273 55.1627 138.572 55.4439 138.596C55.8072 138.584 56.0298 138.162 56.1119 137.33L56.5689 137.348C56.5572 137.617 56.522 137.857 56.4634 138.068C56.2759 138.807 55.772 139.176 54.9517 139.176ZM51.5416 138.455C51.7173 138.455 51.899 138.414 52.0865 138.332C52.7076 138.062 53.1177 137.518 53.317 136.697V135.168C52.6255 135.18 52.063 135.238 51.6295 135.344C50.7857 135.555 50.3638 136.059 50.3638 136.855C50.3638 137.02 50.3755 137.172 50.399 137.312C50.5162 138.074 50.897 138.455 51.5416 138.455ZM68.3807 139H63.1424V138.543H64.8123V128.91H64.1268C63.1776 128.922 62.5272 129.52 62.1756 130.703L61.7889 132.039H61.2791L61.3495 128.453H70.2088L70.2967 132.039H69.787L69.4002 130.703C69.0604 129.52 68.4041 128.922 67.4315 128.91H66.6932V138.543H67.9061C68.1287 138.566 68.287 138.719 68.3807 139ZM75.2095 138.561C75.2798 138.561 75.3442 138.566 75.4028 138.578C75.5552 138.613 75.6313 138.754 75.6313 139H71.6059V138.561C71.8989 138.561 72.1274 138.537 72.2915 138.49C72.643 138.396 72.8188 138.086 72.8188 137.559V128.014H71.6059V127.574H74.5063V133.023C74.6118 132.766 74.7583 132.52 74.9458 132.285C75.52 131.617 76.2641 131.283 77.1782 131.283C77.5298 131.283 77.8579 131.354 78.1626 131.494C79.0766 131.904 79.5337 132.783 79.5337 134.131V138.561H80.2895C80.3716 138.561 80.4419 138.566 80.5005 138.578C80.6528 138.602 80.729 138.742 80.729 139H76.8266V138.561C77.143 138.561 77.3716 138.531 77.5122 138.473C77.7231 138.367 77.8286 138.062 77.8286 137.559V134.008C77.8286 133.715 77.7934 133.439 77.7231 133.182C77.5005 132.479 77.0434 132.127 76.352 132.127C76.0825 132.127 75.8188 132.203 75.561 132.355C74.8579 132.777 74.5063 133.521 74.5063 134.588V138.561H75.2095ZM85.8702 131.723C85.6476 131.723 85.4425 131.764 85.255 131.846C84.4347 132.209 84.0011 133.141 83.9542 134.641L85.5187 134.676C86.0109 134.699 86.3917 134.676 86.6612 134.605C87.1417 134.477 87.382 134.125 87.382 133.551C87.382 133.316 87.3527 133.088 87.2941 132.865C87.0948 132.104 86.6202 131.723 85.8702 131.723ZM89.0167 137.26C88.9464 137.424 88.8644 137.588 88.7706 137.752C88.1847 138.701 87.2296 139.176 85.9054 139.176C85.1202 139.176 84.4171 138.988 83.796 138.613C82.6593 137.934 82.0909 136.814 82.0909 135.256C82.0909 134.354 82.3077 133.562 82.7413 132.883C83.421 131.816 84.4581 131.283 85.8527 131.283C86.5909 131.283 87.253 131.436 87.839 131.74C88.7179 132.197 89.1573 132.865 89.1573 133.744C89.1573 134.084 89.0636 134.365 88.8761 134.588C88.4777 135.01 87.4757 135.203 85.8702 135.168L83.9542 135.133C83.9542 135.145 83.9542 135.156 83.9542 135.168C84.0128 137.512 84.7745 138.684 86.2394 138.684C86.4269 138.684 86.6144 138.66 86.8019 138.613C87.6105 138.426 88.2081 137.928 88.5948 137.119L89.0167 137.26ZM93.9998 138.561C94.0701 138.561 94.1287 138.566 94.1755 138.578C94.3513 138.602 94.4392 138.742 94.4392 139H90.5193V138.561C90.8123 138.561 91.0408 138.537 91.2048 138.49C91.5447 138.396 91.7146 138.086 91.7146 137.559V131.934H90.5193V131.494H93.2966L93.3845 133.059C93.4666 132.883 93.5603 132.707 93.6658 132.531C94.2048 131.699 94.949 131.283 95.8982 131.283C96.0974 131.283 96.3025 131.318 96.5134 131.389C97.2283 131.623 97.7087 132.186 97.9548 133.076C98.0252 132.912 98.1072 132.754 98.2009 132.602C98.74 131.723 99.4959 131.283 100.469 131.283C100.867 131.283 101.242 131.383 101.594 131.582C102.379 132.062 102.771 132.9 102.771 134.096V138.561H103.545C103.627 138.561 103.697 138.566 103.756 138.578C103.908 138.602 103.984 138.742 103.984 139H100.047V138.561C100.363 138.561 100.592 138.531 100.732 138.473C100.967 138.367 101.084 138.062 101.084 137.559V133.902C101.084 133.562 101.031 133.252 100.926 132.971C100.703 132.373 100.316 132.074 99.7654 132.074C99.5779 132.074 99.3904 132.121 99.2029 132.215C98.6052 132.531 98.2302 133.129 98.0779 134.008V134.131V138.561H98.6755C98.7576 138.561 98.8279 138.566 98.8865 138.578C99.0388 138.602 99.115 138.742 99.115 139H95.3533V138.561C95.658 138.561 95.8865 138.531 96.0388 138.473C96.2849 138.367 96.408 138.062 96.408 137.559V133.902C96.408 133.551 96.3611 133.24 96.2673 132.971C96.0447 132.385 95.6755 132.092 95.1599 132.092C94.9373 132.092 94.7087 132.162 94.4744 132.303C93.8533 132.701 93.5017 133.375 93.4197 134.324L93.4021 138.561H93.9998ZM109.125 131.723C108.903 131.723 108.698 131.764 108.51 131.846C107.69 132.209 107.256 133.141 107.209 134.641L108.774 134.676C109.266 134.699 109.647 134.676 109.916 134.605C110.397 134.477 110.637 134.125 110.637 133.551C110.637 133.316 110.608 133.088 110.549 132.865C110.35 132.104 109.875 131.723 109.125 131.723ZM112.272 137.26C112.202 137.424 112.12 137.588 112.026 137.752C111.44 138.701 110.485 139.176 109.161 139.176C108.375 139.176 107.672 138.988 107.051 138.613C105.914 137.934 105.346 136.814 105.346 135.256C105.346 134.354 105.563 133.562 105.996 132.883C106.676 131.816 107.713 131.283 109.108 131.283C109.846 131.283 110.508 131.436 111.094 131.74C111.973 132.197 112.412 132.865 112.412 133.744C112.412 134.084 112.319 134.365 112.131 134.588C111.733 135.01 110.731 135.203 109.125 135.168L107.209 135.133C107.209 135.145 107.209 135.156 107.209 135.168C107.268 137.512 108.03 138.684 109.495 138.684C109.682 138.684 109.87 138.66 110.057 138.613C110.866 138.426 111.463 137.928 111.85 137.119L112.272 137.26ZM116.692 138.701C117.489 138.701 117.999 138.449 118.222 137.945C118.292 137.793 118.327 137.635 118.327 137.471C118.327 136.943 117.958 136.492 117.22 136.117C117.067 136.035 116.815 135.918 116.464 135.766C115.538 135.367 114.923 134.998 114.618 134.658C114.29 134.283 114.126 133.844 114.126 133.34C114.126 132.461 114.606 131.852 115.567 131.512C116.001 131.359 116.476 131.283 116.991 131.283C117.835 131.283 118.526 131.447 119.065 131.775C119.065 131.436 119.153 131.242 119.329 131.195C119.388 131.184 119.452 131.178 119.522 131.178V133.375H119.03C118.983 132.297 118.392 131.752 117.255 131.74C116.435 131.74 115.925 131.992 115.726 132.496C115.679 132.625 115.655 132.76 115.655 132.9C115.655 133.404 116.013 133.838 116.728 134.201C116.88 134.271 117.126 134.377 117.466 134.518C118.403 134.916 119.024 135.285 119.329 135.625C119.681 136.023 119.856 136.486 119.856 137.014C119.856 137.975 119.353 138.625 118.345 138.965C117.935 139.105 117.478 139.176 116.974 139.176C116.048 139.164 115.257 138.965 114.601 138.578C114.601 138.883 114.524 139.059 114.372 139.105C114.302 139.117 114.22 139.123 114.126 139.123V136.451H114.671C114.694 137.939 115.368 138.689 116.692 138.701Z" fill="#3A3F42"/>
<g clip-path="url(#clip0_11382_2671)">
<path d="M44.7089 83.9782C44.7089 84.9068 44.5244 85.7937 44.1759 86.5866C43.192 88.8924 40.9577 90.4992 38.3544 90.4992C34.839 90.4992 32 87.5778 32 83.9782C32 82.7471 32.328 81.589 32.9122 80.6082C34.0293 78.7197 36.0484 77.4573 38.3544 77.4573C41.8596 77.4573 44.7089 80.3787 44.7089 83.9782Z" fill="url(#paint0_linear_11382_2671)"/>
<path d="M41.2551 83.9783C41.2551 85.6164 39.9535 86.931 38.3546 86.931C36.7557 86.931 35.4541 85.606 35.4541 83.9783C35.4541 82.3507 36.7557 81.0256 38.3546 81.0256C39.9535 81.0256 41.2551 82.3507 41.2551 83.9783Z" fill="#A6B1AB"/>
<g opacity="0.5" style="mix-blend-mode:multiply">
<path d="M44.7088 83.9782C44.7088 84.9068 44.5243 85.7937 44.1759 86.5866C41.0294 83.8426 35.0234 81.2968 32.9121 80.6082C34.0293 78.7197 36.0483 77.4573 38.3544 77.4573C41.8596 77.4573 44.7088 80.3787 44.7088 83.9782Z" fill="#676269"/>
</g>
<g style="mix-blend-mode:multiply" opacity="0.4">
<path d="M36.7451 83.78C36.7451 84.0721 36.5196 84.3017 36.2327 84.3017C35.9457 84.3017 35.7202 84.0721 35.7202 83.78C35.7202 83.4878 35.9457 83.2583 36.2327 83.2583C36.5196 83.2583 36.7451 83.4878 36.7451 83.78Z" fill="#808081"/>
<path d="M38.8154 86.0961C38.8154 86.3883 38.59 86.6178 38.303 86.6178C38.016 86.6178 37.7905 86.3883 37.7905 86.0961C37.7905 85.804 38.016 85.5745 38.303 85.5745C38.59 85.5745 38.8154 85.8144 38.8154 86.0961Z" fill="#808081"/>
<path d="M38.918 82.1105C38.918 82.3922 38.6925 82.6322 38.4055 82.6322C38.1185 82.6322 37.8931 82.4027 37.8931 82.1105C37.8931 81.8184 38.1185 81.5889 38.4055 81.5889C38.6925 81.5889 38.918 81.8184 38.918 82.1105Z" fill="#808081"/>
<path d="M41.019 83.9052C41.019 84.1974 40.7833 84.4269 40.5066 84.4269C40.2299 84.4269 39.9941 84.1869 39.9941 83.9052C39.9941 83.6235 40.2196 83.3835 40.5066 83.3835C40.7936 83.3835 41.019 83.6235 41.019 83.9052Z" fill="#808081"/>
</g>
<path d="M89.9788 80.3786L84.0241 80.6395L82.3125 80.7125L83.3887 67.2637H87.4985L89.9788 80.3786Z" fill="#676269"/>
<path d="M87.0887 62.7563C86.5353 64.0188 86.1253 65.6673 85.8896 67.3471L83.85 67.3158L81.6669 67.2845L81.5747 62.7563H85.4796L87.099 62.7668L87.0887 62.7563Z" fill="#4F4F4F"/>
<g opacity="0.3" style="mix-blend-mode:multiply">
<path d="M87.0888 62.7563C86.5354 64.0188 86.1254 65.6673 85.8897 67.3471L83.8501 67.3158L85.4695 62.7563H87.0888Z" fill="#4F4F4F"/>
</g>
<g opacity="0.4" style="mix-blend-mode:multiply">
<path d="M89.9791 80.3786L84.0244 80.6395C84.2806 78.2084 85.1211 68.6931 85.2543 67.2637H87.4989L89.9791 80.3786Z" fill="#676269"/>
</g>
<path d="M70.9159 53.5332C70.7827 53.5332 70.6699 53.4184 70.6699 53.2828V38.7802C70.6699 38.6446 70.7827 38.5298 70.9159 38.5298C71.0491 38.5298 71.1619 38.6446 71.1619 38.7802V53.2828C71.1619 53.4184 71.0491 53.5332 70.9159 53.5332Z" fill="#808081"/>
<path d="M69.6038 68.1089L69.491 80.5978L64.182 80.5457L59.7441 80.4935V68.2237L66.98 68.1402L69.6038 68.1089Z" fill="#676269"/>
<g opacity="0.5" style="mix-blend-mode:multiply">
<path d="M69.6039 68.1089L69.4912 80.5978L64.1821 80.5457L66.9801 68.1402L69.6039 68.1089Z" fill="#676269"/>
</g>
<path d="M73.4471 66.7004V66.8256C73.4471 67.5559 73.1397 68.1611 72.5555 68.4219C72.3505 68.5054 72.125 68.5575 71.8585 68.5575H60.482C59.6519 68.5575 58.9447 68.0463 58.6987 67.3368C58.6372 67.1594 58.6064 66.9716 58.6064 66.7734C58.6064 65.7926 59.4469 64.9893 60.482 64.9893H71.8585C72.7399 64.9893 73.2626 65.5109 73.4061 66.283C73.4369 66.4187 73.4471 66.5647 73.4471 66.7108V66.7004Z" fill="#4F4F4F"/>
<g opacity="0.4" style="mix-blend-mode:multiply">
<path d="M73.4472 66.7003V66.8255C73.4472 67.5558 73.1397 68.161 72.5555 68.4218C72.3505 68.5053 72.125 68.5575 71.8586 68.5575H60.4821C59.6519 68.5575 58.9447 68.0462 58.6987 67.3367L73.3959 66.283C73.4267 66.4186 73.4369 66.5647 73.4369 66.7107L73.4472 66.7003Z" fill="#4F4F4F"/>
</g>
<path d="M68.5586 80.4726C53.472 80.6917 50.2332 79.5441 49.9053 79.1267L50.3152 81.8081C55.45 83.3314 68.3024 83.0602 71.5924 82.9662C71.4181 82.9662 71.2541 82.9663 71.1209 82.9558C69.7065 82.9141 68.9481 81.8603 68.5484 80.4831L68.5586 80.4726Z" fill="#0F492D"/>
<path d="M50.8483 82.0689H50.8278C50.7663 82.0376 50.5511 81.975 50.2128 81.8602C50.0899 81.8185 49.9566 81.7663 49.8029 81.7142C49.0444 81.4324 47.9273 80.9734 46.6667 80.3056C43.7662 78.7615 40.0867 76.1113 38.0882 71.9171C34.4702 64.3319 35.4541 56.4128 35.4541 56.4128H49.9156C49.9156 56.4128 49.9156 56.6215 49.9156 56.9867C49.8849 59.2716 49.7926 67.7854 49.9771 72.5744C50.1923 78.1459 50.4178 81.662 50.8585 82.0585L50.8483 82.0689Z" fill="url(#paint1_linear_11382_2671)"/>
<path d="M107.29 60.1689L93.8739 60.4298L89.846 60.5132L88.9646 60.5341C88.9646 60.5341 87.458 47.5965 87.0173 44.5917C86.8225 43.2979 86.9045 42.0354 85.8489 41.0338C85.6234 40.8147 85.3364 40.606 84.9879 40.4078C83.2148 39.4166 79.6891 38.7906 72.5558 38.7906C57.5511 38.7906 47.8555 38.7384 47.8555 38.7384C47.8555 38.7384 47.8657 38.4463 47.9477 37.9977C48.0912 37.1317 48.4704 35.671 49.3928 34.6276C49.9873 33.9495 50.8175 33.4486 51.9654 33.3756C53.554 33.2817 60.1441 33.1669 67.708 33.0835C70.1267 33.0626 72.648 33.0417 75.1386 33.0209C78.3568 33 81.5237 33 84.3525 33C88.9543 33.0209 92.6543 33.073 94.2531 33.1982C94.9808 33.2504 95.6572 33.386 96.2927 33.5738C98.5065 34.2207 100.208 35.6084 101.489 37.3403C102.739 39.0306 103.59 41.0443 104.102 43.0162C105.312 47.5861 107.28 60.1585 107.28 60.1585L107.29 60.1689Z" fill="url(#paint2_linear_11382_2671)"/>
<path d="M45.3954 51.4986C43.3456 52.7507 37.6266 51.5508 36.9194 51.4047C38.3236 47.5548 42.2592 41.4407 43.7351 39.1766C43.8888 38.9471 44.0221 38.7489 44.1143 38.6028C44.8522 39.6357 46.0821 40.8564 48.0192 41.3468C48.0397 41.6285 48.0499 41.9206 48.0499 42.2232C48.1114 45.4993 47.394 50.2779 45.3852 51.4986H45.3954Z" fill="#A6B1AB"/>
<path d="M49.9975 38.3315L49.8336 56.3293H35.4131C35.4131 56.3293 35.864 54.0548 36.848 51.3838C36.848 51.3838 36.8685 51.3838 36.9197 51.3943C37.6166 51.5508 43.3356 52.7506 45.3957 51.4882C47.4045 50.2675 48.122 45.4889 48.0605 42.2128C48.0605 41.9102 48.04 41.6181 48.0297 41.3364C48.081 41.3364 48.1425 41.3572 48.1937 41.3677C48.6344 41.472 49.1059 41.5346 49.6081 41.545C49.6901 41.545 49.7721 41.545 49.8541 41.545H49.8951L49.6388 40.7938L48.5729 37.6533L50.0078 38.3106L49.9975 38.3315Z" fill="url(#paint3_linear_11382_2671)"/>
<path d="M48.0195 41.3364C48.0708 41.3573 48.1323 41.3677 48.1835 41.3781L48.0298 41.2529V41.3364H48.0195Z" fill="#ED1C29"/>
<g opacity="0.5" style="mix-blend-mode:multiply">
<path d="M49.9976 38.707L49.8336 56.3397H49.4954C49.2904 52.6358 49.4749 45.6453 49.6081 41.5658C49.6081 41.305 49.6286 41.0546 49.6389 40.825C49.6901 39.3435 49.7004 38.707 49.7004 38.707H50.0078H49.9976Z" fill="#FACF07"/>
</g>
<path d="M111 82.7992L105.26 82.8305C105.26 82.8305 103.128 77.9163 99.1826 78.0311C98.2909 78.0519 97.5017 78.3232 96.8048 78.7093C94.427 80.0447 93.2176 82.8827 93.2176 82.8827C93.2176 82.8827 75.9684 83.0392 71.6125 82.9557C71.4383 82.9557 71.2743 82.9557 71.1411 82.9453C69.7267 82.9035 68.9683 81.8497 68.5686 80.4725C68.0049 78.5423 68.1176 75.9548 68.0766 74.5254C67.9946 71.8231 67.9536 68.7765 67.9536 68.5574H70.3212L70.3007 67.3158L70.1572 60.0019L69.5012 59.9706L69.1733 53.2827L71.3871 53.1993L72.125 53.168L72.2377 60.0854L71.797 60.0645L71.8995 67.9105V68.5574C72.1557 68.5574 72.3812 68.5053 72.5657 68.4218C72.617 70.4981 72.8322 77.3842 73.1089 78.1458C73.1294 78.2189 73.1909 78.2815 73.2831 78.3441C74.349 79.1162 79.7401 79.5648 83.0813 79.2622C86.6992 78.9284 86.0433 75.8087 85.7153 71.6771C85.6128 70.4042 85.6845 68.86 85.8895 67.3367C86.1253 65.6569 86.5352 64.0084 87.0887 62.746C87.0887 62.7251 87.0989 62.7042 87.1092 62.6938C87.6729 61.4418 88.3801 60.5862 89.2102 60.5236L93.9146 60.4088L107.259 60.075L107.925 64.1336L111 82.7992Z" fill="url(#paint4_linear_11382_2671)"/>
<g opacity="0.3" style="mix-blend-mode:multiply">
<path d="M50.8174 81.9436C50.8174 81.9436 48.9828 81.4324 46.6357 80.1804C46.687 77.7181 46.8817 73.7325 46.933 72.7413C47.1482 68.1714 48.2653 60.6175 48.952 56.2876H49.895C49.895 56.2876 49.731 66.8776 49.9462 72.4596C50.1614 78.0311 50.3869 81.5472 50.8276 81.9332L50.8174 81.9436Z" fill="#209D6E"/>
</g>
<g opacity="0.4" style="mix-blend-mode:multiply">
<path d="M73.2835 78.344C69.8193 77.9058 71.0287 68.5469 71.0287 68.5469V60.0227L71.3771 53.1888L72.1151 53.1575L72.2278 60.0749L71.7871 60.054L71.8998 68.5469C72.1458 68.5469 72.3713 68.4948 72.5558 68.4113C72.607 70.4876 72.8222 77.3737 73.099 78.1353C73.1195 78.2084 73.181 78.271 73.2732 78.3336L73.2835 78.344Z" fill="#209D6E"/>
</g>
<g opacity="0.4" style="mix-blend-mode:multiply">
<path d="M107.925 64.1441L87.1094 62.7043C87.6731 61.4522 88.3803 60.5967 89.2104 60.5341L107.259 60.0854L107.925 64.1441Z" fill="#209D6E"/>
</g>
<g opacity="0.5" style="mix-blend-mode:multiply">
<path d="M107.29 60.169L88.9646 60.5341C88.9646 60.5341 87.458 47.5966 87.0173 44.5917C86.5765 41.5764 87.5707 38.7907 72.5558 38.7907C57.5409 38.7907 47.8555 38.7385 47.8555 38.7385C47.8555 38.7385 47.9887 36.2136 49.3928 34.6277L50.8994 37.8934C50.8994 37.8934 73.4167 37.7264 79.6584 38.2273C85.9001 38.7281 92.562 39.5627 92.562 39.5627L101.499 37.3404C102.75 39.0306 103.6 41.0443 104.113 43.0162C105.322 47.5861 107.29 60.1585 107.29 60.1585V60.169Z" fill="#FACF07"/>
</g>
<g opacity="0.5" style="mix-blend-mode:multiply">
<path d="M93.8739 60.4298L88.9646 60.5237C88.9646 60.5237 87.458 47.5862 87.0172 44.5813C86.5765 41.566 87.5707 38.7803 72.5558 38.7803C57.5409 38.7803 47.8555 38.7281 47.8555 38.7281C47.8555 38.7281 47.8657 38.4359 47.9477 37.9873L75.3025 38.2273L84.7522 39.1454L88.9441 41.4825L93.8841 60.4298H93.8739Z" fill="#FACF07"/>
</g>
<path d="M89.8458 60.5133L88.9644 60.5342C88.9644 60.5342 87.4577 47.5966 87.017 44.5918C86.8223 43.298 86.9043 42.0356 85.8486 41.0339L87.5295 42.2547L89.8355 60.5238L89.8458 60.5133Z" fill="#757A77"/>
<path d="M49.936 72.4597C49.7618 68.1611 49.8848 56.3712 49.8848 56.3712L49.8438 56.2668L35.4028 56.3294L35.3618 56.9033L49.1263 57.1641C49.1263 59.5221 49.1673 66.1161 49.1673 71.8963C49.1673 78.7511 49.7105 81.3491 49.7618 81.5786V81.5995L50.1718 81.7351L50.7765 81.9333H50.797C50.3562 81.5473 50.141 78.0312 49.9155 72.4597H49.936Z" fill="#565656"/>
<path d="M36.8476 51.3421C36.8476 51.3421 41.1625 52.2707 43.6632 51.8951C46.164 51.5195 46.8507 50.6744 47.5784 46.6262C48.3163 42.5049 47.9781 41.3259 47.9781 41.3259L48.5521 41.4407C48.5521 41.4407 48.2241 46.1775 47.6194 48.6085C47.0454 50.9039 46.656 53.6792 36.7144 51.7699L36.8373 51.3421H36.8476Z" fill="#565656"/>
<g opacity="0.4" style="mix-blend-mode:screen">
<path d="M37.9443 50.2676L39.3075 50.9875L45.6619 41.5138L44.1348 39.8445L37.9443 50.2676Z" fill="#A6B1AB"/>
</g>
<g opacity="0.4" style="mix-blend-mode:screen">
<path d="M37.1758 52.2185L38.7644 52.5524L37.227 55.8389L36.1304 55.6198L37.1758 52.2185Z" fill="#A6B1AB"/>
</g>
<g opacity="0.5" style="mix-blend-mode:multiply">
<path d="M49.8438 41.5658L49.8233 42.1084C49.1776 42.2336 48.5832 42.2545 48.0502 42.2127C45.406 41.9832 44.1351 39.9799 43.7354 39.1661C43.8891 38.9366 44.0223 38.7384 44.1146 38.5923C44.8525 39.6252 46.0824 40.8459 48.0195 41.3363C48.0707 41.3467 48.1322 41.3676 48.1835 41.378C48.6959 41.4928 49.2391 41.5554 49.8438 41.5658Z" fill="#A6B1AB"/>
</g>
<path d="M49.8846 41.566C49.2696 41.566 48.7059 41.493 48.1832 41.3782L48.0295 41.253V41.3365C47.1583 41.1174 46.4306 40.7522 45.8259 40.314C45.088 39.7923 44.5243 39.1663 44.1246 38.5924C44.0938 38.5403 44.0528 38.4985 44.0221 38.4464C43.4379 37.5804 43.2124 36.8813 43.2124 36.8813L46.7073 36.9544L48.3369 36.9857L48.5727 37.6639L48.6239 37.8099L49.9051 41.5556L49.8846 41.566Z" fill="#ED1C29"/>
<g opacity="0.5" style="mix-blend-mode:multiply">
<path d="M49.8843 41.566C49.2694 41.566 48.7057 41.4929 48.183 41.3781L48.0292 41.2529V41.3364C47.1581 41.1173 46.4304 40.7521 45.8257 40.3139C47.0556 39.5836 48.0805 38.4672 48.6134 37.8203L49.8946 41.566H49.8843Z" fill="#B42323"/>
</g>
<path d="M46.6971 36.9649L44.0221 38.4569C43.4379 37.5909 43.2124 36.8918 43.2124 36.8918L46.7073 36.9649H46.6971Z" fill="#ED1C29"/>
<g opacity="0.3" style="mix-blend-mode:screen">
<path d="M36.1303 60.4714L35.9663 62.3077C35.9663 62.3077 39.7995 65.7612 46.7074 67.1072L47.0353 63.758C47.0353 63.758 42.2695 63.9249 36.1303 60.4714Z" fill="#128859"/>
</g>
<g opacity="0.3" style="mix-blend-mode:screen">
<path d="M36.9502 64.9893C36.9502 64.9893 41.3368 68.8914 45.0572 70.2791L44.2373 73.1274C44.2373 73.1274 39.533 69.6113 37.0117 65.6048L36.9604 64.9997L36.9502 64.9893Z" fill="#128859"/>
</g>
<path d="M87.786 64.4885L106.685 64.405L106.849 64.9893L87.54 65.0728L87.786 64.4885Z" fill="#17AE6E"/>
<path d="M86.8632 69.559L107.525 69.5068L107.669 70.0598L86.8018 70.1224L86.8632 69.559Z" fill="#17AE6E"/>
<path d="M86.8017 73.4612L96.0874 73.5238L96.3334 74.1081L86.7505 74.0246L86.8017 73.4612Z" fill="#17AE6E"/>
<path d="M86.6381 77.2799L91.7626 77.259L91.9369 77.9163H86.4331L86.6381 77.2799Z" fill="#17AE6E"/>
<path d="M68.3945 70.2791H72.0124L72.1252 70.7903L68.3433 70.8425L68.3945 70.2791Z" fill="#1AC075"/>
<path d="M68.62 75.4124H72.1764L72.3404 75.9132L68.3433 75.9758L68.62 75.4124Z" fill="#1AC075"/>
<path opacity="0.5" d="M96.2927 33.5738L88.9954 35.431L84.3525 33C88.9544 33.0209 92.6543 33.073 94.2532 33.1982C94.9808 33.2504 95.6573 33.386 96.2927 33.5738Z" fill="url(#paint5_linear_11382_2671)" style="mix-blend-mode:screen"/>
<path opacity="0.5" d="M75.1386 33.0209L70.7007 35.0972C70.7007 35.0972 68.8457 33.9078 67.708 33.0731C70.1268 33.0522 72.6481 33.0314 75.1386 33.0105V33.0209Z" fill="url(#paint6_linear_11382_2671)" style="mix-blend-mode:screen"/>
<g opacity="0.4" style="mix-blend-mode:multiply">
<path d="M96.8048 78.7093C94.427 80.0448 93.2176 82.8828 93.2176 82.8828C93.2176 82.8828 75.9684 83.0393 71.6125 82.9558C71.4383 82.9558 71.2743 82.9558 71.1411 82.9454C69.7267 82.9036 68.9683 81.8498 68.5686 80.4726C68.0049 78.5424 68.1176 75.9549 68.0766 74.5255C67.9946 71.8232 67.9536 68.7766 67.9536 68.5575H70.3212L70.3007 67.3159L71.9098 67.9106V68.5575C72.166 68.5575 72.3915 68.5054 72.576 68.4219C72.6272 70.4982 72.8424 77.3843 73.1192 78.1459C73.1397 78.219 73.2011 78.2816 73.2934 78.3442C74.3593 79.1163 79.7503 79.5649 83.0915 79.2623C86.7094 78.9285 86.0535 75.8088 85.7255 71.6771C85.623 70.4043 85.6948 68.8601 85.8998 67.3368C86.1355 65.657 86.5455 64.0085 87.0989 62.746C87.0989 62.7252 87.1092 62.7043 87.1194 62.6939C87.6831 61.4419 88.3903 60.5863 89.2205 60.5237L93.9248 60.4089L96.8151 78.7093H96.8048Z" fill="#209D6E"/>
</g>
<path d="M110.918 82.7576H110.836L91.6498 82.8724H90.3687C90.3687 82.7054 90.8299 80.2744 92.521 77.9895C94.0378 75.9445 96.5489 74.0247 100.607 73.9934C104.092 73.9726 106.419 75.2141 107.956 76.7583C110.498 79.325 110.898 82.7367 110.898 82.7367L110.918 82.7576Z" fill="#16885A"/>
<path d="M94.4683 82.8826C94.417 81.6515 95.6777 77.3633 101.315 77.3633C106.952 77.3633 107.833 82.8826 107.833 82.8826H94.4683Z" fill="#0F492D"/>
<g opacity="0.4" style="mix-blend-mode:multiply">
<path d="M110.836 82.7576L91.6499 82.8724C92.1316 80.9213 94.0789 76.2888 101.366 76.0176C108.018 75.7672 110.17 80.1701 110.836 82.7472V82.7576Z" fill="#16885A"/>
</g>
<g opacity="0.6" style="mix-blend-mode:screen">
<path d="M108.059 77.0294C102.012 72.1882 93.3922 77.1129 92.5312 77.9997C94.0481 75.9547 96.5591 74.035 100.618 74.0037C104.102 73.9828 106.429 75.2244 107.966 76.7686C108.028 76.9251 108.048 77.019 108.048 77.019L108.059 77.0294Z" fill="#16885A"/>
</g>
<path d="M107.464 84.4791C107.464 84.9382 107.423 85.3764 107.331 85.8042C106.737 88.7673 104.174 91.0001 101.11 91.0001C97.6046 91.0001 94.7554 88.0787 94.7554 84.4791C94.7554 84.2079 94.7759 83.947 94.7964 83.6862C95.1756 80.4518 97.8506 77.9478 101.1 77.9478C104.605 77.9478 107.454 80.8691 107.454 84.4687L107.464 84.4791Z" fill="url(#paint7_linear_11382_2671)"/>
<path d="M104.021 84.5835C104.021 86.2216 102.719 87.5362 101.12 87.5362C99.5214 87.5362 98.2197 86.2112 98.2197 84.5835C98.2197 82.9559 99.5214 81.6309 101.12 81.6309C102.719 81.6309 104.021 82.9559 104.021 84.5835Z" fill="#A6B1AB"/>
<g opacity="0.5" style="mix-blend-mode:multiply">
<path d="M107.464 84.4791C107.464 84.9382 107.423 85.3764 107.331 85.8042C102.032 82.5281 96.918 83.1958 94.8066 83.6862C95.1859 80.4518 97.8609 77.9478 101.11 77.9478C104.615 77.9478 107.464 80.8691 107.464 84.4687V84.4791Z" fill="#676269"/>
</g>
<g style="mix-blend-mode:multiply" opacity="0.4">
<path d="M99.439 84.3957C99.439 84.6774 99.2135 84.9174 98.9265 84.9174C98.6395 84.9174 98.4141 84.6774 98.4141 84.3957C98.4141 84.114 98.6395 83.874 98.9265 83.874C99.2135 83.874 99.439 84.1036 99.439 84.3957Z" fill="#808081"/>
<path d="M101.509 86.7119C101.509 87.004 101.284 87.2335 100.997 87.2335C100.71 87.2335 100.484 87.004 100.484 86.7119C100.484 86.4197 100.71 86.1902 100.997 86.1902C101.284 86.1902 101.509 86.4197 101.509 86.7119Z" fill="#808081"/>
<path d="M101.612 82.7263C101.612 83.0184 101.386 83.2479 101.099 83.2479C100.812 83.2479 100.587 83.008 100.587 82.7263C100.587 82.4446 100.812 82.2046 101.099 82.2046C101.386 82.2046 101.612 82.4341 101.612 82.7263Z" fill="#808081"/>
<path d="M103.703 84.5209C103.703 84.8131 103.477 85.0426 103.19 85.0426C102.903 85.0426 102.678 84.8131 102.678 84.5209C102.678 84.2288 102.903 83.9993 103.19 83.9993C103.477 83.9993 103.703 84.2392 103.703 84.5209Z" fill="#808081"/>
</g>
<path d="M46.7073 57.957V60.3046C46.3281 60.4089 45.6106 60.4506 44.8215 60.4506C43.8068 60.4506 42.6589 60.3985 41.8902 60.3567C41.5622 60.3359 41.3163 60.3254 41.1625 60.315C41.0703 60.315 41.019 60.315 41.019 60.315V57.9675C41.1318 57.9883 41.265 57.9988 41.4188 58.0196C41.757 58.0509 42.1977 58.0614 42.6691 58.0718C43.4378 58.0718 44.2988 58.0718 45.0264 58.0405C45.9796 58.0092 46.7175 57.9779 46.7175 57.9779L46.7073 57.957Z" fill="#EC441D"/>
<g opacity="0.5" style="mix-blend-mode:multiply">
<path d="M46.7071 57.957V60.3046C46.3279 60.4089 45.6105 60.4506 44.8213 60.4506C44.9853 59.5847 45.016 58.5726 45.016 58.0301C45.9692 57.9988 46.7071 57.9675 46.7071 57.9675V57.957Z" fill="#EC441D"/>
</g>
<g opacity="0.5" style="mix-blend-mode:screen">
<path d="M42.659 58.0613L41.8903 60.3671C41.5623 60.3462 41.3163 60.3358 41.1626 60.3253L41.4188 58.0195C41.757 58.0508 42.1978 58.0613 42.6692 58.0717L42.659 58.0613Z" fill="#EC441D"/>
</g>
<path d="M45.9388 81.8291C45.9388 81.8291 44.9959 80.6397 40.8245 79.6276C38.7747 79.1268 35.9357 78.6677 32.0308 78.3756C32.0308 78.3756 32.7175 77.1653 34.0293 76.0593C35.2695 75.0056 37.0631 74.0457 39.3691 74.2543C39.5126 74.2648 39.6458 74.2856 39.7791 74.3065C40.0251 74.3483 40.271 74.4108 40.4965 74.4839C44.4629 75.7985 45.908 81.6935 45.9388 81.8291Z" fill="url(#paint8_linear_11382_2671)"/>
<g opacity="0.5" style="mix-blend-mode:multiply">
<path d="M45.939 81.829C45.939 81.829 44.9961 80.6395 40.8247 79.6275C40.6402 77.8016 40.097 75.5793 39.7793 74.3064C44.2889 75.0889 45.9083 81.6933 45.939 81.829Z" fill="#209D6E"/>
</g>
<g opacity="0.5" style="mix-blend-mode:multiply">
<path d="M40.4965 74.4838C38.2212 76.028 35.1055 76.0906 34.0293 76.0489C35.2694 74.9951 37.063 74.0352 39.3691 74.2439C39.5126 74.2543 39.6458 74.2752 39.779 74.296C40.025 74.3378 40.271 74.4004 40.4965 74.4734V74.4838Z" fill="#209D6E"/>
</g>
<path d="M39.5535 73.941C39.5945 74.0767 36.5197 75.3287 34.9824 75.8817C34.6749 75.986 34.2752 76.2364 33.978 76.0382C33.7012 75.8608 33.5475 75.4226 33.4245 75.12C33.2298 74.6505 33.1068 74.1393 33.0658 73.628C33.0248 72.9603 33.1478 72.2821 33.4348 71.677C33.527 71.4787 33.732 70.957 33.9575 70.8944C34.1727 70.8318 34.5212 71.1344 34.7056 71.2283C35.874 71.8439 38.0776 73.002 39.0513 73.5863C39.3382 73.7637 39.5227 73.8889 39.533 73.9306L39.5535 73.941Z" fill="url(#paint9_linear_11382_2671)"/>
<path d="M34.9927 75.8817C34.552 76.0382 34.2343 76.1426 34.1625 76.1426C34.1318 76.1426 34.0908 76.1426 34.06 76.0904C33.5886 75.4748 32.5739 73.1586 33.9268 70.9154C33.937 70.8945 33.9575 70.8737 33.978 70.8528C33.978 70.8528 34.2753 71.0093 34.7365 71.2388C34.9722 72.3448 35.2182 74.0559 35.0029 75.8817H34.9927Z" fill="#565656"/>
<path d="M34.2958 74.348C34.2753 74.9323 34.2138 75.527 34.0601 76.0799C34.0498 76.0695 34.0293 76.0486 34.0088 76.0382C34.0088 76.0382 33.9986 76.0278 33.9883 76.0173C33.9781 76.0069 33.9576 75.986 33.9473 75.9756C33.9473 75.9756 33.9371 75.9652 33.9268 75.9547C33.9166 75.9443 33.9063 75.9234 33.8859 75.913C33.6911 75.6626 33.4451 75.2348 33.2812 74.6923C33.2709 74.6506 33.2607 74.6088 33.2402 74.5775C33.2094 74.4627 33.1787 74.348 33.1479 74.2228C33.1479 74.2228 33.1479 74.2123 33.1479 74.2019C33.1479 74.1706 33.1377 74.1289 33.1274 74.0976C33.1274 74.0558 33.1172 74.0245 33.1069 73.9932C33.1069 73.9202 33.0864 73.8576 33.0762 73.7846C33.0762 73.7533 33.0762 73.722 33.0762 73.6907C33.0762 73.6281 33.0762 73.5759 33.0762 73.5133C33.0762 73.4716 33.0762 73.4194 33.0762 73.3777C33.0762 73.1899 33.0864 72.9812 33.1172 72.783C33.1172 72.7308 33.1377 72.6786 33.1479 72.6369C33.1479 72.5847 33.1684 72.5325 33.1787 72.4804C33.1889 72.4282 33.1992 72.376 33.2197 72.3239C33.2299 72.2717 33.2504 72.2195 33.2709 72.1674C33.2914 72.1152 33.3017 72.063 33.3222 72.0109C33.3324 71.9691 33.3529 71.9274 33.3734 71.8857C33.4451 71.7187 33.5271 71.5518 33.6194 71.3849C33.6399 71.3431 33.6706 71.3014 33.7014 71.2597C33.7424 71.1971 33.7834 71.1345 33.8346 71.0614C33.8551 71.0197 33.8859 70.9884 33.9166 70.9571C33.9166 70.9571 33.9268 70.9362 33.9371 70.9258C34.1011 71.6561 34.3471 72.9916 34.3061 74.3688L34.2958 74.348Z" fill="#818181"/>
<g opacity="0.4" style="mix-blend-mode:multiply">
<path d="M39.5536 73.9412C39.5946 74.0768 36.5199 75.3288 34.9825 75.8818C34.5418 76.0383 34.2241 76.1427 34.1524 76.1427C34.1216 76.1427 34.0909 76.1218 34.0499 76.0905C34.0396 76.0801 34.0191 76.0592 33.9986 76.0488C33.9986 76.0488 33.9884 76.0383 33.9781 76.0279C33.9679 76.0175 33.9474 75.9966 33.9371 75.9862C33.9371 75.9862 33.9269 75.9757 33.9166 75.9653C33.9064 75.9549 33.8961 75.934 33.8756 75.9236C33.6809 75.6731 33.4349 75.2454 33.2709 74.7028C33.2607 74.6611 33.2504 74.6194 33.2299 74.5881C33.1992 74.4733 33.1684 74.3585 33.1377 74.2333C33.5477 74.2959 33.9166 74.3481 34.2753 74.3794C37.4013 74.682 38.6415 73.9829 39.0617 73.6282C39.3486 73.8055 39.5331 73.9307 39.5434 73.9725L39.5536 73.9412Z" fill="#128859"/>
</g>
</g>
<defs>
<linearGradient id="paint0_linear_11382_2671" x1="35.5154" y1="89.6436" x2="41.3138" y2="78.4591" gradientUnits="userSpaceOnUse">
<stop stop-color="#676269"/>
<stop offset="1" stop-color="#4C504B"/>
</linearGradient>
<linearGradient id="paint1_linear_11382_2671" x1="37.6782" y1="57.5605" x2="48.7335" y2="69.488" gradientUnits="userSpaceOnUse">
<stop stop-color="#32AD75"/>
<stop offset="1" stop-color="#0B9768"/>
</linearGradient>
<linearGradient id="paint2_linear_11382_2671" x1="74.0624" y1="36.9439" x2="92.0154" y2="65.7683" gradientUnits="userSpaceOnUse">
<stop stop-color="#FACF07"/>
<stop offset="1" stop-color="#F2AA27"/>
</linearGradient>
<linearGradient id="paint3_linear_11382_2671" x1="40.9886" y1="44.5812" x2="50.3441" y2="59.0685" gradientUnits="userSpaceOnUse">
<stop stop-color="#FACF07"/>
<stop offset="1" stop-color="#F2AA27"/>
</linearGradient>
<linearGradient id="paint4_linear_11382_2671" x1="67.5641" y1="64.0501" x2="94.1143" y2="72.9627" gradientUnits="userSpaceOnUse">
<stop stop-color="#32AD75"/>
<stop offset="1" stop-color="#0B9768"/>
</linearGradient>
<linearGradient id="paint5_linear_11382_2671" x1="84.3525" y1="34.2207" x2="96.2927" y2="34.2207" gradientUnits="userSpaceOnUse">
<stop stop-color="#FACF07"/>
<stop offset="1" stop-color="#F2AA27"/>
</linearGradient>
<linearGradient id="paint6_linear_11382_2671" x1="67.708" y1="34.0643" x2="75.1386" y2="34.0643" gradientUnits="userSpaceOnUse">
<stop stop-color="#FACF07"/>
<stop offset="1" stop-color="#F2AA27"/>
</linearGradient>
<linearGradient id="paint7_linear_11382_2671" x1="99.7467" y1="91.6574" x2="101.9" y2="80.7374" gradientUnits="userSpaceOnUse">
<stop stop-color="#676269"/>
<stop offset="1" stop-color="#4C504B"/>
</linearGradient>
<linearGradient id="paint8_linear_11382_2671" x1="32.9429" y1="75.3812" x2="46.8727" y2="79.5923" gradientUnits="userSpaceOnUse">
<stop stop-color="#32AD75"/>
<stop offset="1" stop-color="#0B9768"/>
</linearGradient>
<linearGradient id="paint9_linear_11382_2671" x1="33.281" y1="73.1689" x2="39.634" y2="75.5964" gradientUnits="userSpaceOnUse">
<stop stop-color="#128859"/>
<stop offset="1" stop-color="#007741"/>
</linearGradient>
<clipPath id="clip0_11382_2671">
<rect width="79" height="58" fill="white" transform="translate(32 33)"/>
</clipPath>
</defs>
</svg>
