<svg width="20" height="20" viewBox="0 0 20 20" fill="none" xmlns="http://www.w3.org/2000/svg">
<path d="M1.86837 5.71182L9.57393 1.09036C9.83785 0.932066 10.1676 0.932124 10.4314 1.09051L18.1304 5.7118C18.2559 5.78711 18.3327 5.92272 18.3327 6.06905V16.6665C18.3327 17.1268 17.9596 17.4999 17.4993 17.4999H2.49935C2.03912 17.4999 1.66602 17.1268 1.66602 16.6665V6.06915C1.66602 5.92276 1.74283 5.78712 1.86837 5.71182ZM3.33268 6.77703V15.8332H16.666V6.77664L10.0024 2.77683L3.33268 6.77703ZM10.0491 11.4151L14.4623 7.69596L15.5363 8.97044L10.061 13.5846L4.46936 8.97627L5.52934 7.69011L10.0491 11.4151Z" fill="#3A3F42"/>
</svg>
