<svg xmlns="http://www.w3.org/2000/svg" version="1.1" xmlns:xlink="http://www.w3.org/1999/xlink" width="512" height="512" x="0" y="0" viewBox="0 0 64 64" style="enable-background:new 0 0 512 512" xml:space="preserve" class=""><g><path d="M48.985 49a1 1 0 0 1-1-1V21a1 1 0 1 1 2 0v27a1 1 0 0 1-1 1zM40.985 31c-3.309 0-6-2.691-6-6 0-3.025 4.686-8.959 5.22-9.625a.998.998 0 0 1 1.78.625c0 2.192 1.101 3.177 2.375 4.316 1.23 1.101 2.625 2.348 2.625 4.684 0 3.309-2.691 6-6 6zm-.583-12.569c-1.654 2.31-3.417 5.209-3.417 6.569 0 2.206 1.794 4 4 4s4-1.794 4-4c0-1.374-.708-2.074-1.958-3.192-.94-.841-2.039-1.824-2.625-3.377z" fill="#000000" opacity="1" data-original="#000000"></path><path d="M47.985 33c-4.411 0-8-3.589-8-8a1 1 0 1 1 2 0c0 3.309 2.691 6 6 6a1 1 0 1 1 0 2zM56.985 39c-3.309 0-6-2.691-6-6 0-2.336 1.395-3.583 2.625-4.684 1.275-1.14 2.375-2.124 2.375-4.316a.998.998 0 0 1 1.78-.625c.534.666 5.22 6.6 5.22 9.625 0 3.309-2.691 6-6 6zm.583-12.569c-.585 1.553-1.685 2.536-2.625 3.377-1.25 1.118-1.958 1.818-1.958 3.192 0 2.206 1.794 4 4 4s4-1.794 4-4c0-1.36-1.764-4.26-3.417-6.569z" fill="#000000" opacity="1" data-original="#000000"></path><path d="M49.985 41a1 1 0 1 1 0-2c3.309 0 6-2.691 6-6a1 1 0 1 1 2 0c0 4.411-3.589 8-8 8zM50.985 22.364a5.96 5.96 0 0 1-4.243-1.758c-1.133-1.133-1.757-2.64-1.757-4.242s.624-3.109 1.757-4.243C48.881 9.982 56.39 9.1 57.239 9.006a1 1 0 0 1 .817 1.702c-1.55 1.55-1.468 3.024-1.373 4.732.092 1.647.196 3.516-1.456 5.167a5.958 5.958 0 0 1-4.243 1.758zm4.233-11.058c-2.802.464-6.1 1.268-7.062 2.229-.755.756-1.171 1.761-1.171 2.829s.416 2.072 1.171 2.828c1.511 1.512 4.145 1.512 5.657 0 .972-.972.966-1.967.873-3.642-.07-1.26-.152-2.731.532-4.244z" fill="#000000" opacity="1" data-original="#000000"></path><path d="M48.956 21.934h-.049a1 1 0 0 1-.951-1.047 7.926 7.926 0 0 1 2.322-5.229.999.999 0 1 1 1.414 1.414 5.925 5.925 0 0 0-1.738 3.91 1 1 0 0 1-.998.952zM25.985 28a1 1 0 0 1-1-1c0-1.654-1.794-3-4-3a1 1 0 1 1 0-2c3.309 0 6 2.243 6 5a1 1 0 0 1-1 1z" fill="#000000" opacity="1" data-original="#000000"></path><path d="M16.985 40a1 1 0 0 1-1-1c0-5.88 1.045-17 5-17a1 1 0 1 1 0 2c-.897 0-3 5.104-3 15a1 1 0 0 1-1 1zM29.929 51.78c-.515 0-.953-.396-.996-.918C28.562 46.38 26.003 43 22.979 43a1 1 0 1 1 0-2c4.073 0 7.49 4.169 7.947 9.698a1.001 1.001 0 0 1-.997 1.082z" fill="#000000" opacity="1" data-original="#000000"></path><path d="M33.829 51.51a1 1 0 0 1-.991-.879C32.032 44 27.795 39 22.981 39a1 1 0 1 1 0-2c5.824 0 10.915 5.756 11.843 13.389a1.001 1.001 0 0 1-.994 1.121zM12.554 55.85a.99.99 0 0 1-.504-.137c-.515-.302-1.065-.91-1.065-1.713 0-1.349.688-2.069 1.1-2.501l.149-.16c2.251-2.551 3.75-5.626 3.75-12.339a1 1 0 1 1 2 0c0 7.773-2.043 11.16-4.25 13.662a9.152 9.152 0 0 1-.203.218c-.31.324-.535.561-.546 1.079.007-.022.039.007.075.027a1 1 0 0 1-.507 1.863zM17.031 54.46a.999.999 0 0 1-.578-1.817c2.55-1.802 5.527-5.67 5.527-10.644a1 1 0 1 1 2 0c0 5.737-3.433 10.199-6.373 12.276a.995.995 0 0 1-.576.184zM34.985 33c-5.607 0-10-2.636-10-6a1 1 0 1 1 2 0c0 1.892 3.286 4 8 4a1 1 0 1 1 0 2z" fill="#000000" opacity="1" data-original="#000000"></path><path d="M36.985 35c-.552 0-1-.447-1-1s-.449-1-1-1a1 1 0 0 1 0-2c1.654 0 3 1.346 3 3a1 1 0 0 1-1 1z" fill="#000000" opacity="1" data-original="#000000"></path><path d="M33.985 37a1 1 0 1 1 0-2c1.221 0 2-.592 2-1a1 1 0 1 1 2 0c0 1.683-1.757 3-4 3z" fill="#000000" opacity="1" data-original="#000000"></path><path d="M33.985 37c-6.168 0-11-2.636-11-6a1 1 0 1 1 2 0c0 1.892 3.696 4 9 4a1 1 0 1 1 0 2z" fill="#000000" opacity="1" data-original="#000000"></path><path d="M22.985 39a1 1 0 0 1-1-1c0-5.309.673-8 2-8a1 1 0 0 1 .628 1.778c-.288.787-.628 3.752-.628 6.222a1 1 0 0 1-1 1zM18.985 25a1 1 0 0 1-.905-.573c-.375-.174-1.483-.427-3.095-.427a1 1 0 1 1 0-2c1.867 0 5 .26 5 2a1 1 0 0 1-1 1z" fill="#000000" opacity="1" data-original="#000000"></path><path d="M11.985 28a1 1 0 0 1-1-1c0-2.757 1.794-5 4-5a1 1 0 1 1 0 2c-1.084 0-2 1.374-2 3a1 1 0 0 1-1 1z" fill="#000000" opacity="1" data-original="#000000"></path><path d="M12.985 29c-1.103 0-2-.897-2-2a1 1 0 1 1 2 0v.002a.999.999 0 1 1 0 1.998z" fill="#000000" opacity="1" data-original="#000000"></path><path d="M10.985 35a1 1 0 0 1-1-1c0-3.484.928-7 3-7a1 1 0 0 1 .089 1.996c-.345.281-1.089 1.999-1.089 5.004a1 1 0 0 1-1 1z" fill="#000000" opacity="1" data-original="#000000"></path><path d="M15.985 39c-3.309 0-6-2.243-6-5a1 1 0 1 1 2 0c0 1.654 1.794 3 4 3a1 1 0 1 1 0 2z" fill="#000000" opacity="1" data-original="#000000"></path><path d="M9.985 37a1 1 0 1 1 0-2c1.626 0 3-2.29 3-5a1 1 0 1 1 2 0c0 3.925-2.196 7-5 7z" fill="#000000" opacity="1" data-original="#000000"></path><path d="M13.985 31a1 1 0 0 1-1-1c0-3.859 2.691-7 6-7a1 1 0 1 1 0 2c-2.206 0-4 2.243-4 5a1 1 0 0 1-1 1zM24.985 22c-2.757 0-5-2.243-5-5s2.243-5 5-5 5 2.243 5 5-2.243 5-5 5zm0-8c-1.654 0-3 1.346-3 3s1.346 3 3 3 3-1.346 3-3-1.346-3-3-3zM39.134 51.07a.999.999 0 0 1-.959-.72l-4.14-14.19a1 1 0 1 1 1.92-.56l4.14 14.19a1 1 0 0 1-.961 1.28zM33.845 32.95a.999.999 0 0 1-.959-.72l-.86-2.95a1 1 0 1 1 1.92-.56l.86 2.95a1 1 0 0 1-.96 1.28zM47.997 64H1a.998.998 0 0 1-.768-1.64c.42-.504 10.576-12.355 35.159-12.899.528-.044 1.01.426 1.021.978a.999.999 0 0 1-.978 1.022c-18.138.401-28.221 7.309-31.965 10.54h44.528a1 1 0 1 1 0 2z" fill="#000000" opacity="1" data-original="#000000"></path><path d="M63 64H38.985a1 1 0 0 1-1-1 8.917 8.917 0 0 1 3.01-6.708 5.008 5.008 0 0 1 4.318-5.247A6.017 6.017 0 0 1 50.985 47c1.765 0 3.42.786 4.546 2.108A5.988 5.988 0 0 1 58.985 48c.788 0 1.987 0 3.015.34v-4.314c-5.526.205-32.008 2.071-32.008 18.905a1 1 0 1 1-2 0c0-8.64 6.128-15.002 17.723-18.399 8.542-2.503 16.932-2.531 17.285-2.531a1 1 0 0 1 1 1v20a1 1 0 0 1-1 1zm-22.944-2H62V51c0-.757-.732-1-3.015-1-1.106 0-2.14.452-2.91 1.274a1 1 0 0 1-1.605-.201A3.989 3.989 0 0 0 50.985 49a4.007 4.007 0 0 0-3.919 3.207 1 1 0 0 1-.98.803 1.7 1.7 0 0 1-.188-.015C44.331 53 42.985 54.346 42.985 56c0 .183.025.364.056.538.063.363-.079.732-.37.96A6.937 6.937 0 0 0 40.056 62zM10 15c-2.757 0-5-2.243-5-5s2.243-5 5-5 5 2.243 5 5-2.243 5-5 5zm0-8c-1.654 0-3 1.346-3 3s1.346 3 3 3 3-1.346 3-3-1.346-3-3-3zM10 20a1 1 0 0 1-1-1v-1.5a1 1 0 1 1 2 0V19a1 1 0 0 1-1 1zM10 3.5a1 1 0 0 1-1-1V1a1 1 0 1 1 2 0v1.5a1 1 0 0 1-1 1zM2.5 11H1a1 1 0 1 1 0-2h1.5a1 1 0 1 1 0 2zM19 11h-1.5a1 1 0 1 1 0-2H19a1 1 0 1 1 0 2zM16.364 17.364a.997.997 0 0 1-.707-.293l-1.061-1.061a.999.999 0 1 1 1.414-1.414l1.061 1.061a.999.999 0 0 1-.707 1.707zM4.697 5.696a.997.997 0 0 1-.707-.293L2.929 4.342a.999.999 0 1 1 1.414-1.414l1.061 1.061a.999.999 0 0 1-.707 1.707zM3.636 17.364a.999.999 0 0 1-.707-1.707l1.061-1.061a.999.999 0 1 1 1.414 1.414l-1.061 1.061a.997.997 0 0 1-.707.293zM15.303 5.696a.999.999 0 0 1-.707-1.707l1.061-1.061a.999.999 0 1 1 1.414 1.414L16.01 5.403a.997.997 0 0 1-.707.293z" fill="#000000" opacity="1" data-original="#000000"></path></g></svg>