<svg xmlns="http://www.w3.org/2000/svg" version="1.1" xmlns:xlink="http://www.w3.org/1999/xlink" width="512" height="512" x="0" y="0" viewBox="0 0 682.667 682.667" style="enable-background:new 0 0 512 512" xml:space="preserve" class=""><g><defs><clipPath id="a" clipPathUnits="userSpaceOnUse"><path d="M0 512h512V0H0Z" fill="#000000" opacity="1" data-original="#000000"></path></clipPath></defs><g clip-path="url(#a)" transform="matrix(1.33333 0 0 -1.33333 0 682.667)"><path d="m0 0-51.123-28.402a40.87 40.87 0 0 1-21.022-35.727h368.742c53.126 0 96.194 43.067 96.194 96.193v121.317c0 5.689 3.289 10.675 8.201 13.545 16.866 9.852 27.204 29.639 22.878 51.373-3.656 18.365-18.397 33.294-36.725 37.128-31.1 6.506-58.483-17.052-58.483-47.008v-96.193c0-25.615-20.024-46.553-45.272-48.016" style="stroke-width:15;stroke-linecap:round;stroke-linejoin:round;stroke-miterlimit:10;stroke-dasharray:none;stroke-opacity:1" transform="translate(79.645 99.686)" fill="none" stroke="#000000" stroke-width="15" stroke-linecap="round" stroke-linejoin="round" stroke-miterlimit="10" stroke-dasharray="none" stroke-opacity="" data-original="#000000" class=""></path><path d="M0 0c13.487 6.671 28.926 9.993 45.23 8.88 51.33-3.503 86.711-51.582 81.197-102.735-7.6-70.521-69-124.924-142.327-121.336-82.965 4.058-140.037 82.741-127.208 164.808 14.09 90.144 93.493 158.644 188.281 155.569 100.154-3.248 178.239-88.528 178.239-188.734v-.001c0-55.088-44.658-99.746-99.746-99.746h-4.463" style="stroke-width:15;stroke-linecap:round;stroke-linejoin:round;stroke-miterlimit:10;stroke-dasharray:none;stroke-opacity:1" transform="translate(152.83 299.013)" fill="none" stroke="#000000" stroke-width="15" stroke-linecap="round" stroke-linejoin="round" stroke-miterlimit="10" stroke-dasharray="none" stroke-opacity="" data-original="#000000" class=""></path><path d="M0 0c0 14.372 12.606 25.799 27.365 23.826 12.771-1.707 21.41-13.862 20.646-26.724-1.586-26.67-24.903-47.49-52.489-44.996-27.34 2.472-45.61 28.045-43.304 55.4 1.706 20.244 10.252 38.54 23.317 52.571" style="stroke-width:15;stroke-linecap:round;stroke-linejoin:round;stroke-miterlimit:10;stroke-dasharray:none;stroke-opacity:1" transform="translate(151.79 219.927)" fill="none" stroke="#000000" stroke-width="15" stroke-linecap="round" stroke-linejoin="round" stroke-miterlimit="10" stroke-dasharray="none" stroke-opacity="" data-original="#000000" class=""></path><path d="M0 0v99.45" style="stroke-width:15;stroke-linecap:round;stroke-linejoin:round;stroke-miterlimit:10;stroke-dasharray:none;stroke-opacity:1" transform="translate(424.339 344.929)" fill="none" stroke="#000000" stroke-width="15" stroke-linecap="round" stroke-linejoin="round" stroke-miterlimit="10" stroke-dasharray="none" stroke-opacity="" data-original="#000000" class=""></path><path d="M0 0c0-8.854-7.178-16.032-16.032-16.032-8.855 0-16.032 7.178-16.032 16.032s7.177 16.032 16.032 16.032C-7.178 16.032 0 8.854 0 0Z" style="stroke-width:15;stroke-linecap:round;stroke-linejoin:round;stroke-miterlimit:10;stroke-dasharray:none;stroke-opacity:1" transform="translate(440.371 460.411)" fill="none" stroke="#000000" stroke-width="15" stroke-linecap="round" stroke-linejoin="round" stroke-miterlimit="10" stroke-dasharray="none" stroke-opacity="" data-original="#000000" class=""></path><path d="m0 0 19.79 86.925" style="stroke-width:15;stroke-linecap:round;stroke-linejoin:round;stroke-miterlimit:10;stroke-dasharray:none;stroke-opacity:1" transform="translate(464.42 356.202)" fill="none" stroke="#000000" stroke-width="15" stroke-linecap="round" stroke-linejoin="round" stroke-miterlimit="10" stroke-dasharray="none" stroke-opacity="" data-original="#000000" class=""></path><path d="M0 0c0-8.854-7.178-16.032-16.032-16.032-8.855 0-16.032 7.178-16.032 16.032s7.177 16.032 16.032 16.032C-7.178 16.032 0 8.854 0 0Z" style="stroke-width:15;stroke-linecap:round;stroke-linejoin:round;stroke-miterlimit:10;stroke-dasharray:none;stroke-opacity:1" transform="translate(504.5 460.411)" fill="none" stroke="#000000" stroke-width="15" stroke-linecap="round" stroke-linejoin="round" stroke-miterlimit="10" stroke-dasharray="none" stroke-opacity="" data-original="#000000" class=""></path></g></g></svg>