<svg xmlns="http://www.w3.org/2000/svg" version="1.1" xmlns:xlink="http://www.w3.org/1999/xlink" width="512" height="512" x="0" y="0" viewBox="0 0 300 300" style="enable-background:new 0 0 512 512" xml:space="preserve" class=""><g><path d="M244.066 63.446a4.277 4.277 0 1 0 0-8.554 4.277 4.277 0 0 0 0 8.554zM80 232H56a4 4 0 0 0 0 8h24a4 4 0 0 0 0-8zM80 244H56a4 4 0 0 0 0 8h24a4 4 0 0 0 0-8z" fill="#000000" opacity="1" data-original="#000000" class=""></path><path d="M252 268h-34.226c1.378-2.363 2.226-5.073 2.226-8v-28h17.717a3.998 3.998 0 0 0 3.887-4.943L229.215 176H232a4 4 0 0 0 4-4v-38.434c0-13.812-5.154-26.678-14.139-35.295-.628-.602-1.324-1.079-1.997-1.599.04-.227.136-.433.136-.672V68c0-11.027-8.973-20-20-20s-20 8.973-20 20v9.926c0 5.968 2.39 11.382 6.252 15.359a22.564 22.564 0 0 0-7.536 4.524A21.868 21.868 0 0 0 170 96c-12.131 0-22 9.869-22 22v36c0 12.131 9.869 22 22 22 .789 0 1.566-.046 2.333-.127l-12.419 51.184a3.998 3.998 0 0 0 3.887 4.943H180v28c0 2.927.848 5.637 2.226 8h-61.422c4.437-4.99 7.196-11.915 7.196-19.564v-51.211l6.596-3.213c5.965-2.904 9.672-8.711 9.672-15.15v-66.023c0-5.857-2.713-11.332-7.445-15.02l-12.193-9.502c-.198-.154-.426-.263-.629-.41V60c0-11.027-8.973-20-20-20s-20 8.973-20 20v9.926c0 5.829 2.288 11.123 5.991 15.072-2.289.735-4.453 1.836-6.353 3.316l-12.195 9.504c-4.73 3.686-7.443 9.16-7.443 15.02V140h-1.273C56.812 140 52 144.812 52 150.727V176H36.795c-4.85 0-8.795 3.945-8.795 8.795v82.41c0 4.85 3.945 8.795 8.795 8.795H252a4 4 0 0 0 0-8zm-40-8c0 4.412-3.588 8-8 8v-36h8zM188 68c0-6.617 5.383-12 12-12s12 5.383 12 12v24h-9.926C194.314 92 188 85.686 188 77.926zm-18 38c4.412 0 8 3.588 8 8s-3.588 8-8 8-8-3.588-8-8 3.588-8 8-8zm0 24c6.064 0 11.287-3.43 14-8.415v9.912l-28 17.323v-27.236c2.713 4.986 7.936 8.416 14 8.416zm-13.393 27.854L184 140.907V154c0 7.719-6.281 14-14 14-6.373 0-11.706-4.308-13.393-10.146zm24.668 15.089c.007-.03-.003-.059.003-.09C187.688 169.005 192 162.005 192 154v-36c0-6.042-2.45-11.52-6.406-15.5 2.309-1.61 4.91-2.5 7.533-2.5h13.746c3.375 0 6.73 1.438 9.449 4.045 7.312 7.012 11.678 18.049 11.678 29.521V168h-.726l-7.787-32.094c-.52-2.148-2.689-3.48-4.83-2.943a3.999 3.999 0 0 0-2.943 4.83L232.631 224h-63.744zM188 260v-28h8v36c-4.412 0-8-3.588-8-8zM92 60c0-6.617 5.383-12 12-12s12 5.383 12 12v24h-3.756c-.102-.001-.202-.025-.305-.025h-6.116C98.182 83.837 92 77.6 92 69.926zm-20 52.838c0-3.375 1.59-6.551 4.361-8.709l12.195-9.504c2.193-1.709 4.953-2.65 7.771-2.65l15.918.025c2.711.066 5.352.979 7.466 2.625l12.193 9.502c2.773 2.162 4.363 5.336 4.363 8.711v66.023c0 3.355-1.982 6.404-5.176 7.959L128 188.326v-10.924a4 4 0 0 0-8 0v71.033c0 9.017-5.114 16.553-12 18.775V184c0-.282-.105-.531-.161-.797a7.754 7.754 0 0 0-.07-.344c-.056-.184-.088-.37-.168-.541-1.078-3.639-4.412-6.318-8.396-6.318H84v-25.273C84 144.812 79.188 140 73.273 140H72zM76 176h-4v-28h1.273A2.73 2.73 0 0 1 76 150.727zm-16-25.273A2.73 2.73 0 0 1 62.727 148H64v28h-4zM48 268H36.795a.796.796 0 0 1-.795-.795v-82.41c0-.438.357-.795.795-.795H52v32a4 4 0 0 0 8 0v-32h16v32a4 4 0 0 0 8 0v-32h15.205c.438 0 .795.357.795.795v82.41a.796.796 0 0 1-.795.795zM258 88c-7.719 0-14 6.281-14 14s6.281 14 14 14 14-6.281 14-14-6.281-14-14-14zm0 20c-3.309 0-6-2.691-6-6s2.691-6 6-6 6 2.691 6 6-2.691 6-6 6zM152 40a4 4 0 0 0 4-4v-8a4 4 0 0 0-8 0v8a4 4 0 0 0 4 4z" fill="#000000" opacity="1" data-original="#000000" class=""></path><path d="M152 48a4 4 0 0 0-4 4v8a4 4 0 0 0 8 0v-8a4 4 0 0 0-4-4zM136 48h8a4 4 0 0 0 0-8h-8a4 4 0 0 0 0 8zM160 48h8a4 4 0 0 0 0-8h-8a4 4 0 0 0 0 8z" fill="#000000" opacity="1" data-original="#000000" class=""></path></g></svg>