<svg xmlns="http://www.w3.org/2000/svg" version="1.1" xmlns:xlink="http://www.w3.org/1999/xlink" width="512" height="512" x="0" y="0" viewBox="0 0 512.001 512.001" style="enable-background:new 0 0 512 512" xml:space="preserve" class=""><g><path d="M156.905 82.581c-13.66 0-24.774 11.113-24.774 24.774s11.114 24.774 24.774 24.774 24.774-11.113 24.774-24.774-11.114-24.774-24.774-24.774zm0 33.033c-4.553 0-8.258-3.705-8.258-8.258s3.705-8.258 8.258-8.258c4.553 0 8.258 3.705 8.258 8.258s-3.705 8.258-8.258 8.258z" fill="#000000" opacity="1" data-original="#000000" class=""></path><path d="M462.453 82.581c-18.214 0-33.032 14.818-33.032 33.032H298.34L173.221 6.133A24.764 24.764 0 0 0 156.905.001a24.755 24.755 0 0 0-16.313 6.13L8.463 121.742C3.482 126.099.497 132.136.056 138.738c-.442 6.602 1.716 12.982 6.075 17.964a24.766 24.766 0 0 0 12.949 7.787C6.577 187.414.002 213.065.002 239.484c0 25.147 5.956 48.925 16.516 70.014V429.42c0 9.107 7.41 16.516 16.516 16.516h82.58v41.29c0 13.661 11.114 24.774 24.774 24.774h33.032c13.66 0 24.774-11.113 24.774-24.774v-41.29h264.258c27.322 0 49.548-22.228 49.548-49.548V132.13c.001-27.321-22.227-49.549-49.547-49.549zm0 16.517c18.214 0 33.032 14.818 33.032 33.032v227.366c-8.773-7.864-20.351-12.656-33.032-12.656a32.822 32.822 0 0 0-16.516 4.444v-235.67c-.001-9.107 7.409-16.516 16.516-16.516zm0 264.257v33.032c-9.107 0-16.516-7.41-16.516-16.516-.001-9.106 7.409-16.516 16.516-16.516zM429.42 132.13v244.515a13.505 13.505 0 0 1-4.376-7.034 30.016 30.016 0 0 0-29.164-22.772h-7.242a13.526 13.526 0 0 1-13.142-10.261l-8.258-33.032a30.016 30.016 0 0 0-29.164-22.772h-29.791a156.54 156.54 0 0 0 5.525-41.29c0-7.284-.518-14.506-1.502-21.634l27.522-33.027a16.04 16.04 0 0 1 8.483-5.324l13.206-3.301a32.738 32.738 0 0 0 22.397-19.551l5.75-14.374a16.059 16.059 0 0 1 14.983-10.144h24.774v.001zM214.711 247.742v-82.58h16.516v82.58h-16.516zm-115.613-82.58v82.58H82.582v-82.58h16.516zm16.517 0h16.516v82.58h-16.516v-82.58zm33.032 0h16.516v82.58h-16.516v-82.58zm33.032 0h16.516v82.58h-16.516v-82.58zm-128.72-16.516 103.946-90.952 103.946 90.952H52.959zm13.107 16.516v82.58H49.865c-.209-2.726-.315-5.48-.315-8.258v-74.322h16.516zm47.961 158.129-5.905 11.81c-16.998-8.707-31.384-21.815-41.645-37.811h70.731c-.05.139-.109.271-.156.412l-2.337 7.009a8.196 8.196 0 0 1-4.134 4.766l-5.484 2.742a24.908 24.908 0 0 0-11.07 11.072zm14.771 7.387a8.292 8.292 0 0 1 3.686-3.686l5.484-2.742c5.914-2.957 10.324-8.04 12.414-14.314l2.338-7.011a8.228 8.228 0 0 1 7.817-5.634 8.23 8.23 0 0 1 7.995 6.242l2.732 10.931a24.715 24.715 0 0 0 18.013 18.014l14.431 3.608c-14.153 6.886-30.035 10.754-46.805 10.754a106.923 106.923 0 0 1-33.506-5.361l5.401-10.801zm91.02-4.261c-3.07-2.915-6.872-5.048-11.043-6.09l-15.489-3.871a8.23 8.23 0 0 1-5.997-5.997l-2.731-10.931a24.963 24.963 0 0 0-.68-2.237h63.455a108.254 108.254 0 0 1-27.515 29.126zm36.179-45.642H57.813a106.416 106.416 0 0 1-5.372-16.516h208.928a106.45 106.45 0 0 1-5.372 16.516zm8.262-41.291c0 2.778-.106 5.532-.315 8.258h-16.201v-82.58h16.516v74.322zm43.419-82.782c4.359-4.981 6.517-11.36 6.075-17.961a24.945 24.945 0 0 0-1.357-6.611h63.875a33.181 33.181 0 0 0-1.941 4.009l-5.75 14.374a16.178 16.178 0 0 1-11.069 9.662l-13.206 3.301a32.437 32.437 0 0 0-17.164 10.775l-19.124 22.948a155.717 155.717 0 0 0-13.288-32.709 24.762 24.762 0 0 0 12.949-7.788zm-291.14-16.864a8.2 8.2 0 0 1 2.802-5.665L151.47 18.56a8.26 8.26 0 0 1 10.876.001l132.128 115.613a8.2 8.2 0 0 1 2.801 5.665 8.2 8.2 0 0 1-2.025 5.987 8.26 8.26 0 0 1-11.652.775L156.905 35.748 30.212 146.604a8.262 8.262 0 0 1-11.65-.777 8.197 8.197 0 0 1-2.024-5.989zm16.496 33.563v66.083c0 68.302 55.568 123.871 123.871 123.871s123.871-55.568 123.871-123.871v-66.083c10.828 20.248 16.516 42.83 16.516 66.083 0 77.41-62.978 140.387-140.387 140.387S16.518 316.894 16.518 239.484c0-23.252 5.689-45.836 16.516-66.083zm148.645 239.502h-49.548v-18.478a157.366 157.366 0 0 0 49.548 0v18.478zM73.032 372.031c-3.484 1.913-6.503 4.645-8.718 7.97l-8.478 12.716a8.224 8.224 0 0 1-6.857 3.671h-7.704c-2.888 0-5.661.502-8.24 1.415v-62.127a158.154 158.154 0 0 0 39.997 36.355zm-39.998 57.388v-8.276c0-4.544 3.697-8.241 8.241-8.241h7.704a24.71 24.71 0 0 0 20.599-11.024l8.478-12.717a8.28 8.28 0 0 1 4.252-3.247l10.147-3.383a155.621 155.621 0 0 0 23.16 8.33v38.558H33.034zm140.387 66.065h-33.032c-4.553 0-8.258-3.705-8.258-8.258V429.42h49.548v57.806c0 4.553-3.705 8.258-8.258 8.258zm24.774-104.621a155.714 155.714 0 0 0 28.759-11.009l1.717 4.006c3.03 7.068 9.291 12.4 16.751 14.266l20.66 5.164a8.242 8.242 0 0 1 3.829 2.168l10.053 10.054a24.788 24.788 0 0 0 11.501 6.512l16.101 4.025a8.225 8.225 0 0 1 4.823 3.371H198.195v-38.557zm264.258 38.556H329.878a24.706 24.706 0 0 0-18.307-19.394L295.47 406a8.242 8.242 0 0 1-3.829-2.168l-10.053-10.054a24.777 24.777 0 0 0-11.501-6.511l-20.66-5.164a8.282 8.282 0 0 1-5.575-4.748l-2.449-5.715c27.495-17.642 49.15-43.626 61.368-74.349h35.302a13.526 13.526 0 0 1 13.142 10.261l8.258 33.032a30.016 30.016 0 0 0 29.164 22.772h7.242a13.526 13.526 0 0 1 13.142 10.261 30 30 0 0 0 24.636 22.413c5.669 10.06 16.449 16.874 28.796 16.874 9.107 0 16.516-7.41 16.516-16.516v-28.6c9.867 5.72 16.516 16.397 16.516 28.6 0 18.213-14.818 33.031-33.032 33.031z" fill="#000000" opacity="1" data-original="#000000" class=""></path></g></svg>