<svg xmlns="http://www.w3.org/2000/svg" version="1.1" xmlns:xlink="http://www.w3.org/1999/xlink" width="512" height="512" x="0" y="0" viewBox="0 0 60 60" style="enable-background:new 0 0 512 512" xml:space="preserve" class=""><g><path d="M51.24 17.49h-7.71l-2.69-6.27a3.758 3.758 0 0 0-3.45-2.28H22.62c-1.5 0-2.86.89-3.45 2.28l-2.69 6.27H8.76C6.69 17.49 5 19.18 5 21.25V47.3c0 2.07 1.69 3.76 3.76 3.76H51.24c2.07 0 3.76-1.69 3.76-3.76V21.25c0-2.07-1.69-3.76-3.76-3.76zM7 47.3V25.48h3.25c1.12 0 2.03.91 2.03 2.02v21.55H8.76c-.97 0-1.76-.79-1.76-1.75zm46 0c0 .97-.79 1.76-1.76 1.76H14.28V27.5c0-2.22-1.81-4.02-4.03-4.02H7v-2.23c0-.97.79-1.76 1.76-1.76h8.38c.4 0 .76-.24.92-.61L21 12.01c.28-.65.91-1.06 1.61-1.06h14.77c.7 0 1.34.42 1.61 1.06l2.95 6.87c.16.37.52.61.92.61h8.37c.97 0 1.76.79 1.76 1.76V47.3z" fill="#000000" opacity="1" data-original="#000000" class=""></path><path d="M30 19.62c-7.58 0-13.74 6.17-13.74 13.74S22.42 47.11 30 47.11s13.74-6.17 13.74-13.74S37.58 19.62 30 19.62zm0 25.49c-6.48 0-11.74-5.27-11.74-11.74S23.52 21.62 30 21.62s11.74 5.27 11.74 11.74S36.48 45.11 30 45.11z" fill="#000000" opacity="1" data-original="#000000" class=""></path><path d="M31.81 32.22c-1.45-2.09-1.79-5.06-.85-7.58a1.015 1.015 0 0 0-.96-1.35c-5.55 0-10.07 4.52-10.07 10.07S24.45 43.44 30 43.44c4.47 0 8.35-2.88 9.64-7.16.1-.32.03-.67-.19-.93a.986.986 0 0 0-.88-.35c-.32.03-.64.06-.98.06-3.14 0-4.88-1.54-5.78-2.84zM30 41.44c-4.45 0-8.07-3.62-8.07-8.07 0-3.99 2.91-7.31 6.73-7.96-.57 2.75-.03 5.75 1.51 7.96 1.58 2.27 4.06 3.57 7.01 3.68-1.36 2.64-4.14 4.39-7.18 4.39zM48.84 21.92h-1.08c-.55 0-1 .45-1 1s.45 1 1 1h1.08c.55 0 1-.45 1-1s-.45-1-1-1zM23.58 14.92h12.84c.55 0 1-.45 1-1s-.45-1-1-1H23.58c-.55 0-1 .45-1 1s.45 1 1 1z" fill="#000000" opacity="1" data-original="#000000" class=""></path></g></svg>