<svg width="20" height="20" viewBox="0 0 20 20" fill="none" xmlns="http://www.w3.org/2000/svg">
<path d="M10.8347 16.6152C14.1232 16.2051 16.668 13.3997 16.668 10.0001C16.668 6.31818 13.6832 3.33341 10.0013 3.33341C6.3194 3.33341 3.33464 6.31818 3.33464 10.0001C3.33464 13.3997 5.87938 16.2051 9.16799 16.6152V11.6667H7.5013V10.0001H9.16799V8.62158C9.16799 7.50721 9.28399 7.1031 9.5019 6.69569C9.71974 6.28828 10.0395 5.96855 10.4469 5.75066C10.7658 5.58011 11.1614 5.47718 11.8527 5.43303C12.1271 5.41551 12.4822 5.43786 12.918 5.50008V7.08341H12.5013C11.7369 7.08341 11.4215 7.11951 11.2329 7.22036C11.116 7.28291 11.0342 7.36473 10.9716 7.48169C10.8707 7.67023 10.8347 7.85719 10.8347 8.62158V10.0001H12.918L12.5013 11.6667H10.8347V16.6152ZM10.0013 18.3334C5.39893 18.3334 1.66797 14.6024 1.66797 10.0001C1.66797 5.39771 5.39893 1.66675 10.0013 1.66675C14.6037 1.66675 18.3347 5.39771 18.3347 10.0001C18.3347 14.6024 14.6037 18.3334 10.0013 18.3334Z" fill="#3A3F42"/>
</svg>
