<?xml version="1.0" encoding="utf-8"?>
<!-- Generator: Adobe Illustrator 24.0.1, SVG Export Plug-In . SVG Version: 6.00 Build 0)  -->
<svg version="1.1" id="Layer_1" xmlns="http://www.w3.org/2000/svg" xmlns:xlink="http://www.w3.org/1999/xlink" x="0px" y="0px"
	 viewBox="0 0 24 24" style="enable-background:new 0 0 24 24;" xml:space="preserve">
<style type="text/css">
	.st0{fill:#1877F2;}
	.st1{fill:#FFFFFF;}
</style>
<g>
	<path class="st0" d="M23.7,12c0,5.8-4.3,10.7-9.9,11.6v-8.2h2.7l0.5-3.4h-3.2V9.8c0-0.9,0.5-1.8,1.9-1.8h1.5V5.1
		c0,0-1.3-0.2-2.6-0.2c-2.7,0-4.4,1.6-4.4,4.6V12h-3v3.4h3v8.2C4.6,22.7,0.3,17.8,0.3,12C0.3,5.5,5.5,0.3,12,0.3S23.7,5.5,23.7,12z"
		/>
	<path class="st1" d="M16.6,15.4l0.5-3.4h-3.2V9.8c0-0.9,0.5-1.8,1.9-1.8h1.5V5.1c0,0-1.3-0.2-2.6-0.2c-2.7,0-4.4,1.6-4.4,4.6V12h-3
		v3.4h3v8.2c0.6,0.1,1.2,0.1,1.8,0.1s1.2,0,1.8-0.1v-8.2H16.6z"/>
</g>
</svg>
