<svg width="424" height="424" viewBox="0 0 424 424" fill="none" xmlns="http://www.w3.org/2000/svg">
<path d="M352.066 208.33L293.827 178.017C289.314 175.644 289.851 169.063 294.687 167.445L337.023 153.853C341.429 152.45 342.396 146.625 338.742 143.82L312.524 124.187C311.02 123.108 309.085 122.784 307.366 123.324L241.283 144.575C223.338 150.293 213.453 169.603 219.148 187.618L254.714 299.054C255.681 302.075 258.905 303.693 261.914 302.722L287.273 294.631C290.281 293.66 291.893 290.424 290.926 287.404L269.22 219.226C267.716 214.371 272.766 210.056 277.279 212.43L334.444 242.311C337.238 243.822 340.676 242.635 342.181 239.83L354.43 216.097C355.935 213.293 354.753 209.84 351.959 208.33H352.066Z" fill="white" fill-opacity="0.4"/>
<path d="M185.945 144.468L119.862 123.216C118.143 122.677 116.209 123 114.704 124.079L88.4859 143.713C84.7251 146.517 85.6922 152.343 90.2052 153.745L132.541 167.338C137.377 168.848 137.914 175.536 133.401 177.91L75.1618 208.223C72.3681 209.733 71.2935 213.185 72.6904 215.99L84.94 239.723C86.4443 242.527 89.8828 243.606 92.6766 242.204L149.841 212.322C154.354 209.949 159.512 214.264 157.9 219.118L136.195 287.296C135.228 290.317 136.84 293.553 139.848 294.524L165.207 302.615C168.216 303.586 171.439 301.967 172.406 298.947L207.973 187.511C213.668 169.495 203.783 150.185 185.838 144.468H185.945Z" fill="white" fill-opacity="0.4"/>
<g opacity="0.2">
<path d="M307.519 123.799C309.082 123.309 310.853 123.603 312.232 124.593L338.442 144.221C341.776 146.786 340.882 152.099 336.871 153.376L336.87 153.377L294.534 166.969L294.528 166.971C289.277 168.728 288.691 175.881 293.595 178.46L293.597 178.461L351.733 208.72L351.722 208.771C354.292 210.16 355.354 213.319 353.99 215.861H353.989L353.986 215.868L341.74 239.594C340.355 242.176 337.211 243.238 334.682 241.871L334.676 241.868L277.511 211.986H277.51C272.589 209.401 267.112 214.111 268.743 219.374L268.744 219.377L290.449 287.556H290.45C291.308 290.235 289.948 293.087 287.372 294.066L287.119 294.155L261.762 302.246H261.76C259.01 303.133 256.072 301.654 255.19 298.901L219.624 187.466C214.012 169.71 223.756 150.684 241.435 145.052L241.436 145.051L307.519 123.799Z" stroke="#3A3F42"/>
<path d="M114.996 124.485C116.376 123.496 118.145 123.202 119.709 123.691V123.692L185.691 144.91L185.687 144.944C203.365 150.577 213.109 169.604 207.496 187.359L171.93 298.795C171.048 301.547 168.11 303.026 165.36 302.139H165.359L140.001 294.048H140.002C137.348 293.192 135.879 290.396 136.595 287.708L136.671 287.448L158.377 219.27L158.376 219.269C160.125 213.982 154.511 209.302 149.609 211.879L92.4521 241.757C89.9817 242.997 86.9535 242.113 85.5146 239.723L85.3809 239.486L73.1348 215.761C71.8627 213.198 72.8455 210.044 75.3994 208.663L75.3984 208.662L133.632 178.354L133.634 178.353C138.525 175.781 137.967 168.511 132.693 166.861H132.694L90.3584 153.27L90.3535 153.268C86.3622 152.027 85.4076 147.003 88.4756 144.361L88.7852 144.113L114.996 124.485Z" stroke="#3A3F42"/>
</g>
</svg>
