<svg width="257" height="72" viewBox="0 0 257 72" fill="none" xmlns="http://www.w3.org/2000/svg">
<g clip-path="url(#clip0_10447_64)">
<path d="M59.3624 36.675C59.3624 34.7 59.1874 32.825 58.8874 31H30.6375V42.275H46.8125C46.0874 45.975 43.9625 49.1 40.8125 51.225V58.725H50.4625C56.1125 53.5 59.3624 45.8 59.3624 36.675Z" fill="#4285F4"/>
<path d="M30.6374 65.9996C38.7374 65.9996 45.5124 63.2996 50.4624 58.7246L40.8124 51.2246C38.1124 53.0246 34.6874 54.1246 30.6374 54.1246C22.8124 54.1246 16.1874 48.8496 13.8124 41.7246H3.86243V49.4496C8.78743 59.2496 18.9124 65.9996 30.6374 65.9996Z" fill="#34A853"/>
<path d="M13.8125 41.7248C13.1875 39.9248 12.8624 37.9998 12.8624 35.9998C12.8624 33.9998 13.2125 32.0748 13.8125 30.2748V22.5498H3.86245C1.81245 26.5998 0.637451 31.1498 0.637451 35.9998C0.637451 40.8498 1.81245 45.3998 3.86245 49.4498L13.8125 41.7248Z" fill="#FBBC05"/>
<path d="M30.6374 17.875C35.0624 17.875 39.0124 19.4 42.1374 22.375L50.6874 13.825C45.5124 8.975 38.7374 6 30.6374 6C18.9124 6 8.78743 12.75 3.86243 22.55L13.8124 30.275C16.1874 23.15 22.8124 17.875 30.6374 17.875Z" fill="#EA4335"/>
</g>
<path d="M77.5 19.24C76.18 19.24 75.0267 18.94 74.04 18.34C73.0533 17.74 72.2867 16.9 71.74 15.82C71.1933 14.74 70.92 13.48 70.92 12.04C70.92 10.6133 71.2 9.35333 71.76 8.26C72.32 7.16667 73.1133 6.31333 74.14 5.7C75.18 5.07333 76.4067 4.76 77.82 4.76C79.42 4.76 80.7533 5.14667 81.82 5.92C82.8867 6.69333 83.58 7.76 83.9 9.12H81.5C81.2867 8.37333 80.8667 7.78667 80.24 7.36C79.6133 6.93333 78.8067 6.72 77.82 6.72C76.3533 6.72 75.2 7.19333 74.36 8.14C73.52 9.08667 73.1 10.3933 73.1 12.06C73.1 13.7267 73.5133 15.0267 74.34 15.96C75.1667 16.8933 76.2667 17.36 77.64 17.36C79.0267 17.36 80.0667 16.9667 80.76 16.18C81.4667 15.3933 81.88 14.3467 82 13.04H78.2V11.4H84.14V19H82.2L82.02 16.94C81.5533 17.6733 80.9667 18.24 80.26 18.64C79.5533 19.04 78.6333 19.24 77.5 19.24ZM91.673 19.24C90.7263 19.24 89.873 19.0267 89.113 18.6C88.3663 18.16 87.773 17.5533 87.333 16.78C86.893 15.9933 86.673 15.08 86.673 14.04C86.673 13 86.893 12.0933 87.333 11.32C87.7863 10.5333 88.393 9.92667 89.153 9.5C89.913 9.06 90.7596 8.84 91.693 8.84C92.6396 8.84 93.4863 9.06 94.233 9.5C94.993 9.92667 95.593 10.5333 96.033 11.32C96.4863 12.0933 96.713 13 96.713 14.04C96.713 15.08 96.4863 15.9933 96.033 16.78C95.593 17.5533 94.993 18.16 94.233 18.6C93.473 19.0267 92.6196 19.24 91.673 19.24ZM91.673 17.42C92.1796 17.42 92.6463 17.2933 93.073 17.04C93.513 16.7867 93.8663 16.4133 94.133 15.92C94.3996 15.4133 94.533 14.7867 94.533 14.04C94.533 13.2933 94.3996 12.6733 94.133 12.18C93.8796 11.6733 93.533 11.2933 93.093 11.04C92.6663 10.7867 92.1996 10.66 91.693 10.66C91.1863 10.66 90.713 10.7867 90.273 11.04C89.8463 11.2933 89.4996 11.6733 89.233 12.18C88.9663 12.6733 88.833 13.2933 88.833 14.04C88.833 14.7867 88.9663 15.4133 89.233 15.92C89.4996 16.4133 89.8463 16.7867 90.273 17.04C90.6996 17.2933 91.1663 17.42 91.673 17.42ZM104.046 19.24C103.099 19.24 102.246 19.0267 101.486 18.6C100.739 18.16 100.146 17.5533 99.7056 16.78C99.2656 15.9933 99.0456 15.08 99.0456 14.04C99.0456 13 99.2656 12.0933 99.7056 11.32C100.159 10.5333 100.766 9.92667 101.526 9.5C102.286 9.06 103.132 8.84 104.066 8.84C105.012 8.84 105.859 9.06 106.606 9.5C107.366 9.92667 107.966 10.5333 108.406 11.32C108.859 12.0933 109.086 13 109.086 14.04C109.086 15.08 108.859 15.9933 108.406 16.78C107.966 17.5533 107.366 18.16 106.606 18.6C105.846 19.0267 104.992 19.24 104.046 19.24ZM104.046 17.42C104.552 17.42 105.019 17.2933 105.446 17.04C105.886 16.7867 106.239 16.4133 106.506 15.92C106.772 15.4133 106.906 14.7867 106.906 14.04C106.906 13.2933 106.772 12.6733 106.506 12.18C106.252 11.6733 105.906 11.2933 105.466 11.04C105.039 10.7867 104.572 10.66 104.066 10.66C103.559 10.66 103.086 10.7867 102.646 11.04C102.219 11.2933 101.872 11.6733 101.606 12.18C101.339 12.6733 101.206 13.2933 101.206 14.04C101.206 14.7867 101.339 15.4133 101.606 15.92C101.872 16.4133 102.219 16.7867 102.646 17.04C103.072 17.2933 103.539 17.42 104.046 17.42ZM115.311 15.96C114.791 15.96 114.311 15.9 113.871 15.78L113.011 16.62C113.158 16.7133 113.338 16.7933 113.551 16.86C113.764 16.9267 114.064 16.9867 114.451 17.04C114.838 17.0933 115.364 17.1467 116.031 17.2C117.351 17.32 118.304 17.64 118.891 18.16C119.478 18.6667 119.771 19.3467 119.771 20.2C119.771 20.7867 119.611 21.34 119.291 21.86C118.984 22.3933 118.498 22.82 117.831 23.14C117.178 23.4733 116.338 23.64 115.311 23.64C113.924 23.64 112.798 23.3733 111.931 22.84C111.078 22.32 110.651 21.5267 110.651 20.46C110.651 20.0467 110.758 19.6333 110.971 19.22C111.198 18.82 111.551 18.44 112.031 18.08C111.751 17.96 111.504 17.8333 111.291 17.7C111.091 17.5533 110.911 17.4067 110.751 17.26V16.78L112.471 15.02C111.698 14.3533 111.311 13.48 111.311 12.4C111.311 11.7467 111.464 11.1533 111.771 10.62C112.091 10.0733 112.551 9.64 113.151 9.32C113.751 9 114.471 8.84 115.311 8.84C115.871 8.84 116.391 8.92 116.871 9.08H120.571V10.48L118.811 10.58C119.131 11.1267 119.291 11.7333 119.291 12.4C119.291 13.0667 119.131 13.6667 118.811 14.2C118.504 14.7333 118.051 15.16 117.451 15.48C116.864 15.8 116.151 15.96 115.311 15.96ZM115.311 14.3C115.924 14.3 116.418 14.14 116.791 13.82C117.178 13.4867 117.371 13.02 117.371 12.42C117.371 11.8067 117.178 11.34 116.791 11.02C116.418 10.7 115.924 10.54 115.311 10.54C114.684 10.54 114.178 10.7 113.791 11.02C113.418 11.34 113.231 11.8067 113.231 12.42C113.231 13.02 113.418 13.4867 113.791 13.82C114.178 14.14 114.684 14.3 115.311 14.3ZM112.651 20.26C112.651 20.8333 112.904 21.26 113.411 21.54C113.918 21.8333 114.551 21.98 115.311 21.98C116.044 21.98 116.638 21.82 117.091 21.5C117.544 21.1933 117.771 20.78 117.771 20.26C117.771 19.8733 117.618 19.54 117.311 19.26C117.004 18.9933 116.424 18.8267 115.571 18.76C114.931 18.72 114.364 18.66 113.871 18.58C113.404 18.8333 113.084 19.1067 112.911 19.4C112.738 19.6933 112.651 19.98 112.651 20.26ZM122.862 19V4.6H124.982V19H122.862ZM132.707 19.24C131.733 19.24 130.867 19.0267 130.107 18.6C129.36 18.16 128.773 17.5533 128.347 16.78C127.92 16.0067 127.707 15.1067 127.707 14.08C127.707 13.04 127.913 12.1267 128.327 11.34C128.753 10.5533 129.34 9.94 130.087 9.5C130.847 9.06 131.727 8.84 132.727 8.84C133.7 8.84 134.547 9.06 135.267 9.5C135.987 9.92667 136.547 10.5 136.947 11.22C137.347 11.94 137.547 12.7333 137.547 13.6C137.547 13.7333 137.54 13.88 137.527 14.04C137.527 14.1867 137.52 14.3533 137.507 14.54H129.787C129.853 15.5 130.167 16.2333 130.727 16.74C131.3 17.2333 131.96 17.48 132.707 17.48C133.307 17.48 133.807 17.3467 134.207 17.08C134.62 16.8 134.927 16.4267 135.127 15.96H137.247C136.98 16.8933 136.447 17.6733 135.647 18.3C134.86 18.9267 133.88 19.24 132.707 19.24ZM132.707 10.58C132 10.58 131.373 10.7933 130.827 11.22C130.28 11.6333 129.947 12.26 129.827 13.1H135.427C135.387 12.3267 135.113 11.7133 134.607 11.26C134.1 10.8067 133.467 10.58 132.707 10.58ZM145.665 19V5H150.485C151.592 5 152.499 5.18667 153.205 5.56C153.925 5.93333 154.459 6.44 154.805 7.08C155.152 7.70667 155.325 8.40667 155.325 9.18C155.325 10.0467 155.092 10.8333 154.625 11.54C154.172 12.2467 153.459 12.7533 152.485 13.06L155.465 19H153.005L150.285 13.36H147.785V19H145.665ZM147.785 11.76H150.365C151.325 11.76 152.025 11.5267 152.465 11.06C152.919 10.5933 153.145 9.98667 153.145 9.24C153.145 8.49333 152.925 7.9 152.485 7.46C152.045 7.00667 151.332 6.78 150.345 6.78H147.785V11.76ZM162.188 19.24C161.214 19.24 160.348 19.0267 159.588 18.6C158.841 18.16 158.254 17.5533 157.828 16.78C157.401 16.0067 157.188 15.1067 157.188 14.08C157.188 13.04 157.394 12.1267 157.808 11.34C158.234 10.5533 158.821 9.94 159.568 9.5C160.328 9.06 161.208 8.84 162.208 8.84C163.181 8.84 164.028 9.06 164.748 9.5C165.468 9.92667 166.028 10.5 166.428 11.22C166.828 11.94 167.028 12.7333 167.028 13.6C167.028 13.7333 167.021 13.88 167.008 14.04C167.008 14.1867 167.001 14.3533 166.988 14.54H159.268C159.334 15.5 159.648 16.2333 160.208 16.74C160.781 17.2333 161.441 17.48 162.188 17.48C162.788 17.48 163.288 17.3467 163.688 17.08C164.101 16.8 164.408 16.4267 164.608 15.96H166.728C166.461 16.8933 165.928 17.6733 165.128 18.3C164.341 18.9267 163.361 19.24 162.188 19.24ZM162.188 10.58C161.481 10.58 160.854 10.7933 160.308 11.22C159.761 11.6333 159.428 12.26 159.308 13.1H164.908C164.868 12.3267 164.594 11.7133 164.088 11.26C163.581 10.8067 162.948 10.58 162.188 10.58ZM172.017 19L168.297 9.08H170.517L173.277 16.98L176.037 9.08H178.237L174.537 19H172.017ZM181.579 7.2C181.179 7.2 180.846 7.08 180.579 6.84C180.326 6.58667 180.199 6.27333 180.199 5.9C180.199 5.52667 180.326 5.22 180.579 4.98C180.846 4.72667 181.179 4.6 181.579 4.6C181.979 4.6 182.306 4.72667 182.559 4.98C182.826 5.22 182.959 5.52667 182.959 5.9C182.959 6.27333 182.826 6.58667 182.559 6.84C182.306 7.08 181.979 7.2 181.579 7.2ZM180.519 19V9.08H182.639V19H180.519ZM190.478 19.24C189.504 19.24 188.638 19.0267 187.878 18.6C187.131 18.16 186.544 17.5533 186.118 16.78C185.691 16.0067 185.478 15.1067 185.478 14.08C185.478 13.04 185.684 12.1267 186.098 11.34C186.524 10.5533 187.111 9.94 187.858 9.5C188.618 9.06 189.498 8.84 190.498 8.84C191.471 8.84 192.318 9.06 193.038 9.5C193.758 9.92667 194.318 10.5 194.718 11.22C195.118 11.94 195.318 12.7333 195.318 13.6C195.318 13.7333 195.311 13.88 195.298 14.04C195.298 14.1867 195.291 14.3533 195.278 14.54H187.558C187.624 15.5 187.938 16.2333 188.498 16.74C189.071 17.2333 189.731 17.48 190.478 17.48C191.078 17.48 191.578 17.3467 191.978 17.08C192.391 16.8 192.698 16.4267 192.898 15.96H195.018C194.751 16.8933 194.218 17.6733 193.418 18.3C192.631 18.9267 191.651 19.24 190.478 19.24ZM190.478 10.58C189.771 10.58 189.144 10.7933 188.598 11.22C188.051 11.6333 187.718 12.26 187.598 13.1H193.198C193.158 12.3267 192.884 11.7133 192.378 11.26C191.871 10.8067 191.238 10.58 190.478 10.58ZM199.507 19L196.587 9.08H198.707L200.627 16.56L202.787 9.08H205.147L207.307 16.56L209.227 9.08H211.347L208.427 19H206.247L203.967 11.2L201.687 19H199.507ZM217.453 19.24C216.2 19.24 215.166 18.9333 214.353 18.32C213.54 17.7067 213.073 16.8933 212.953 15.88H215.093C215.2 16.3333 215.453 16.7267 215.853 17.06C216.253 17.38 216.78 17.54 217.433 17.54C218.073 17.54 218.54 17.4067 218.833 17.14C219.126 16.8733 219.273 16.5667 219.273 16.22C219.273 15.7133 219.066 15.3733 218.653 15.2C218.253 15.0133 217.693 14.8467 216.973 14.7C216.413 14.58 215.853 14.42 215.293 14.22C214.746 14.02 214.286 13.74 213.913 13.38C213.553 13.0067 213.373 12.5067 213.373 11.88C213.373 11.0133 213.706 10.2933 214.373 9.72C215.04 9.13333 215.973 8.84 217.173 8.84C218.28 8.84 219.173 9.10667 219.853 9.64C220.546 10.1733 220.953 10.9267 221.073 11.9H219.033C218.966 11.4733 218.766 11.14 218.433 10.9C218.113 10.66 217.68 10.54 217.133 10.54C216.6 10.54 216.186 10.6533 215.893 10.88C215.6 11.0933 215.453 11.3733 215.453 11.72C215.453 12.0667 215.653 12.34 216.053 12.54C216.466 12.74 217.006 12.92 217.673 13.08C218.34 13.2267 218.953 13.4 219.513 13.6C220.086 13.7867 220.546 14.0667 220.893 14.44C221.24 14.8133 221.413 15.36 221.413 16.08C221.426 16.9867 221.073 17.74 220.353 18.34C219.646 18.94 218.68 19.24 217.453 19.24Z" fill="white"/>
<path d="M72.4 65V55.304L70.496 55.768V54.824L72.848 53.8H73.76V65H72.4ZM81.3531 65L77.4971 60.6L81.0011 56.968H82.6491L78.6331 61.08L78.6491 60.12L83.0651 65H81.3531ZM76.3771 65V53.48H77.7211V65H76.3771ZM87.4476 63.848V56.872H88.6476V63.848H87.4476ZM84.3916 60.92V59.784H91.7036V60.92H84.3916ZM98.5425 65V53.8H102.159C103.033 53.8 103.748 53.9493 104.303 54.248C104.857 54.536 105.268 54.9253 105.535 55.416C105.801 55.9067 105.935 56.4613 105.935 57.08C105.935 57.6773 105.796 58.2267 105.519 58.728C105.252 59.2293 104.836 59.6293 104.271 59.928C103.705 60.2267 102.98 60.376 102.095 60.376H99.8865V65H98.5425ZM104.463 65L101.999 59.992H103.503L106.047 65H104.463ZM99.8865 59.32H102.063C102.916 59.32 103.54 59.112 103.935 58.696C104.34 58.28 104.543 57.7467 104.543 57.096C104.543 56.4347 104.345 55.912 103.951 55.528C103.567 55.1333 102.932 54.936 102.047 54.936H99.8865V59.32ZM111.334 65.192C110.587 65.192 109.921 65.016 109.334 64.664C108.747 64.312 108.283 63.8213 107.942 63.192C107.611 62.5627 107.446 61.8267 107.446 60.984C107.446 60.1307 107.611 59.3947 107.942 58.776C108.273 58.1467 108.731 57.656 109.318 57.304C109.915 56.952 110.598 56.776 111.366 56.776C112.155 56.776 112.827 56.952 113.382 57.304C113.937 57.656 114.358 58.1147 114.646 58.68C114.945 59.2453 115.094 59.8693 115.094 60.552C115.094 60.6587 115.094 60.7707 115.094 60.888C115.094 61.0053 115.089 61.1387 115.078 61.288H108.454V60.248H113.766C113.734 59.512 113.489 58.9413 113.03 58.536C112.582 58.12 112.017 57.912 111.334 57.912C110.886 57.912 110.465 58.0187 110.07 58.232C109.675 58.4347 109.355 58.7333 109.11 59.128C108.875 59.5227 108.758 60.0187 108.758 60.616V61.064C108.758 61.7253 108.881 62.28 109.126 62.728C109.371 63.1653 109.686 63.496 110.07 63.72C110.465 63.944 110.886 64.056 111.334 64.056C111.899 64.056 112.363 63.9333 112.726 63.688C113.099 63.432 113.371 63.0853 113.542 62.648H114.87C114.731 63.1387 114.502 63.576 114.182 63.96C113.862 64.3333 113.462 64.632 112.982 64.856C112.513 65.08 111.963 65.192 111.334 65.192ZM119.203 65L116.163 56.968H117.571L119.987 63.704L122.435 56.968H123.811L120.755 65H119.203ZM125.769 65V56.968H127.113V65H125.769ZM126.441 55.24C126.175 55.24 125.951 55.1547 125.769 54.984C125.599 54.8027 125.513 54.5787 125.513 54.312C125.513 54.0453 125.599 53.832 125.769 53.672C125.951 53.5013 126.175 53.416 126.441 53.416C126.697 53.416 126.916 53.5013 127.097 53.672C127.279 53.832 127.369 54.0453 127.369 54.312C127.369 54.5787 127.279 54.8027 127.097 54.984C126.916 55.1547 126.697 55.24 126.441 55.24ZM133.325 65.192C132.579 65.192 131.912 65.016 131.325 64.664C130.739 64.312 130.275 63.8213 129.933 63.192C129.603 62.5627 129.437 61.8267 129.437 60.984C129.437 60.1307 129.603 59.3947 129.933 58.776C130.264 58.1467 130.723 57.656 131.309 57.304C131.907 56.952 132.589 56.776 133.357 56.776C134.147 56.776 134.819 56.952 135.373 57.304C135.928 57.656 136.349 58.1147 136.637 58.68C136.936 59.2453 137.085 59.8693 137.085 60.552C137.085 60.6587 137.085 60.7707 137.085 60.888C137.085 61.0053 137.08 61.1387 137.069 61.288H130.445V60.248H135.757C135.725 59.512 135.48 58.9413 135.021 58.536C134.573 58.12 134.008 57.912 133.325 57.912C132.877 57.912 132.456 58.0187 132.061 58.232C131.667 58.4347 131.347 58.7333 131.101 59.128C130.867 59.5227 130.749 60.0187 130.749 60.616V61.064C130.749 61.7253 130.872 62.28 131.117 62.728C131.363 63.1653 131.677 63.496 132.061 63.72C132.456 63.944 132.877 64.056 133.325 64.056C133.891 64.056 134.355 63.9333 134.717 63.688C135.091 63.432 135.363 63.0853 135.533 62.648H136.861C136.723 63.1387 136.493 63.576 136.173 63.96C135.853 64.3333 135.453 64.632 134.973 64.856C134.504 65.08 133.955 65.192 133.325 65.192ZM140.507 65L138.155 56.968H139.499L141.339 63.768H141.067L143.083 56.968H144.603L146.635 63.752L146.363 63.768L148.203 56.968H149.563L147.211 65H145.835L143.723 57.896H143.995L141.883 65H140.507ZM154.406 65.192C153.756 65.192 153.18 65.0853 152.678 64.872C152.177 64.648 151.777 64.3333 151.478 63.928C151.19 63.5227 151.009 63.048 150.934 62.504H152.31C152.374 62.7813 152.492 63.0427 152.662 63.288C152.833 63.5227 153.062 63.7093 153.35 63.848C153.649 63.9867 154.006 64.056 154.422 64.056C154.806 64.056 155.121 64.0027 155.366 63.896C155.612 63.7787 155.793 63.624 155.91 63.432C156.028 63.24 156.086 63.032 156.086 62.808C156.086 62.488 156.006 62.2427 155.846 62.072C155.697 61.9013 155.473 61.768 155.174 61.672C154.876 61.5653 154.518 61.4747 154.102 61.4C153.75 61.336 153.404 61.2507 153.062 61.144C152.732 61.0373 152.433 60.8987 152.166 60.728C151.9 60.5573 151.686 60.344 151.526 60.088C151.366 59.8213 151.286 59.5067 151.286 59.144C151.286 58.6853 151.404 58.28 151.638 57.928C151.884 57.5653 152.22 57.2827 152.646 57.08C153.084 56.8773 153.601 56.776 154.198 56.776C155.052 56.776 155.745 56.984 156.278 57.4C156.822 57.816 157.137 58.4187 157.222 59.208H155.894C155.852 58.8027 155.681 58.488 155.382 58.264C155.084 58.0293 154.684 57.912 154.182 57.912C153.681 57.912 153.297 58.0133 153.03 58.216C152.774 58.4187 152.646 58.6853 152.646 59.016C152.646 59.2293 152.716 59.416 152.854 59.576C153.004 59.736 153.222 59.8747 153.51 59.992C153.798 60.0987 154.145 60.1947 154.55 60.28C155.073 60.376 155.553 60.504 155.99 60.664C156.428 60.824 156.78 61.0587 157.046 61.368C157.324 61.6773 157.462 62.12 157.462 62.696C157.473 63.1973 157.35 63.6347 157.094 64.008C156.849 64.3813 156.497 64.6747 156.038 64.888C155.58 65.0907 155.036 65.192 154.406 65.192ZM160.198 65.08C159.931 65.08 159.707 64.9947 159.526 64.824C159.355 64.6427 159.27 64.424 159.27 64.168C159.27 63.912 159.355 63.6987 159.526 63.528C159.707 63.3467 159.931 63.256 160.198 63.256C160.464 63.256 160.683 63.3467 160.854 63.528C161.024 63.6987 161.11 63.912 161.11 64.168C161.11 64.424 161.024 64.6427 160.854 64.824C160.683 64.9947 160.464 65.08 160.198 65.08Z" fill="white"/>
<path d="M83.3895 29.1488L84.7995 31.9688C84.9895 32.3588 85.4995 32.7288 85.9295 32.8088L88.4795 33.2288C90.1095 33.4988 90.4895 34.6788 89.3195 35.8588L87.3295 37.8488C86.9995 38.1788 86.8095 38.8288 86.9195 39.2988L87.4895 41.7588C87.9395 43.6988 86.8995 44.4588 85.1895 43.4388L82.7995 42.0188C82.3695 41.7588 81.6495 41.7588 81.2195 42.0188L78.8295 43.4388C77.1195 44.4488 76.0795 43.6988 76.5295 41.7588L77.0995 39.2988C77.1895 38.8188 76.9995 38.1688 76.6695 37.8388L74.6795 35.8488C73.5095 34.6788 73.8895 33.4988 75.5195 33.2188L78.0695 32.7988C78.4995 32.7288 79.0095 32.3488 79.1995 31.9588L80.6095 29.1388C81.3795 27.6188 82.6195 27.6188 83.3895 29.1488Z" fill="#FBBC05"/>
<path d="M107.389 29.1488L108.799 31.9688C108.989 32.3588 109.499 32.7288 109.929 32.8088L112.479 33.2288C114.109 33.4988 114.489 34.6788 113.319 35.8588L111.329 37.8488C110.999 38.1788 110.809 38.8288 110.919 39.2988L111.489 41.7588C111.939 43.6988 110.899 44.4588 109.189 43.4388L106.799 42.0188C106.369 41.7588 105.649 41.7588 105.219 42.0188L102.829 43.4388C101.119 44.4488 100.079 43.6988 100.529 41.7588L101.099 39.2988C101.189 38.8188 100.999 38.1688 100.669 37.8388L98.6795 35.8488C97.5095 34.6788 97.8895 33.4988 99.5195 33.2188L102.069 32.7988C102.499 32.7288 103.009 32.3488 103.199 31.9588L104.609 29.1388C105.379 27.6188 106.619 27.6188 107.389 29.1488Z" fill="#FBBC05"/>
<path d="M131.389 29.1488L132.799 31.9688C132.989 32.3588 133.499 32.7288 133.929 32.8088L136.479 33.2288C138.109 33.4988 138.489 34.6788 137.319 35.8588L135.329 37.8488C134.999 38.1788 134.809 38.8288 134.919 39.2988L135.489 41.7588C135.939 43.6988 134.899 44.4588 133.189 43.4388L130.799 42.0188C130.369 41.7588 129.649 41.7588 129.219 42.0188L126.829 43.4388C125.119 44.4488 124.079 43.6988 124.529 41.7588L125.099 39.2988C125.189 38.8188 124.999 38.1688 124.669 37.8388L122.679 35.8488C121.509 34.6788 121.889 33.4988 123.519 33.2188L126.069 32.7988C126.499 32.7288 127.009 32.3488 127.199 31.9588L128.609 29.1388C129.379 27.6188 130.619 27.6188 131.389 29.1488Z" fill="#FBBC05"/>
<path d="M155.389 29.1488L156.799 31.9688C156.989 32.3588 157.499 32.7288 157.929 32.8088L160.479 33.2288C162.109 33.4988 162.489 34.6788 161.319 35.8588L159.329 37.8488C158.999 38.1788 158.809 38.8288 158.919 39.2988L159.489 41.7588C159.939 43.6988 158.899 44.4588 157.189 43.4388L154.799 42.0188C154.369 41.7588 153.649 41.7588 153.219 42.0188L150.829 43.4388C149.119 44.4488 148.079 43.6988 148.529 41.7588L149.099 39.2988C149.189 38.8188 148.999 38.1688 148.669 37.8388L146.679 35.8488C145.509 34.6788 145.889 33.4988 147.519 33.2188L150.069 32.7988C150.499 32.7288 151.009 32.3488 151.199 31.9588L152.609 29.1388C153.379 27.6188 154.619 27.6188 155.389 29.1488Z" fill="#FBBC05"/>
<path opacity="0.3" d="M179.389 29.1488L180.799 31.9688C180.989 32.3588 181.499 32.7288 181.929 32.8088L184.479 33.2288C186.109 33.4988 186.489 34.6788 185.319 35.8588L183.329 37.8488C182.999 38.1788 182.809 38.8288 182.919 39.2988L183.489 41.7588C183.939 43.6988 182.899 44.4588 181.189 43.4388L178.799 42.0188C178.369 41.7588 177.649 41.7588 177.219 42.0188L174.829 43.4388C173.119 44.4488 172.079 43.6988 172.529 41.7588L173.099 39.2988C173.189 38.8188 172.999 38.1688 172.669 37.8388L170.679 35.8488C169.509 34.6788 169.889 33.4988 171.519 33.2188L174.069 32.7988C174.499 32.7288 175.009 32.3488 175.199 31.9588L176.609 29.1388C177.379 27.6188 178.619 27.6188 179.389 29.1488Z" fill="white"/>
<defs>
<clipPath id="clip0_10447_64">
<rect width="60" height="60" fill="white" transform="translate(0 6)"/>
</clipPath>
</defs>
</svg>
