<svg width="264" height="72" viewBox="0 0 264 72" fill="none" xmlns="http://www.w3.org/2000/svg">
<g clip-path="url(#clip0_10607_146)">
<path d="M59.3627 36.675C59.3627 34.7 59.1877 32.825 58.8877 31H30.6377V42.275H46.8127C46.0877 45.975 43.9627 49.1 40.8127 51.225V58.725H50.4627C56.1127 53.5 59.3627 45.8 59.3627 36.675Z" fill="#4285F4"/>
<path d="M30.6378 66C38.7378 66 45.5128 63.3 50.4628 58.725L40.8128 51.225C38.1128 53.025 34.6878 54.125 30.6378 54.125C22.8128 54.125 16.1878 48.85 13.8128 41.725H3.86279V49.45C8.78779 59.25 18.9128 66 30.6378 66Z" fill="#34A853"/>
<path d="M13.8127 41.725C13.1877 39.925 12.8627 38 12.8627 36C12.8627 34 13.2127 32.075 13.8127 30.275V22.55H3.86269C1.81269 26.6 0.637695 31.15 0.637695 36C0.637695 40.85 1.81269 45.4 3.86269 49.45L13.8127 41.725Z" fill="#FBBC05"/>
<path d="M30.6378 17.875C35.0628 17.875 39.0128 19.4 42.1378 22.375L50.6878 13.825C45.5128 8.975 38.7378 6 30.6378 6C18.9128 6 8.78779 12.75 3.86279 22.55L13.8128 30.275C16.1878 23.15 22.8128 17.875 30.6378 17.875Z" fill="#EA4335"/>
</g>
<path d="M77.52 19.24C76.2 19.24 75.0467 18.94 74.06 18.34C73.0733 17.74 72.3067 16.9 71.76 15.82C71.2133 14.74 70.94 13.48 70.94 12.04C70.94 10.6133 71.2133 9.35333 71.76 8.26C72.32 7.16667 73.1133 6.31333 74.14 5.7C75.18 5.07333 76.4067 4.76 77.82 4.76C79.4067 4.76 80.7333 5.14667 81.8 5.92C82.8667 6.68 83.5533 7.74 83.86 9.1H81.58C81.38 8.32667 80.96 7.72 80.32 7.28C79.68 6.82667 78.84 6.6 77.8 6.6C76.8133 6.6 75.9533 6.82 75.22 7.26C74.5 7.7 73.9467 8.32667 73.56 9.14C73.1733 9.95333 72.98 10.92 72.98 12.04C72.98 13.1733 73.1733 14.1467 73.56 14.96C73.9467 15.7733 74.4933 16.3933 75.2 16.82C75.9067 17.2467 76.72 17.46 77.64 17.46C79.0533 17.46 80.1133 17.0533 80.82 16.24C81.54 15.4267 81.96 14.34 82.08 12.98H78.22V11.44H84.1V19H82.28L82.1 16.86C81.78 17.38 81.4067 17.82 80.98 18.18C80.5667 18.5267 80.08 18.7933 79.52 18.98C78.96 19.1533 78.2933 19.24 77.52 19.24ZM91.6334 19.24C90.6868 19.24 89.8334 19.02 89.0734 18.58C88.3268 18.14 87.7334 17.5267 87.2934 16.74C86.8668 15.94 86.6534 15.02 86.6534 13.98C86.6534 12.9133 86.8734 11.9867 87.3134 11.2C87.7534 10.4 88.3534 9.78 89.1134 9.34C89.8734 8.9 90.7268 8.68 91.6734 8.68C92.6334 8.68 93.4868 8.9 94.2334 9.34C94.9801 9.78 95.5668 10.3933 95.9934 11.18C96.4334 11.9667 96.6534 12.8933 96.6534 13.96C96.6534 15.0267 96.4334 15.9533 95.9934 16.74C95.5668 17.5267 94.9734 18.14 94.2134 18.58C93.4534 19.02 92.5934 19.24 91.6334 19.24ZM91.6334 17.52C92.1801 17.52 92.6734 17.3867 93.1134 17.12C93.5668 16.8533 93.9268 16.46 94.1934 15.94C94.4734 15.4067 94.6134 14.7467 94.6134 13.96C94.6134 13.1733 94.4801 12.52 94.2134 12C93.9468 11.4667 93.5868 11.0667 93.1334 10.8C92.6934 10.5333 92.2068 10.4 91.6734 10.4C91.1401 10.4 90.6468 10.5333 90.1934 10.8C89.7401 11.0667 89.3734 11.4667 89.0934 12C88.8268 12.52 88.6934 13.1733 88.6934 13.96C88.6934 14.7467 88.8268 15.4067 89.0934 15.94C89.3734 16.46 89.7334 16.8533 90.1734 17.12C90.6268 17.3867 91.1134 17.52 91.6334 17.52ZM104.006 19.24C103.059 19.24 102.206 19.02 101.446 18.58C100.699 18.14 100.106 17.5267 99.6661 16.74C99.2394 15.94 99.0261 15.02 99.0261 13.98C99.0261 12.9133 99.2461 11.9867 99.6861 11.2C100.126 10.4 100.726 9.78 101.486 9.34C102.246 8.9 103.099 8.68 104.046 8.68C105.006 8.68 105.859 8.9 106.606 9.34C107.353 9.78 107.939 10.3933 108.366 11.18C108.806 11.9667 109.026 12.8933 109.026 13.96C109.026 15.0267 108.806 15.9533 108.366 16.74C107.939 17.5267 107.346 18.14 106.586 18.58C105.826 19.02 104.966 19.24 104.006 19.24ZM104.006 17.52C104.553 17.52 105.046 17.3867 105.486 17.12C105.939 16.8533 106.299 16.46 106.566 15.94C106.846 15.4067 106.986 14.7467 106.986 13.96C106.986 13.1733 106.853 12.52 106.586 12C106.319 11.4667 105.959 11.0667 105.506 10.8C105.066 10.5333 104.579 10.4 104.046 10.4C103.513 10.4 103.019 10.5333 102.566 10.8C102.113 11.0667 101.746 11.4667 101.466 12C101.199 12.52 101.066 13.1733 101.066 13.96C101.066 14.7467 101.199 15.4067 101.466 15.94C101.746 16.46 102.106 16.8533 102.546 17.12C102.999 17.3867 103.486 17.52 104.006 17.52ZM115.39 23.64C114.47 23.64 113.657 23.52 112.95 23.28C112.244 23.0533 111.697 22.7 111.31 22.22C110.924 21.74 110.73 21.1533 110.73 20.46C110.73 20.1 110.81 19.7333 110.97 19.36C111.13 19 111.39 18.6533 111.75 18.32C112.11 17.9867 112.597 17.6867 113.21 17.42L114.33 18.32C113.65 18.5733 113.19 18.8733 112.95 19.22C112.724 19.58 112.61 19.9267 112.61 20.26C112.61 20.66 112.73 20.9933 112.97 21.26C113.21 21.5267 113.537 21.7267 113.95 21.86C114.377 21.9933 114.857 22.06 115.39 22.06C115.91 22.06 116.364 21.9867 116.75 21.84C117.137 21.6933 117.437 21.4867 117.65 21.22C117.864 20.9533 117.97 20.64 117.97 20.28C117.97 19.8533 117.81 19.4933 117.49 19.2C117.17 18.92 116.557 18.7533 115.65 18.7C114.89 18.6467 114.244 18.5733 113.71 18.48C113.19 18.3867 112.744 18.2733 112.37 18.14C112.01 18.0067 111.704 17.86 111.45 17.7C111.21 17.54 111.004 17.3733 110.83 17.2V16.74L112.83 14.68L114.45 15.24L112.27 17.26L112.69 16.36C112.837 16.4533 112.977 16.5467 113.11 16.64C113.244 16.72 113.424 16.7933 113.65 16.86C113.877 16.9267 114.184 16.9867 114.57 17.04C114.957 17.0933 115.464 17.1467 116.09 17.2C116.997 17.2667 117.724 17.4267 118.27 17.68C118.83 17.9333 119.237 18.2733 119.49 18.7C119.744 19.1267 119.87 19.6333 119.87 20.22C119.87 20.7933 119.71 21.34 119.39 21.86C119.084 22.38 118.597 22.8067 117.93 23.14C117.277 23.4733 116.43 23.64 115.39 23.64ZM115.39 15.9C114.537 15.9 113.81 15.74 113.21 15.42C112.624 15.1 112.17 14.6667 111.85 14.12C111.544 13.5733 111.39 12.9667 111.39 12.3C111.39 11.62 111.544 11.0133 111.85 10.48C112.17 9.93333 112.63 9.5 113.23 9.18C113.83 8.84667 114.55 8.68 115.39 8.68C116.23 8.68 116.944 8.84667 117.53 9.18C118.13 9.5 118.584 9.93333 118.89 10.48C119.21 11.0133 119.37 11.62 119.37 12.3C119.37 12.9667 119.21 13.5733 118.89 14.12C118.584 14.6667 118.13 15.1 117.53 15.42C116.944 15.74 116.23 15.9 115.39 15.9ZM115.39 14.3C116.044 14.3 116.564 14.1333 116.95 13.8C117.337 13.4533 117.53 12.9533 117.53 12.3C117.53 11.6467 117.337 11.1533 116.95 10.82C116.564 10.4733 116.044 10.3 115.39 10.3C114.737 10.3 114.21 10.4733 113.81 10.82C113.41 11.1533 113.21 11.6467 113.21 12.3C113.21 12.9533 113.41 13.4533 113.81 13.8C114.21 14.1333 114.737 14.3 115.39 14.3ZM117.03 10.5L116.55 8.92H120.69V10.3L117.03 10.5ZM123.097 19V4.6H125.097V19H123.097ZM132.803 19.24C131.843 19.24 130.989 19.02 130.243 18.58C129.496 18.14 128.909 17.5267 128.483 16.74C128.069 15.9533 127.863 15.04 127.863 14C127.863 12.9333 128.069 12.0067 128.483 11.22C128.909 10.42 129.496 9.8 130.243 9.36C130.989 8.90667 131.856 8.68 132.843 8.68C133.829 8.68 134.676 8.9 135.383 9.34C136.089 9.78 136.636 10.3667 137.023 11.1C137.409 11.82 137.603 12.62 137.603 13.5C137.603 13.6333 137.596 13.78 137.583 13.94C137.583 14.0867 137.576 14.2533 137.563 14.44H129.323V13.02H135.603C135.563 12.18 135.283 11.5267 134.763 11.06C134.243 10.58 133.596 10.34 132.823 10.34C132.276 10.34 131.776 10.4667 131.323 10.72C130.869 10.96 130.503 11.32 130.223 11.8C129.956 12.2667 129.823 12.86 129.823 13.58V14.14C129.823 14.8867 129.956 15.52 130.223 16.04C130.503 16.5467 130.869 16.9333 131.323 17.2C131.776 17.4533 132.269 17.58 132.803 17.58C133.443 17.58 133.969 17.44 134.383 17.16C134.796 16.88 135.103 16.5 135.303 16.02H137.303C137.129 16.6333 136.836 17.1867 136.423 17.68C136.009 18.16 135.496 18.54 134.883 18.82C134.283 19.1 133.589 19.24 132.803 19.24ZM145.842 19V5H150.582C151.689 5 152.595 5.18667 153.302 5.56C154.009 5.93333 154.529 6.43333 154.862 7.06C155.209 7.67333 155.382 8.37333 155.382 9.16C155.382 9.90667 155.209 10.6 154.862 11.24C154.529 11.8667 154.002 12.3733 153.282 12.76C152.562 13.1333 151.642 13.32 150.522 13.32H147.842V19H145.842ZM153.202 19L150.182 12.78H152.382L155.522 19H153.202ZM147.842 11.8H150.442C151.429 11.8 152.155 11.56 152.622 11.08C153.089 10.5867 153.322 9.96 153.322 9.2C153.322 8.42667 153.095 7.81333 152.642 7.36C152.189 6.90667 151.455 6.68 150.442 6.68H147.842V11.8ZM162.225 19.24C161.265 19.24 160.412 19.02 159.665 18.58C158.919 18.14 158.332 17.5267 157.905 16.74C157.492 15.9533 157.285 15.04 157.285 14C157.285 12.9333 157.492 12.0067 157.905 11.22C158.332 10.42 158.919 9.8 159.665 9.36C160.412 8.90667 161.279 8.68 162.265 8.68C163.252 8.68 164.099 8.9 164.805 9.34C165.512 9.78 166.059 10.3667 166.445 11.1C166.832 11.82 167.025 12.62 167.025 13.5C167.025 13.6333 167.019 13.78 167.005 13.94C167.005 14.0867 166.999 14.2533 166.985 14.44H158.745V13.02H165.025C164.985 12.18 164.705 11.5267 164.185 11.06C163.665 10.58 163.019 10.34 162.245 10.34C161.699 10.34 161.199 10.4667 160.745 10.72C160.292 10.96 159.925 11.32 159.645 11.8C159.379 12.2667 159.245 12.86 159.245 13.58V14.14C159.245 14.8867 159.379 15.52 159.645 16.04C159.925 16.5467 160.292 16.9333 160.745 17.2C161.199 17.4533 161.692 17.58 162.225 17.58C162.865 17.58 163.392 17.44 163.805 17.16C164.219 16.88 164.525 16.5 164.725 16.02H166.725C166.552 16.6333 166.259 17.1867 165.845 17.68C165.432 18.16 164.919 18.54 164.305 18.82C163.705 19.1 163.012 19.24 162.225 19.24ZM172.117 19L168.337 8.92H170.437L173.297 17.08L176.177 8.92H178.237L174.477 19H172.117ZM180.578 19V8.92H182.578V19H180.578ZM181.598 7.02C181.211 7.02 180.891 6.9 180.638 6.66C180.398 6.42 180.278 6.11333 180.278 5.74C180.278 5.38 180.398 5.08667 180.638 4.86C180.891 4.62 181.211 4.5 181.598 4.5C181.971 4.5 182.285 4.62 182.538 4.86C182.791 5.08667 182.918 5.38 182.918 5.74C182.918 6.11333 182.791 6.42 182.538 6.66C182.285 6.9 181.971 7.02 181.598 7.02ZM190.398 19.24C189.438 19.24 188.585 19.02 187.838 18.58C187.091 18.14 186.505 17.5267 186.078 16.74C185.665 15.9533 185.458 15.04 185.458 14C185.458 12.9333 185.665 12.0067 186.078 11.22C186.505 10.42 187.091 9.8 187.838 9.36C188.585 8.90667 189.451 8.68 190.438 8.68C191.425 8.68 192.271 8.9 192.978 9.34C193.685 9.78 194.231 10.3667 194.618 11.1C195.005 11.82 195.198 12.62 195.198 13.5C195.198 13.6333 195.191 13.78 195.178 13.94C195.178 14.0867 195.171 14.2533 195.158 14.44H186.918V13.02H193.198C193.158 12.18 192.878 11.5267 192.358 11.06C191.838 10.58 191.191 10.34 190.418 10.34C189.871 10.34 189.371 10.4667 188.918 10.72C188.465 10.96 188.098 11.32 187.818 11.8C187.551 12.2667 187.418 12.86 187.418 13.58V14.14C187.418 14.8867 187.551 15.52 187.818 16.04C188.098 16.5467 188.465 16.9333 188.918 17.2C189.371 17.4533 189.865 17.58 190.398 17.58C191.038 17.58 191.565 17.44 191.978 17.16C192.391 16.88 192.698 16.5 192.898 16.02H194.898C194.725 16.6333 194.431 17.1867 194.018 17.68C193.605 18.16 193.091 18.54 192.478 18.82C191.878 19.1 191.185 19.24 190.398 19.24ZM199.47 19L196.51 8.92H198.49L200.69 17.32L200.31 17.3L202.75 8.92H204.99L207.43 17.3L207.05 17.32L209.23 8.92H211.25L208.29 19H206.23L203.67 10.26H204.07L201.51 19H199.47ZM217.355 19.24C216.501 19.24 215.755 19.1 215.115 18.82C214.475 18.54 213.968 18.1467 213.595 17.64C213.221 17.1333 212.995 16.54 212.915 15.86H214.955C215.021 16.18 215.148 16.4733 215.335 16.74C215.535 17.0067 215.801 17.22 216.135 17.38C216.481 17.54 216.888 17.62 217.355 17.62C217.795 17.62 218.155 17.56 218.435 17.44C218.728 17.3067 218.941 17.1333 219.075 16.92C219.208 16.6933 219.275 16.4533 219.275 16.2C219.275 15.8267 219.181 15.5467 218.995 15.36C218.821 15.16 218.555 15.0067 218.195 14.9C217.848 14.78 217.428 14.6733 216.935 14.58C216.468 14.5 216.015 14.3933 215.575 14.26C215.148 14.1133 214.761 13.9333 214.415 13.72C214.081 13.5067 213.815 13.24 213.615 12.92C213.415 12.5867 213.315 12.18 213.315 11.7C213.315 11.1267 213.468 10.6133 213.775 10.16C214.081 9.69333 214.515 9.33333 215.075 9.08C215.648 8.81333 216.321 8.68 217.095 8.68C218.215 8.68 219.115 8.94667 219.795 9.48C220.475 10.0133 220.875 10.7667 220.995 11.74H219.055C219.001 11.2867 218.801 10.94 218.455 10.7C218.108 10.4467 217.648 10.32 217.075 10.32C216.501 10.32 216.061 10.4333 215.755 10.66C215.448 10.8867 215.295 11.1867 215.295 11.56C215.295 11.8 215.381 12.0133 215.555 12.2C215.728 12.3867 215.981 12.5467 216.315 12.68C216.661 12.8 217.081 12.9133 217.575 13.02C218.281 13.1533 218.915 13.32 219.475 13.52C220.035 13.72 220.481 14.0133 220.815 14.4C221.148 14.7867 221.315 15.34 221.315 16.06C221.328 16.6867 221.168 17.24 220.835 17.72C220.515 18.2 220.055 18.5733 219.455 18.84C218.868 19.1067 218.168 19.24 217.355 19.24Z" fill="white"/>
<path d="M72.432 65V55.304L70.512 55.784V54.824L72.88 53.8H73.792V65H72.432ZM81.3844 65L77.5444 60.584L81.0484 56.936H82.6964L78.6804 61.064L78.6964 60.104L83.0964 65H81.3844ZM76.4244 65V53.48H77.7684V65H76.4244ZM87.4789 63.848V56.872H88.6789V63.848H87.4789ZM84.4229 60.92V59.784H91.7349V60.92H84.4229ZM98.5738 65V53.8H102.19C103.064 53.8 103.779 53.9493 104.334 54.248C104.888 54.536 105.299 54.9253 105.566 55.416C105.832 55.9067 105.966 56.4613 105.966 57.08C105.966 57.6773 105.827 58.2267 105.55 58.728C105.283 59.2293 104.867 59.6293 104.302 59.928C103.736 60.2267 103.011 60.376 102.126 60.376H99.9178V65H98.5738ZM104.494 65L102.03 59.992H103.534L106.078 65H104.494ZM99.9178 59.32H102.094C102.947 59.32 103.571 59.112 103.966 58.696C104.371 58.28 104.574 57.7467 104.574 57.096C104.574 56.4347 104.376 55.912 103.982 55.528C103.598 55.1333 102.963 54.936 102.078 54.936H99.9178V59.32ZM111.365 65.192C110.619 65.192 109.952 65.016 109.365 64.664C108.779 64.312 108.32 63.8213 107.989 63.192C107.659 62.552 107.493 61.8107 107.493 60.968C107.493 60.1147 107.653 59.3733 107.973 58.744C108.304 58.1147 108.763 57.624 109.349 57.272C109.947 56.92 110.629 56.744 111.397 56.744C112.187 56.744 112.859 56.92 113.413 57.272C113.968 57.624 114.389 58.088 114.677 58.664C114.976 59.2293 115.125 59.8533 115.125 60.536C115.125 60.6427 115.125 60.7547 115.125 60.872C115.125 60.9893 115.12 61.1227 115.109 61.272H108.501V60.232H113.797C113.765 59.496 113.52 58.92 113.061 58.504C112.613 58.088 112.048 57.88 111.365 57.88C110.917 57.88 110.496 57.9867 110.101 58.2C109.707 58.4027 109.392 58.7067 109.157 59.112C108.923 59.5067 108.805 60.0027 108.805 60.6V61.048C108.805 61.7093 108.923 62.264 109.157 62.712C109.403 63.16 109.717 63.496 110.101 63.72C110.496 63.944 110.917 64.056 111.365 64.056C111.931 64.056 112.395 63.9333 112.757 63.688C113.131 63.432 113.403 63.0853 113.573 62.648H114.901C114.763 63.1387 114.533 63.576 114.213 63.96C113.893 64.3333 113.493 64.632 113.013 64.856C112.544 65.08 111.995 65.192 111.365 65.192ZM119.251 65L116.195 56.936H117.603L120.035 63.704L122.483 56.936H123.859L120.803 65H119.251ZM125.816 65V56.936H127.16V65H125.816ZM126.488 55.224C126.221 55.224 125.997 55.1387 125.816 54.968C125.645 54.7867 125.56 54.5627 125.56 54.296C125.56 54.0293 125.645 53.816 125.816 53.656C125.997 53.4853 126.221 53.4 126.488 53.4C126.744 53.4 126.963 53.4853 127.144 53.656C127.325 53.816 127.416 54.0293 127.416 54.296C127.416 54.5627 127.325 54.7867 127.144 54.968C126.963 55.1387 126.744 55.224 126.488 55.224ZM133.388 65.192C132.641 65.192 131.975 65.016 131.388 64.664C130.801 64.312 130.343 63.8213 130.012 63.192C129.681 62.552 129.516 61.8107 129.516 60.968C129.516 60.1147 129.676 59.3733 129.996 58.744C130.327 58.1147 130.785 57.624 131.372 57.272C131.969 56.92 132.652 56.744 133.42 56.744C134.209 56.744 134.881 56.92 135.436 57.272C135.991 57.624 136.412 58.088 136.7 58.664C136.999 59.2293 137.148 59.8533 137.148 60.536C137.148 60.6427 137.148 60.7547 137.148 60.872C137.148 60.9893 137.143 61.1227 137.132 61.272H130.524V60.232H135.82C135.788 59.496 135.543 58.92 135.084 58.504C134.636 58.088 134.071 57.88 133.388 57.88C132.94 57.88 132.519 57.9867 132.124 58.2C131.729 58.4027 131.415 58.7067 131.18 59.112C130.945 59.5067 130.828 60.0027 130.828 60.6V61.048C130.828 61.7093 130.945 62.264 131.18 62.712C131.425 63.16 131.74 63.496 132.124 63.72C132.519 63.944 132.94 64.056 133.388 64.056C133.953 64.056 134.417 63.9333 134.78 63.688C135.153 63.432 135.425 63.0853 135.596 62.648H136.924C136.785 63.1387 136.556 63.576 136.236 63.96C135.916 64.3333 135.516 64.632 135.036 64.856C134.567 65.08 134.017 65.192 133.388 65.192ZM140.585 65L138.217 56.936H139.561L141.401 63.736H141.161L143.161 56.936H144.681L146.713 63.72L146.457 63.736L148.281 56.936H149.641L147.289 65H145.913L143.801 57.896H144.073L141.961 65H140.585ZM154.516 65.192C153.855 65.192 153.274 65.08 152.772 64.856C152.271 64.632 151.871 64.3227 151.572 63.928C151.284 63.5227 151.108 63.048 151.044 62.504H152.42C152.474 62.7813 152.586 63.0373 152.756 63.272C152.927 63.5067 153.156 63.6987 153.444 63.848C153.743 63.9867 154.106 64.056 154.532 64.056C154.906 64.056 155.215 64.0027 155.46 63.896C155.706 63.7787 155.887 63.624 156.004 63.432C156.132 63.24 156.196 63.032 156.196 62.808C156.196 62.4773 156.116 62.2267 155.956 62.056C155.807 61.8853 155.583 61.752 155.284 61.656C154.986 61.5493 154.623 61.4587 154.196 61.384C153.844 61.32 153.498 61.2347 153.156 61.128C152.815 61.0213 152.511 60.8827 152.244 60.712C151.978 60.5307 151.764 60.312 151.604 60.056C151.455 59.8 151.38 59.4853 151.38 59.112C151.38 58.6533 151.498 58.248 151.732 57.896C151.978 57.5333 152.319 57.2507 152.756 57.048C153.194 56.8453 153.706 56.744 154.292 56.744C155.156 56.744 155.855 56.952 156.388 57.368C156.922 57.784 157.236 58.3867 157.332 59.176H156.004C155.951 58.7707 155.775 58.456 155.476 58.232C155.188 57.9973 154.788 57.88 154.276 57.88C153.775 57.88 153.391 57.9813 153.124 58.184C152.868 58.3867 152.74 58.6533 152.74 58.984C152.74 59.1973 152.81 59.3893 152.948 59.56C153.098 59.72 153.316 59.8587 153.604 59.976C153.892 60.0933 154.239 60.1893 154.644 60.264C155.178 60.36 155.663 60.488 156.1 60.648C156.538 60.808 156.89 61.048 157.156 61.368C157.434 61.6773 157.572 62.12 157.572 62.696C157.572 63.1973 157.444 63.6347 157.188 64.008C156.943 64.3813 156.591 64.6747 156.132 64.888C155.674 65.0907 155.135 65.192 154.516 65.192ZM160.307 65.08C160.041 65.08 159.817 64.9947 159.635 64.824C159.465 64.6427 159.379 64.424 159.379 64.168C159.379 63.912 159.465 63.6987 159.635 63.528C159.817 63.3467 160.041 63.256 160.307 63.256C160.574 63.256 160.793 63.3467 160.963 63.528C161.134 63.6987 161.219 63.912 161.219 64.168C161.219 64.424 161.134 64.6427 160.963 64.824C160.793 64.9947 160.574 65.08 160.307 65.08Z" fill="white"/>
<path d="M83.3895 29.1485L84.7995 31.9685C84.9895 32.3585 85.4995 32.7285 85.9295 32.8085L88.4795 33.2285C90.1095 33.4985 90.4895 34.6785 89.3195 35.8585L87.3295 37.8485C86.9995 38.1785 86.8095 38.8285 86.9195 39.2985L87.4895 41.7585C87.9395 43.6985 86.8995 44.4585 85.1895 43.4385L82.7995 42.0185C82.3695 41.7585 81.6495 41.7585 81.2195 42.0185L78.8295 43.4385C77.1195 44.4485 76.0795 43.6985 76.5295 41.7585L77.0995 39.2985C77.1895 38.8185 76.9995 38.1685 76.6695 37.8385L74.6795 35.8485C73.5095 34.6785 73.8895 33.4985 75.5195 33.2185L78.0695 32.7985C78.4995 32.7285 79.0095 32.3485 79.1995 31.9585L80.6095 29.1385C81.3795 27.6185 82.6195 27.6185 83.3895 29.1485Z" fill="#FBBC05"/>
<path d="M107.389 29.1485L108.799 31.9685C108.989 32.3585 109.499 32.7285 109.929 32.8085L112.479 33.2285C114.109 33.4985 114.489 34.6785 113.319 35.8585L111.329 37.8485C110.999 38.1785 110.809 38.8285 110.919 39.2985L111.489 41.7585C111.939 43.6985 110.899 44.4585 109.189 43.4385L106.799 42.0185C106.369 41.7585 105.649 41.7585 105.219 42.0185L102.829 43.4385C101.119 44.4485 100.079 43.6985 100.529 41.7585L101.099 39.2985C101.189 38.8185 100.999 38.1685 100.669 37.8385L98.6795 35.8485C97.5095 34.6785 97.8895 33.4985 99.5195 33.2185L102.069 32.7985C102.499 32.7285 103.009 32.3485 103.199 31.9585L104.609 29.1385C105.379 27.6185 106.619 27.6185 107.389 29.1485Z" fill="#FBBC05"/>
<path d="M131.389 29.1485L132.799 31.9685C132.989 32.3585 133.499 32.7285 133.929 32.8085L136.479 33.2285C138.109 33.4985 138.489 34.6785 137.319 35.8585L135.329 37.8485C134.999 38.1785 134.809 38.8285 134.919 39.2985L135.489 41.7585C135.939 43.6985 134.899 44.4585 133.189 43.4385L130.799 42.0185C130.369 41.7585 129.649 41.7585 129.219 42.0185L126.829 43.4385C125.119 44.4485 124.079 43.6985 124.529 41.7585L125.099 39.2985C125.189 38.8185 124.999 38.1685 124.669 37.8385L122.679 35.8485C121.509 34.6785 121.889 33.4985 123.519 33.2185L126.069 32.7985C126.499 32.7285 127.009 32.3485 127.199 31.9585L128.609 29.1385C129.379 27.6185 130.619 27.6185 131.389 29.1485Z" fill="#FBBC05"/>
<path d="M155.389 29.1485L156.799 31.9685C156.989 32.3585 157.499 32.7285 157.929 32.8085L160.479 33.2285C162.109 33.4985 162.489 34.6785 161.319 35.8585L159.329 37.8485C158.999 38.1785 158.809 38.8285 158.919 39.2985L159.489 41.7585C159.939 43.6985 158.899 44.4585 157.189 43.4385L154.799 42.0185C154.369 41.7585 153.649 41.7585 153.219 42.0185L150.829 43.4385C149.119 44.4485 148.079 43.6985 148.529 41.7585L149.099 39.2985C149.189 38.8185 148.999 38.1685 148.669 37.8385L146.679 35.8485C145.509 34.6785 145.889 33.4985 147.519 33.2185L150.069 32.7985C150.499 32.7285 151.009 32.3485 151.199 31.9585L152.609 29.1385C153.379 27.6185 154.619 27.6185 155.389 29.1485Z" fill="#FBBC05"/>
<path opacity="0.3" d="M179.389 29.1485L180.799 31.9685C180.989 32.3585 181.499 32.7285 181.929 32.8085L184.479 33.2285C186.109 33.4985 186.489 34.6785 185.319 35.8585L183.329 37.8485C182.999 38.1785 182.809 38.8285 182.919 39.2985L183.489 41.7585C183.939 43.6985 182.899 44.4585 181.189 43.4385L178.799 42.0185C178.369 41.7585 177.649 41.7585 177.219 42.0185L174.829 43.4385C173.119 44.4485 172.079 43.6985 172.529 41.7585L173.099 39.2985C173.189 38.8185 172.999 38.1685 172.669 37.8385L170.679 35.8485C169.509 34.6785 169.889 33.4985 171.519 33.2185L174.069 32.7985C174.499 32.7285 175.009 32.3485 175.199 31.9585L176.609 29.1385C177.379 27.6185 178.619 27.6185 179.389 29.1485Z" fill="white"/>
<defs>
<clipPath id="clip0_10607_146">
<rect width="60" height="60" fill="white" transform="translate(0 6)"/>
</clipPath>
</defs>
</svg>
