<?xml version="1.0" encoding="utf-8"?>
<!-- Generator: Adobe Illustrator 24.0.1, SVG Export Plug-In . SVG Version: 6.00 Build 0)  -->
<svg version="1.1" id="Layer_1" xmlns="http://www.w3.org/2000/svg" xmlns:xlink="http://www.w3.org/1999/xlink" x="0px" y="0px"
	 viewBox="0 0 264 72" style="enable-background:new 0 0 264 72;" xml:space="preserve">
<style type="text/css">
	.st0{clip-path:url(#SVGID_2_);}
	.st1{fill:#4285F4;}
	.st2{fill:#34A853;}
	.st3{fill:#FBBC05;}
	.st4{fill:#EA4335;}
	.st5{fill:#FFFFFF;}
	.st6{opacity:0.3;fill:#FFFFFF;enable-background:new    ;}
</style>
<g>
	<g>
		<defs>
			<rect id="SVGID_1_" y="6" width="60" height="60"/>
		</defs>
		<clipPath id="SVGID_2_">
			<use xlink:href="#SVGID_1_"  style="overflow:visible;"/>
		</clipPath>
		<g class="st0">
			<path class="st1" d="M59.4,36.7c0-2-0.2-3.8-0.5-5.7H30.6v11.3h16.2c-0.7,3.7-2.8,6.8-6,8.9v7.5h9.7
				C56.1,53.5,59.4,45.8,59.4,36.7z"/>
			<path class="st2" d="M30.6,66c8.1,0,14.9-2.7,19.8-7.3l-9.6-7.5c-2.7,1.8-6.1,2.9-10.2,2.9c-7.8,0-14.5-5.3-16.8-12.4h-10v7.7
				C8.8,59.3,18.9,66,30.6,66z"/>
			<path class="st3" d="M13.8,41.7c-0.6-1.8-0.9-3.7-0.9-5.7s0.3-3.9,0.9-5.7v-7.7h-10c-2,4.1-3.2,8.6-3.2,13.5s1.2,9.4,3.2,13.5
				L13.8,41.7z"/>
			<path class="st4" d="M30.6,17.9c4.4,0,8.4,1.5,11.5,4.5l8.6-8.6C45.5,9,38.7,6,30.6,6C18.9,6,8.8,12.8,3.9,22.5l10,7.7
				C16.2,23.1,22.8,17.9,30.6,17.9z"/>
		</g>
	</g>
	<g>
		<path class="st5" d="M77.5,31c-1.3,0-2.5-0.3-3.5-0.9c-1-0.6-1.8-1.4-2.3-2.5s-0.8-2.3-0.8-3.8c0-1.4,0.3-2.7,0.8-3.8
			c0.6-1.1,1.4-1.9,2.4-2.6c1-0.6,2.3-0.9,3.7-0.9c1.6,0,2.9,0.4,4,1.2c1.1,0.8,1.8,1.8,2.1,3.2h-2.3c-0.2-0.8-0.6-1.4-1.3-1.8
			c-0.6-0.5-1.5-0.7-2.5-0.7c-1,0-1.8,0.2-2.6,0.7c-0.7,0.4-1.3,1.1-1.7,1.9c-0.4,0.8-0.6,1.8-0.6,2.9c0,1.1,0.2,2.1,0.6,2.9
			c0.4,0.8,0.9,1.4,1.6,1.9c0.7,0.4,1.5,0.6,2.4,0.6c1.4,0,2.5-0.4,3.2-1.2c0.7-0.8,1.1-1.9,1.3-3.3h-3.9v-1.5h5.9v7.6h-1.8
			l-0.2-2.1c-0.3,0.5-0.7,1-1.1,1.3c-0.4,0.3-0.9,0.6-1.5,0.8C79,31,78.3,31,77.5,31z M91.6,31c-0.9,0-1.8-0.2-2.6-0.7
			c-0.7-0.4-1.3-1.1-1.8-1.8c-0.4-0.8-0.6-1.7-0.6-2.8c0-1.1,0.2-2,0.7-2.8c0.4-0.8,1-1.4,1.8-1.9c0.8-0.4,1.6-0.7,2.6-0.7
			c1,0,1.8,0.2,2.6,0.7c0.7,0.4,1.3,1.1,1.8,1.8c0.4,0.8,0.7,1.7,0.7,2.8s-0.2,2-0.7,2.8c-0.4,0.8-1,1.4-1.8,1.8
			C93.5,30.8,92.6,31,91.6,31z M91.6,29.3c0.5,0,1-0.1,1.5-0.4c0.5-0.3,0.8-0.7,1.1-1.2c0.3-0.5,0.4-1.2,0.4-2c0-0.8-0.1-1.4-0.4-2
			c-0.3-0.5-0.6-0.9-1.1-1.2c-0.4-0.3-0.9-0.4-1.5-0.4c-0.5,0-1,0.1-1.5,0.4c-0.5,0.3-0.8,0.7-1.1,1.2c-0.3,0.5-0.4,1.2-0.4,2
			c0,0.8,0.1,1.4,0.4,2c0.3,0.5,0.6,0.9,1.1,1.2C90.6,29.2,91.1,29.3,91.6,29.3z M104,31c-0.9,0-1.8-0.2-2.6-0.7
			c-0.7-0.4-1.3-1.1-1.8-1.8c-0.4-0.8-0.6-1.7-0.6-2.8c0-1.1,0.2-2,0.7-2.8c0.4-0.8,1-1.4,1.8-1.9c0.8-0.4,1.6-0.7,2.6-0.7
			c1,0,1.8,0.2,2.6,0.7c0.7,0.4,1.3,1.1,1.8,1.8c0.4,0.8,0.7,1.7,0.7,2.8s-0.2,2-0.7,2.8c-0.4,0.8-1,1.4-1.8,1.8S105,31,104,31z
			 M104,29.3c0.5,0,1-0.1,1.5-0.4c0.5-0.3,0.8-0.7,1.1-1.2c0.3-0.5,0.4-1.2,0.4-2c0-0.8-0.1-1.4-0.4-2c-0.3-0.5-0.6-0.9-1.1-1.2
			c-0.4-0.3-0.9-0.4-1.5-0.4c-0.5,0-1,0.1-1.5,0.4c-0.5,0.3-0.8,0.7-1.1,1.2c-0.3,0.5-0.4,1.2-0.4,2c0,0.8,0.1,1.4,0.4,2
			c0.3,0.5,0.6,0.9,1.1,1.2C103,29.2,103.5,29.3,104,29.3z M115.4,35.4c-0.9,0-1.7-0.1-2.4-0.4c-0.7-0.2-1.3-0.6-1.6-1.1
			c-0.4-0.5-0.6-1.1-0.6-1.8c0-0.4,0.1-0.7,0.2-1.1c0.2-0.4,0.4-0.7,0.8-1s0.8-0.6,1.5-0.9l1.1,0.9c-0.7,0.3-1.1,0.6-1.4,0.9
			c-0.2,0.4-0.3,0.7-0.3,1c0,0.4,0.1,0.7,0.4,1c0.2,0.3,0.6,0.5,1,0.6c0.4,0.1,0.9,0.2,1.4,0.2c0.5,0,1-0.1,1.4-0.2
			c0.4-0.1,0.7-0.4,0.9-0.6c0.2-0.3,0.3-0.6,0.3-0.9c0-0.4-0.2-0.8-0.5-1.1c-0.3-0.3-0.9-0.4-1.8-0.5c-0.8-0.1-1.4-0.1-1.9-0.2
			c-0.5-0.1-1-0.2-1.3-0.3c-0.4-0.1-0.7-0.3-0.9-0.4c-0.2-0.2-0.4-0.3-0.6-0.5v-0.5l2-2.1l1.6,0.6l-2.2,2l0.4-0.9
			c0.1,0.1,0.3,0.2,0.4,0.3c0.1,0.1,0.3,0.2,0.5,0.2c0.2,0.1,0.5,0.1,0.9,0.2c0.4,0.1,0.9,0.1,1.5,0.2c0.9,0.1,1.6,0.2,2.2,0.5
			c0.6,0.3,1,0.6,1.2,1c0.3,0.4,0.4,0.9,0.4,1.5c0,0.6-0.2,1.1-0.5,1.6c-0.3,0.5-0.8,0.9-1.5,1.3C117.3,35.3,116.4,35.4,115.4,35.4z
			 M115.4,27.7c-0.9,0-1.6-0.2-2.2-0.5c-0.6-0.3-1-0.8-1.4-1.3c-0.3-0.5-0.5-1.2-0.5-1.8c0-0.7,0.2-1.3,0.5-1.8
			c0.3-0.5,0.8-1,1.4-1.3c0.6-0.3,1.3-0.5,2.2-0.5c0.8,0,1.6,0.2,2.1,0.5c0.6,0.3,1.1,0.8,1.4,1.3c0.3,0.5,0.5,1.1,0.5,1.8
			c0,0.7-0.2,1.3-0.5,1.8c-0.3,0.5-0.8,1-1.4,1.3C116.9,27.5,116.2,27.7,115.4,27.7z M115.4,26.1c0.7,0,1.2-0.2,1.6-0.5
			c0.4-0.3,0.6-0.8,0.6-1.5c0-0.7-0.2-1.1-0.6-1.5c-0.4-0.3-0.9-0.5-1.6-0.5c-0.7,0-1.2,0.2-1.6,0.5c-0.4,0.3-0.6,0.8-0.6,1.5
			c0,0.7,0.2,1.2,0.6,1.5C114.2,25.9,114.7,26.1,115.4,26.1z M117,22.3l-0.5-1.6h4.1v1.4L117,22.3z M123.1,30.8V16.4h2v14.4H123.1z
			 M132.8,31c-1,0-1.8-0.2-2.6-0.7c-0.7-0.4-1.3-1.1-1.8-1.8c-0.4-0.8-0.6-1.7-0.6-2.7c0-1.1,0.2-2,0.6-2.8c0.4-0.8,1-1.4,1.8-1.9
			c0.7-0.5,1.6-0.7,2.6-0.7c1,0,1.8,0.2,2.5,0.7c0.7,0.4,1.3,1,1.6,1.8c0.4,0.7,0.6,1.5,0.6,2.4c0,0.1,0,0.3,0,0.4
			c0,0.1,0,0.3,0,0.5h-8.2v-1.4h6.3c0-0.8-0.3-1.5-0.8-2c-0.5-0.5-1.2-0.7-1.9-0.7c-0.5,0-1,0.1-1.5,0.4c-0.5,0.2-0.8,0.6-1.1,1.1
			c-0.3,0.5-0.4,1.1-0.4,1.8v0.6c0,0.7,0.1,1.4,0.4,1.9c0.3,0.5,0.6,0.9,1.1,1.2c0.5,0.3,0.9,0.4,1.5,0.4c0.6,0,1.2-0.1,1.6-0.4
			c0.4-0.3,0.7-0.7,0.9-1.1h2c-0.2,0.6-0.5,1.2-0.9,1.7c-0.4,0.5-0.9,0.9-1.5,1.1C134.3,30.9,133.6,31,132.8,31z M145.8,30.8v-14
			h4.7c1.1,0,2,0.2,2.7,0.6c0.7,0.4,1.2,0.9,1.6,1.5c0.3,0.6,0.5,1.3,0.5,2.1c0,0.7-0.2,1.4-0.5,2.1c-0.3,0.6-0.9,1.1-1.6,1.5
			c-0.7,0.4-1.6,0.6-2.8,0.6h-2.7v5.7H145.8z M153.2,30.8l-3-6.2h2.2l3.1,6.2H153.2z M147.8,23.6h2.6c1,0,1.7-0.2,2.2-0.7
			c0.5-0.5,0.7-1.1,0.7-1.9c0-0.8-0.2-1.4-0.7-1.8c-0.5-0.5-1.2-0.7-2.2-0.7h-2.6V23.6z M162.2,31c-1,0-1.8-0.2-2.6-0.7
			c-0.7-0.4-1.3-1.1-1.8-1.8c-0.4-0.8-0.6-1.7-0.6-2.7c0-1.1,0.2-2,0.6-2.8c0.4-0.8,1-1.4,1.8-1.9c0.7-0.5,1.6-0.7,2.6-0.7
			c1,0,1.8,0.2,2.5,0.7c0.7,0.4,1.3,1,1.6,1.8c0.4,0.7,0.6,1.5,0.6,2.4c0,0.1,0,0.3,0,0.4c0,0.1,0,0.3,0,0.5h-8.2v-1.4h6.3
			c0-0.8-0.3-1.5-0.8-2c-0.5-0.5-1.2-0.7-1.9-0.7c-0.5,0-1,0.1-1.5,0.4c-0.5,0.2-0.8,0.6-1.1,1.1c-0.3,0.5-0.4,1.1-0.4,1.8v0.6
			c0,0.7,0.1,1.4,0.4,1.9c0.3,0.5,0.6,0.9,1.1,1.2c0.5,0.3,0.9,0.4,1.5,0.4c0.6,0,1.2-0.1,1.6-0.4c0.4-0.3,0.7-0.7,0.9-1.1h2
			c-0.2,0.6-0.5,1.2-0.9,1.7c-0.4,0.5-0.9,0.9-1.5,1.1C163.7,30.9,163,31,162.2,31z M172.1,30.8l-3.8-10.1h2.1l2.9,8.2l2.9-8.2h2.1
			l-3.8,10.1H172.1z M180.6,30.8V20.7h2v10.1H180.6z M181.6,18.8c-0.4,0-0.7-0.1-1-0.4c-0.2-0.2-0.4-0.5-0.4-0.9
			c0-0.4,0.1-0.7,0.4-0.9c0.3-0.2,0.6-0.4,1-0.4c0.4,0,0.7,0.1,0.9,0.4c0.3,0.2,0.4,0.5,0.4,0.9c0,0.4-0.1,0.7-0.4,0.9
			C182.3,18.7,182,18.8,181.6,18.8z M190.4,31c-1,0-1.8-0.2-2.6-0.7c-0.7-0.4-1.3-1.1-1.8-1.8c-0.4-0.8-0.6-1.7-0.6-2.7
			c0-1.1,0.2-2,0.6-2.8c0.4-0.8,1-1.4,1.8-1.9c0.7-0.5,1.6-0.7,2.6-0.7s1.8,0.2,2.5,0.7c0.7,0.4,1.3,1,1.6,1.8
			c0.4,0.7,0.6,1.5,0.6,2.4c0,0.1,0,0.3,0,0.4c0,0.1,0,0.3,0,0.5h-8.2v-1.4h6.3c0-0.8-0.3-1.5-0.8-2c-0.5-0.5-1.2-0.7-1.9-0.7
			c-0.5,0-1,0.1-1.5,0.4c-0.5,0.2-0.8,0.6-1.1,1.1c-0.3,0.5-0.4,1.1-0.4,1.8v0.6c0,0.7,0.1,1.4,0.4,1.9c0.3,0.5,0.6,0.9,1.1,1.2
			c0.5,0.3,0.9,0.4,1.5,0.4c0.6,0,1.2-0.1,1.6-0.4c0.4-0.3,0.7-0.7,0.9-1.1h2c-0.2,0.6-0.5,1.2-0.9,1.7c-0.4,0.5-0.9,0.9-1.5,1.1
			C191.9,30.9,191.2,31,190.4,31z M199.5,30.8l-3-10.1h2l2.2,8.4l-0.4,0l2.4-8.4h2.2l2.4,8.4l-0.4,0l2.2-8.4h2l-3,10.1h-2.1
			l-2.6-8.7h0.4l-2.6,8.7H199.5z M217.4,31c-0.9,0-1.6-0.1-2.2-0.4c-0.6-0.3-1.1-0.7-1.5-1.2c-0.4-0.5-0.6-1.1-0.7-1.8h2
			c0.1,0.3,0.2,0.6,0.4,0.9c0.2,0.3,0.5,0.5,0.8,0.6c0.3,0.2,0.8,0.2,1.2,0.2c0.4,0,0.8-0.1,1.1-0.2c0.3-0.1,0.5-0.3,0.6-0.5
			c0.1-0.2,0.2-0.5,0.2-0.7c0-0.4-0.1-0.7-0.3-0.8c-0.2-0.2-0.4-0.4-0.8-0.5c-0.3-0.1-0.8-0.2-1.3-0.3c-0.5-0.1-0.9-0.2-1.4-0.3
			c-0.4-0.1-0.8-0.3-1.2-0.5c-0.3-0.2-0.6-0.5-0.8-0.8c-0.2-0.3-0.3-0.7-0.3-1.2c0-0.6,0.2-1.1,0.5-1.5c0.3-0.5,0.7-0.8,1.3-1.1
			c0.6-0.3,1.2-0.4,2-0.4c1.1,0,2,0.3,2.7,0.8c0.7,0.5,1.1,1.3,1.2,2.3h-1.9c-0.1-0.5-0.3-0.8-0.6-1c-0.3-0.3-0.8-0.4-1.4-0.4
			c-0.6,0-1,0.1-1.3,0.3c-0.3,0.2-0.5,0.5-0.5,0.9c0,0.2,0.1,0.5,0.3,0.6c0.2,0.2,0.4,0.3,0.8,0.5c0.3,0.1,0.8,0.2,1.3,0.3
			c0.7,0.1,1.3,0.3,1.9,0.5c0.6,0.2,1,0.5,1.3,0.9c0.3,0.4,0.5,0.9,0.5,1.7c0,0.6-0.1,1.2-0.5,1.7c-0.3,0.5-0.8,0.9-1.4,1.1
			C218.9,30.9,218.2,31,217.4,31z"/>
		<path class="st3" d="M83.4,41l1.4,2.8c0.2,0.4,0.7,0.8,1.1,0.8l2.6,0.4c1.6,0.3,2,1.5,0.8,2.6l-2,2c-0.3,0.3-0.5,1-0.4,1.5
			l0.6,2.5c0.4,1.9-0.6,2.7-2.3,1.7l-2.4-1.4c-0.4-0.3-1.2-0.3-1.6,0l-2.4,1.4c-1.7,1-2.8,0.3-2.3-1.7l0.6-2.5
			c0.1-0.5-0.1-1.1-0.4-1.5l-2-2c-1.2-1.2-0.8-2.3,0.8-2.6l2.6-0.4c0.4-0.1,0.9-0.5,1.1-0.8l1.4-2.8C81.4,39.4,82.6,39.4,83.4,41z"
			/>
		<path class="st3" d="M107.4,41l1.4,2.8c0.2,0.4,0.7,0.8,1.1,0.8l2.5,0.4c1.6,0.3,2,1.5,0.8,2.6l-2,2c-0.3,0.3-0.5,1-0.4,1.5
			l0.6,2.5c0.5,1.9-0.6,2.7-2.3,1.7l-2.4-1.4c-0.4-0.3-1.2-0.3-1.6,0l-2.4,1.4c-1.7,1-2.8,0.3-2.3-1.7l0.6-2.5
			c0.1-0.5-0.1-1.1-0.4-1.5l-2-2c-1.2-1.2-0.8-2.3,0.8-2.6l2.5-0.4c0.4-0.1,0.9-0.5,1.1-0.8l1.4-2.8C105.4,39.4,106.6,39.4,107.4,41
			z"/>
		<path class="st3" d="M131.4,41l1.4,2.8c0.2,0.4,0.7,0.8,1.1,0.8l2.6,0.4c1.6,0.3,2,1.5,0.8,2.6l-2,2c-0.3,0.3-0.5,1-0.4,1.5
			l0.6,2.5c0.4,1.9-0.6,2.7-2.3,1.7l-2.4-1.4c-0.4-0.3-1.1-0.3-1.6,0l-2.4,1.4c-1.7,1-2.8,0.3-2.3-1.7l0.6-2.5
			c0.1-0.5-0.1-1.1-0.4-1.5l-2-2c-1.2-1.2-0.8-2.3,0.8-2.6l2.6-0.4c0.4-0.1,0.9-0.5,1.1-0.8l1.4-2.8C129.4,39.4,130.6,39.4,131.4,41
			z"/>
		<path class="st3" d="M155.4,41l1.4,2.8c0.2,0.4,0.7,0.8,1.1,0.8l2.6,0.4c1.6,0.3,2,1.5,0.8,2.6l-2,2c-0.3,0.3-0.5,1-0.4,1.5
			l0.6,2.5c0.4,1.9-0.6,2.7-2.3,1.7l-2.4-1.4c-0.4-0.3-1.1-0.3-1.6,0l-2.4,1.4c-1.7,1-2.8,0.3-2.3-1.7l0.6-2.5
			c0.1-0.5-0.1-1.1-0.4-1.5l-2-2c-1.2-1.2-0.8-2.3,0.8-2.6l2.6-0.4c0.4-0.1,0.9-0.5,1.1-0.8l1.4-2.8C153.4,39.4,154.6,39.4,155.4,41
			z"/>
		<path class="st6" d="M179.4,41l1.4,2.8c0.2,0.4,0.7,0.8,1.1,0.8l2.6,0.4c1.6,0.3,2,1.5,0.8,2.6l-2,2c-0.3,0.3-0.5,1-0.4,1.5
			l0.6,2.5c0.4,1.9-0.6,2.7-2.3,1.7l-2.4-1.4c-0.4-0.3-1.1-0.3-1.6,0l-2.4,1.4c-1.7,1-2.8,0.3-2.3-1.7l0.6-2.5
			c0.1-0.5-0.1-1.1-0.4-1.5l-2-2c-1.2-1.2-0.8-2.3,0.8-2.6l2.6-0.4c0.4-0.1,0.9-0.5,1.1-0.8l1.4-2.8C177.4,39.4,178.6,39.4,179.4,41
			z"/>
	</g>
</g>
</svg>
