<svg width="24" height="24" viewBox="0 0 24 24" fill="none" xmlns="http://www.w3.org/2000/svg">
<g clip-path="url(#clip0_11389_2574)">
<mask id="mask0_11389_2574" style="mask-type:luminance" maskUnits="userSpaceOnUse" x="0" y="0" width="24" height="24">
<path d="M12 24C18.6274 24 24 18.6274 24 12C24 5.37258 18.6274 0 12 0C5.37258 0 0 5.37258 0 12C0 18.6274 5.37258 24 12 24Z" fill="white"/>
</mask>
<g mask="url(#mask0_11389_2574)">
<path d="M5.15625 48.5625C19.3948 48.5625 30.9375 37.0198 30.9375 22.7812C30.9375 8.54266 19.3948 -3 5.15625 -3C-9.08234 -3 -20.625 8.54266 -20.625 22.7812C-20.625 37.0198 -9.08234 48.5625 5.15625 48.5625Z" fill="url(#paint0_radial_11389_2574)"/>
</g>
<path d="M15.375 9.5625C15.8928 9.5625 16.3125 9.14277 16.3125 8.625C16.3125 8.10723 15.8928 7.6875 15.375 7.6875C14.8572 7.6875 14.4375 8.10723 14.4375 8.625C14.4375 9.14277 14.8572 9.5625 15.375 9.5625Z" fill="white"/>
<path d="M12 9C11.4067 9 10.8266 9.17595 10.3333 9.50559C9.83994 9.83524 9.45543 10.3038 9.22836 10.8519C9.0013 11.4001 8.94189 12.0033 9.05765 12.5853C9.1734 13.1672 9.45912 13.7018 9.87868 14.1213C10.2982 14.5409 10.8328 14.8266 11.4147 14.9424C11.9967 15.0581 12.5999 14.9987 13.1481 14.7716C13.6962 14.5446 14.1648 14.1601 14.4944 13.6667C14.8241 13.1734 15 12.5933 15 12C15 11.2044 14.6839 10.4413 14.1213 9.87868C13.5587 9.31607 12.7957 9 12 9ZM12 13.5C11.7033 13.5 11.4133 13.412 11.1666 13.2472C10.92 13.0824 10.7277 12.8481 10.6142 12.574C10.5007 12.2999 10.4709 11.9983 10.5288 11.7074C10.5867 11.4164 10.7296 11.1491 10.9393 10.9393C11.1491 10.7296 11.4164 10.5867 11.7074 10.5288C11.9983 10.4709 12.2999 10.5006 12.574 10.6142C12.8481 10.7277 13.0824 10.92 13.2472 11.1666C13.412 11.4133 13.5 11.7033 13.5 12C13.5 12.3978 13.342 12.7794 13.0607 13.0607C12.7794 13.342 12.3978 13.5 12 13.5Z" fill="white"/>
<path d="M15.75 6H8.25C7.00736 6 6 7.00736 6 8.25V15.75C6 16.9926 7.00736 18 8.25 18H15.75C16.9926 18 18 16.9926 18 15.75V8.25C18 7.00736 16.9926 6 15.75 6Z" stroke="white" stroke-width="2" stroke-miterlimit="10"/>
</g>
<defs>
<radialGradient id="paint0_radial_11389_2574" cx="0" cy="0" r="1" gradientUnits="userSpaceOnUse" gradientTransform="translate(5.15625 22.7812) scale(25.7812)">
<stop stop-color="#FFD676"/>
<stop offset="0.25" stop-color="#F2A454"/>
<stop offset="0.38" stop-color="#F05C3C"/>
<stop offset="0.7" stop-color="#C22F86"/>
<stop offset="0.96" stop-color="#6666AD"/>
<stop offset="0.99" stop-color="#5C6CB2"/>
</radialGradient>
<clipPath id="clip0_11389_2574">
<rect width="24" height="24" fill="white"/>
</clipPath>
</defs>
</svg>
