<svg width="20" height="20" viewBox="0 0 20 20" fill="none" xmlns="http://www.w3.org/2000/svg">
<path d="M10.0013 7.95846C10.7656 7.17781 11.7606 6.66675 12.918 6.66675C15.4492 6.66675 17.5013 8.71875 17.5013 11.2501V17.5001H15.8347V11.2501C15.8347 9.63925 14.5288 8.33341 12.918 8.33341C11.3072 8.33341 10.0013 9.63925 10.0013 11.2501V17.5001H8.33465V7.08341H10.0013V7.95846ZM4.16797 5.41675C3.47761 5.41675 2.91797 4.85711 2.91797 4.16675C2.91797 3.47639 3.47761 2.91675 4.16797 2.91675C4.85832 2.91675 5.41797 3.47639 5.41797 4.16675C5.41797 4.85711 4.85832 5.41675 4.16797 5.41675ZM3.33464 7.08341H5.0013V17.5001H3.33464V7.08341Z" fill="#3A3F42"/>
</svg>
