<svg width="16" height="16" viewBox="0 0 16 16" fill="none" xmlns="http://www.w3.org/2000/svg">
<mask id="mask0_2688_148" style="mask-type:alpha" maskUnits="userSpaceOnUse" x="0" y="0" width="16" height="16">
<rect width="16" height="16" fill="#D9D9D9"/>
</mask>
<g mask="url(#mask0_2688_148)">
<path d="M8.85258 7.55684C9.08814 7.32139 9.20592 7.03745 9.20592 6.705C9.20592 6.37256 9.08814 6.08856 8.85258 5.853C8.61714 5.61756 8.33319 5.49984 8.00075 5.49984C7.66831 5.49984 7.38436 5.61756 7.14892 5.853C6.91336 6.08856 6.79558 6.37256 6.79558 6.705C6.79558 7.03745 6.91336 7.32139 7.14892 7.55684C7.38436 7.79228 7.66831 7.91 8.00075 7.91C8.33319 7.91 8.61714 7.79228 8.85258 7.55684ZM8.00075 13.0088C9.30497 11.8413 10.303 10.7214 10.9949 9.64917C11.6868 8.57695 12.0328 7.63784 12.0328 6.83184C12.0328 5.6165 11.6466 4.61739 10.8744 3.8345C10.1022 3.05162 9.14431 2.66017 8.00075 2.66017C6.85719 2.66017 5.89931 3.05162 5.12708 3.8345C4.35486 4.61739 3.96875 5.6165 3.96875 6.83184C3.96875 7.63784 4.31469 8.57695 5.00658 9.64917C5.69847 10.7214 6.69653 11.8413 8.00075 13.0088ZM8.00075 14.3395C6.32297 12.8857 5.06486 11.5328 4.22642 10.2807C3.38797 9.02845 2.96875 7.87884 2.96875 6.83184C2.96875 5.29339 3.46636 4.04789 4.46158 3.09534C5.45692 2.14278 6.63664 1.6665 8.00075 1.6665C9.36486 1.6665 10.5446 2.14278 11.5399 3.09534C12.5351 4.04789 13.0328 5.29339 13.0328 6.83184C13.0328 7.87884 12.6135 9.02845 11.7751 10.2807C10.9366 11.5328 9.67853 12.8857 8.00075 14.3395Z" fill="#1C1B1F"/>
</g>
</svg>
