<svg width="239" height="64" viewBox="0 0 239 64" fill="none" xmlns="http://www.w3.org/2000/svg">
<path d="M75.9146 30.5349L62.1212 23.3856C61.0523 22.8258 61.1796 21.2739 62.3248 20.8922L72.3517 17.6865C73.3951 17.3557 73.6242 15.9818 72.7589 15.3203L66.5493 10.6898C66.1931 10.4353 65.735 10.359 65.3278 10.4862L49.6766 15.4984C45.4266 16.8468 43.0853 21.4011 44.4341 25.65L52.8577 51.9321C53.0868 52.6445 53.8503 53.0261 54.5628 52.7972L60.5688 50.889C61.2814 50.66 61.6631 49.8967 61.4341 49.1843L56.2934 33.1046C55.9371 31.9597 57.1332 30.942 58.202 31.5018L71.7409 38.5493C72.4026 38.9055 73.217 38.6257 73.5733 37.9642L76.4745 32.3668C76.8308 31.7053 76.5508 30.8911 75.8892 30.5349H75.9146Z" fill="white"/>
<path d="M36.5704 15.473L20.9192 10.4608C20.512 10.3336 20.0539 10.4099 19.6976 10.6644L13.488 15.2949C12.5973 15.9564 12.8264 17.3303 13.8952 17.6611L23.9222 20.8668C25.0674 21.223 25.1946 22.8005 24.1258 23.3602L10.3324 30.5095C9.67068 30.8657 9.41619 31.6799 9.74703 32.3414L12.6482 37.9388C13.0045 38.6003 13.8189 38.8547 14.4806 38.5239L28.0195 31.4764C29.0883 30.9166 30.3099 31.9343 29.9281 33.0792L24.7874 49.1589C24.5584 49.8713 24.9401 50.6346 25.6527 50.8636L31.6587 52.7718C32.3713 53.0008 33.1347 52.6191 33.3638 51.9067L41.7874 25.6246C43.1362 21.3757 40.7949 16.8215 36.5449 15.473H36.5704Z" fill="white"/>
<path d="M107.98 12.3984V16.0622H98.5134V21.8885H105.766V25.5014H98.5134V35.0932H93.958V12.3984H107.98Z" fill="white"/>
<path d="M127.831 27.4603H114.674C114.775 28.7579 115.233 29.7756 116.048 30.5134C116.837 31.2512 117.829 31.6074 119 31.6074C120.68 31.6074 121.901 30.8696 122.614 29.4194H127.525C127.016 31.1495 125.998 32.5742 124.522 33.6937C123.046 34.8132 121.239 35.3729 119.102 35.3729C116.964 35.3729 115.819 34.9913 114.445 34.228C113.07 33.4647 112.001 32.3707 111.238 30.9714C110.474 29.572 110.093 27.9437 110.093 26.0864C110.093 24.2291 110.474 22.5753 111.238 21.176C112.001 19.7766 113.07 18.6826 114.419 17.9193C115.793 17.1561 117.346 16.7744 119.127 16.7744C120.909 16.7744 122.385 17.1306 123.733 17.8684C125.082 18.6063 126.151 19.6494 126.889 20.9979C127.627 22.3463 128.009 23.8983 128.009 25.6539C128.009 27.4094 127.958 26.9005 127.882 27.4094L127.831 27.4603ZM123.224 24.3817C123.224 23.2114 122.792 22.27 121.952 21.5831C121.138 20.8707 120.12 20.5145 118.924 20.5145C117.727 20.5145 116.837 20.8452 116.073 21.5322C115.31 22.2191 114.826 23.1605 114.648 24.3817H123.199H123.224Z" fill="white"/>
<path d="M134.193 34.5842C133.022 34.0499 132.106 33.3375 131.419 32.4216C130.732 31.5056 130.35 30.5134 130.299 29.3939H134.88C134.956 30.0809 135.313 30.666 135.898 31.124C136.483 31.582 137.247 31.811 138.138 31.811C139.028 31.811 139.69 31.6329 140.173 31.3021C140.657 30.9459 140.912 30.5134 140.912 29.9791C140.912 29.4448 140.606 28.9614 140.021 28.6561C139.435 28.3508 138.468 28.0455 137.171 27.6893C135.822 27.3585 134.727 27.0278 133.862 26.6716C132.997 26.3154 132.259 25.8065 131.648 25.0687C131.037 24.3563 130.732 23.3895 130.732 22.1682C130.732 20.947 131.012 20.26 131.597 19.4459C132.182 18.6317 132.997 17.9702 134.066 17.4868C135.135 17.0034 136.407 16.7744 137.858 16.7744C139.995 16.7744 141.726 17.3087 142.998 18.3773C144.271 19.4459 144.983 20.8961 145.111 22.728H140.759C140.682 22.0156 140.403 21.4558 139.868 21.0233C139.334 20.5908 138.621 20.3873 137.73 20.3873C136.84 20.3873 136.28 20.5399 135.822 20.8452C135.389 21.1505 135.16 21.5831 135.16 22.1173C135.16 22.6516 135.465 23.1859 136.076 23.4912C136.687 23.7966 137.629 24.1273 138.901 24.4581C140.199 24.7888 141.268 25.1196 142.108 25.4758C142.947 25.832 143.685 26.3663 144.296 27.0786C144.907 27.8165 145.238 28.7579 145.263 29.9537C145.263 30.9968 144.983 31.9382 144.398 32.7523C143.813 33.5665 142.998 34.228 141.929 34.686C140.861 35.1439 139.614 35.3729 138.163 35.3729C136.712 35.3729 135.364 35.1185 134.193 34.5842Z" fill="white"/>
<path d="M154.272 20.8195V29.5208C154.272 30.1314 154.425 30.5639 154.705 30.8438C154.985 31.1237 155.494 31.2509 156.181 31.2509H158.293V35.0927H155.443C151.6 35.0927 149.691 33.2354 149.691 29.4954V20.8195H147.554V17.0794H149.691V12.627H154.272V17.0794H158.293V20.8195H154.272Z" fill="white"/>
<path d="M161.907 14.1793C161.373 13.6704 161.118 13.0344 161.118 12.2711C161.118 11.5078 161.373 10.8717 161.907 10.3629C162.441 9.85403 163.103 9.59961 163.918 9.59961C164.732 9.59961 165.394 9.85403 165.928 10.3629C166.462 10.8717 166.717 11.5078 166.717 12.2711C166.717 13.0344 166.462 13.6704 165.928 14.1793C165.394 14.6881 164.732 14.9425 163.918 14.9425C163.103 14.9425 162.441 14.6881 161.907 14.1793ZM166.157 17.0797V35.093H161.602V17.0797H166.157Z" fill="white"/>
<path d="M178.144 30.8954L182.699 17.0801H187.534L180.867 35.0934H175.344L168.702 17.0801H173.588L178.144 30.8954Z" fill="white"/>
<path d="M193.413 34.2279C192.013 33.4647 190.944 32.3706 190.156 30.9713C189.367 29.572 188.959 27.9436 188.959 26.0863C188.959 24.229 189.367 22.6261 190.181 21.2014C190.995 19.802 192.115 18.708 193.515 17.9447C194.915 17.1814 196.492 16.7998 198.223 16.7998C199.953 16.7998 201.531 17.1814 202.931 17.9447C204.331 18.708 205.45 19.802 206.265 21.2014C207.079 22.6007 207.486 24.229 207.486 26.0863C207.486 27.9436 207.079 29.5465 206.239 30.9713C205.4 32.3706 204.28 33.4647 202.855 34.2279C201.429 34.9912 199.852 35.3729 198.096 35.3729C196.34 35.3729 194.813 34.9912 193.413 34.2279ZM200.437 30.8186C201.175 30.4116 201.735 29.8264 202.167 29.0122C202.6 28.2235 202.829 27.2312 202.829 26.0863C202.829 24.3817 202.371 23.0587 201.48 22.1427C200.59 21.2268 199.47 20.7688 198.172 20.7688C196.874 20.7688 195.78 21.2268 194.915 22.1427C194.049 23.0587 193.591 24.3817 193.591 26.0863C193.591 27.791 194.024 29.114 194.864 30.0299C195.729 30.9459 196.798 31.4038 198.096 31.4038C199.394 31.4038 199.699 31.2003 200.411 30.7932L200.437 30.8186Z" fill="white"/>
<path d="M226.039 18.8606C227.362 20.2091 228.024 22.1172 228.024 24.5343V35.0929H223.468V25.1449C223.468 23.7201 223.112 22.6261 222.399 21.8374C221.687 21.0741 220.72 20.6925 219.473 20.6925C218.226 20.6925 217.233 21.0741 216.495 21.8374C215.757 22.6007 215.401 23.6947 215.401 25.1449V35.0929H210.846V17.0796H215.401V19.3186C216.012 18.5298 216.775 17.9192 217.717 17.4867C218.658 17.0542 219.702 16.8252 220.822 16.8252C222.959 16.8252 224.69 17.5121 226.013 18.8606H226.039Z" fill="white"/>
<path d="M93.1182 48.7309C93.1182 48.7055 94.2379 48.7055 94.2379 48.7055V48.909C94.2379 50.0031 94.696 50.5374 96.4774 50.5374C98.2589 50.5374 98.3352 50.1303 98.3352 49.3161C98.3352 48.502 97.8262 48.2221 96.6301 47.9931L95.3068 47.7641C94.0343 47.5351 93.0927 46.9245 93.0927 45.5252C93.0927 44.1258 94.2379 43.2354 96.1212 43.2354C98.0044 43.2354 99.2768 44.1767 99.2768 45.9577V46.034H98.1825V45.9068C98.1825 44.9654 97.8008 44.2276 96.1212 44.2276C94.4415 44.2276 94.2379 44.6856 94.2379 45.4997C94.2379 46.3139 94.6451 46.5683 95.8158 46.7973L97.1646 47.0517C98.5388 47.3062 99.455 47.9168 99.455 49.2398C99.455 50.5628 98.3098 51.4787 96.4774 51.4787C94.6451 51.4787 93.1182 50.5628 93.1182 48.7309Z" fill="white"/>
<path d="M103.196 42.3444V40.5889H104.341V42.3444H103.196ZM103.196 51.3256V43.3112H104.341V51.3256H103.196Z" fill="white"/>
<path d="M107.93 46.9245C107.93 44.6856 109.177 43.2354 111.391 43.2354C113.605 43.2354 113.834 43.9223 114.19 44.94H114.266V43.388H115.284V50.9699C115.284 53.1071 113.91 54.2011 111.823 54.2011C109.736 54.2011 108.362 53.1325 108.362 51.3261H109.507C109.507 52.6237 110.169 53.1834 111.823 53.1834C113.477 53.1834 114.114 52.5728 114.114 50.9953V48.9854C113.732 49.9013 112.739 50.6391 111.365 50.6391C109.177 50.6391 107.93 49.1889 107.93 46.95V46.9245ZM111.62 49.6214C113.045 49.6214 114.114 48.8073 114.114 47.1789V46.6955C114.114 45.0672 113.045 44.2531 111.569 44.2531C110.093 44.2531 109.075 44.8637 109.075 46.95C109.075 49.0362 110.093 49.6469 111.62 49.6469V49.6214Z" fill="white"/>
<path d="M119.305 51.3261V43.4134H120.349V45.0418H120.4C120.705 44.2022 121.596 43.2354 123.25 43.2354C124.904 43.2354 126.227 44.5584 126.227 46.4666V51.3261H125.082V46.721C125.082 45.0163 124.522 44.2531 122.894 44.2531C121.265 44.2531 120.476 44.9909 120.476 46.7464V51.3261H119.331H119.305Z" fill="white"/>
<path d="M129.816 49.417C129.816 48.0431 130.834 47.4324 132.564 47.178L135.364 46.7964V46.2112C135.364 44.8119 134.778 44.2521 133.277 44.2521C131.775 44.2521 131.165 44.8119 131.165 46.084V46.313H130.07V46.1858C130.07 44.532 131.343 43.209 133.404 43.209C135.465 43.209 136.483 44.5829 136.483 46.3384V51.2997H135.44V49.8495H135.364C134.906 50.74 133.888 51.4778 132.386 51.4778C130.885 51.4778 129.841 50.74 129.841 49.417H129.816ZM132.666 50.5364C134.04 50.5364 135.364 49.824 135.364 47.9413V47.6614L132.666 48.0431C131.394 48.2212 130.936 48.4756 130.936 49.3152C130.936 50.1548 131.444 50.511 132.666 50.511V50.5364Z" fill="white"/>
<path d="M140.988 49.087V44.4055H139.664V43.4133H141.013L141.293 41.4033H142.158V43.4133H144.653V44.4055H142.158V49.1633C142.158 50.1047 142.591 50.3082 143.609 50.3082H144.653V51.2496C144.373 51.3005 143.889 51.3768 143.304 51.3768C141.853 51.3768 140.988 50.7916 140.988 49.1124V49.087Z" fill="white"/>
<path d="M148.012 48.1708V43.4131H149.157V48.0182C149.157 49.7228 149.844 50.4861 151.397 50.4861C152.949 50.4861 153.84 49.7228 153.84 47.8655V43.4131H154.985V51.3257H153.941V49.5702H153.891C153.56 50.4861 152.669 51.4784 151.015 51.4784C149.361 51.4784 147.986 50.0536 147.986 48.1454L148.012 48.1708Z" fill="white"/>
<path d="M159.057 51.3261V43.3117H160.1V44.6347H160.176C160.431 43.8969 161.194 43.2354 162.365 43.2354C163.536 43.2354 164.63 44.4057 164.63 45.7796V46.2376H163.485V45.9577C163.485 44.711 163.103 44.2531 161.958 44.2531C160.813 44.2531 160.202 44.8128 160.202 46.1104V51.3515H159.057V51.3261Z" fill="white"/>
<path d="M167.735 47.3824C167.735 44.9654 169.16 43.2607 171.425 43.2607C173.69 43.2607 174.911 44.4057 174.911 46.7464C174.911 49.0871 174.886 47.4588 174.835 47.6877H168.829C168.88 49.4433 169.567 50.461 171.45 50.461C173.334 50.461 173.69 49.7486 173.69 48.7818V48.68H174.835V48.7818C174.835 50.3083 173.461 51.4787 171.425 51.4787C169.389 51.4787 167.709 49.774 167.709 47.357L167.735 47.3824ZM168.829 46.8481H173.817C173.894 44.9654 172.952 44.2276 171.4 44.2276C169.847 44.2276 168.931 45.2453 168.829 46.8481Z" fill="white"/>
<path d="M184.582 49.087V44.4055H183.259V43.4133H184.608L184.888 41.4033H185.753V43.4133H188.247V44.4055H185.753V49.1633C185.753 50.1047 186.185 50.3082 187.203 50.3082H188.247V51.2496C187.967 51.3005 187.483 51.3768 186.898 51.3768C185.447 51.3768 184.582 50.7916 184.582 49.1124V49.087Z" fill="white"/>
<path d="M190.97 47.3824C190.97 44.9654 192.497 43.2607 194.813 43.2607C197.129 43.2607 198.605 44.9654 198.605 47.3824C198.605 49.7995 197.129 51.5041 194.813 51.5041C192.497 51.5041 190.97 49.7995 190.97 47.3824ZM197.485 47.3824C197.485 45.3979 196.721 44.3039 194.813 44.3039C192.904 44.3039 192.09 45.4234 192.09 47.3824C192.09 49.3415 192.853 50.4864 194.813 50.4864C196.772 50.4864 197.485 49.367 197.485 47.3824Z" fill="white"/>
<path d="M202.218 48.1708V43.4131H203.364V48.0182C203.364 49.7228 204.051 50.4861 205.603 50.4861C207.155 50.4861 208.046 49.7228 208.046 47.8655V43.4131H209.191V51.3257H208.148V49.5702H208.097C207.766 50.4861 206.876 51.4784 205.221 51.4784C203.567 51.4784 202.193 50.0536 202.193 48.1454L202.218 48.1708Z" fill="white"/>
<path d="M213.263 51.3261V43.3117H214.307V44.6347H214.383C214.638 43.8969 215.401 43.2354 216.572 43.2354C217.742 43.2354 218.837 44.4057 218.837 45.7796V46.2376H217.691V45.9577C217.691 44.711 217.31 44.2531 216.164 44.2531C215.019 44.2531 214.408 44.8128 214.408 46.1104V51.3515H213.263V51.3261Z" fill="white"/>
<path d="M222.272 48.7309C222.272 48.7055 223.392 48.7055 223.392 48.7055V48.909C223.392 50.0031 223.85 50.5374 225.631 50.5374C227.413 50.5374 227.489 50.1303 227.489 49.3161C227.489 48.502 226.98 48.2221 225.784 47.9931L224.461 47.7641C223.188 47.5351 222.247 46.9245 222.247 45.5252C222.247 44.1258 223.392 43.2354 225.275 43.2354C227.158 43.2354 228.431 44.1767 228.431 45.9577V46.034H227.337V45.9068C227.337 44.9654 226.955 44.2276 225.275 44.2276C223.596 44.2276 223.392 44.6856 223.392 45.4997C223.392 46.3139 223.799 46.5683 224.97 46.7973L226.319 47.0517C227.693 47.3062 228.609 47.9168 228.609 49.2398C228.609 50.5628 227.464 51.4787 225.631 51.4787C223.799 51.4787 222.272 50.5628 222.272 48.7309Z" fill="white"/>
</svg>
