<svg width="238" height="64" viewBox="0 0 238 64" fill="none" xmlns="http://www.w3.org/2000/svg">
<path d="M75.597 30.5346L61.8613 23.3852C60.7969 22.8255 60.9236 21.2735 62.064 20.8919L72.049 17.6861C73.088 17.3554 73.3161 15.9815 72.4545 15.32L66.2709 10.6894C65.9161 10.435 65.4599 10.3587 65.0544 10.4859L49.4687 15.4981C45.2365 16.8465 42.905 21.4007 44.2482 25.6496L52.6366 51.9318C52.8647 52.6442 53.6249 53.0258 54.3345 52.7968L60.3154 50.8886C61.025 50.6597 61.4051 49.8964 61.177 49.184L56.0578 33.1043C55.703 31.9594 56.8941 30.9417 57.9585 31.5014L71.4408 38.549C72.0997 38.9052 72.9106 38.6253 73.2654 37.9638L76.1545 32.3665C76.5093 31.705 76.2305 30.8908 75.5716 30.5346H75.597Z" fill="#C43131"/>
<path d="M36.4173 15.4726L20.8316 10.4604C20.4261 10.3332 19.97 10.4095 19.6152 10.664L13.4316 15.2945C12.5446 15.956 12.7727 17.3299 13.8371 17.6607L23.822 20.8664C24.9625 21.2226 25.0892 22.8001 24.0248 23.3598L10.2891 30.5092C9.63019 30.8654 9.37676 31.6795 9.70622 32.341L12.5953 37.9384C12.9501 38.5999 13.761 38.8543 14.4199 38.5236L27.9022 31.476C28.9666 30.9162 30.183 31.9339 29.8029 33.0789L24.6837 49.1585C24.4556 49.8709 24.8357 50.6342 25.5453 50.8632L31.5262 52.7714C32.2358 53.0004 32.9961 52.6187 33.2241 51.9063L41.6125 25.6242C42.9557 21.3753 40.6242 16.8211 36.392 15.4726H36.4173Z" fill="#C43131"/>
<path d="M107.529 12.3987V16.0624H98.1012V21.8887H105.324V25.5016H98.1012V35.0934H93.5649V12.3987H107.529Z" fill="white"/>
<path d="M127.296 27.4607H114.194C114.295 28.7582 114.751 29.7759 115.562 30.5138C116.348 31.2516 117.336 31.6078 118.502 31.6078C120.175 31.6078 121.391 30.87 122.101 29.4197H126.992C126.485 31.1498 125.471 32.5746 124.001 33.6941C122.531 34.8136 120.732 35.3733 118.603 35.3733C116.475 35.3733 115.334 34.9917 113.966 34.2284C112.597 33.4651 111.533 32.3711 110.772 30.9717C110.012 29.5724 109.632 27.9441 109.632 26.0868C109.632 24.2295 110.012 22.5757 110.772 21.1764C111.533 19.777 112.597 18.683 113.94 17.9197C115.309 17.1564 116.855 16.7748 118.629 16.7748C120.403 16.7748 121.873 17.131 123.216 17.8688C124.559 18.6067 125.623 19.6498 126.358 20.9983C127.093 22.3467 127.473 23.8987 127.473 25.6543C127.473 27.4098 127.423 26.9009 127.347 27.4098L127.296 27.4607ZM122.709 24.3821C122.709 23.2118 122.278 22.2704 121.442 21.5834C120.631 20.8711 119.617 20.5149 118.426 20.5149C117.235 20.5149 116.348 20.8456 115.588 21.5326C114.827 22.2195 114.346 23.1609 114.168 24.3821H122.683H122.709Z" fill="white"/>
<path d="M133.631 34.5846C132.466 34.0503 131.553 33.3379 130.869 32.422C130.185 31.506 129.805 30.5138 129.754 29.3943H134.316C134.392 30.0813 134.747 30.6664 135.329 31.1244C135.912 31.5824 136.673 31.8113 137.56 31.8113C138.447 31.8113 139.105 31.6332 139.587 31.3025C140.068 30.9463 140.322 30.5138 140.322 29.9795C140.322 29.4452 140.018 28.9618 139.435 28.6565C138.852 28.3512 137.889 28.0458 136.597 27.6897C135.253 27.3589 134.164 27.0281 133.302 26.672C132.44 26.3158 131.705 25.8069 131.097 25.0691C130.489 24.3567 130.185 23.3899 130.185 22.1686C130.185 20.9474 130.464 20.2604 131.047 19.4463C131.629 18.6321 132.44 17.9706 133.505 17.4872C134.569 17.0038 135.836 16.7748 137.281 16.7748C139.41 16.7748 141.133 17.3091 142.4 18.3777C143.667 19.4463 144.377 20.8965 144.503 22.7284H140.17C140.094 22.016 139.815 21.4562 139.283 21.0237C138.751 20.5912 138.041 20.3876 137.154 20.3876C136.267 20.3876 135.71 20.5403 135.253 20.8456C134.823 21.1509 134.594 21.5834 134.594 22.1177C134.594 22.652 134.899 23.1863 135.507 23.4916C136.115 23.7969 137.053 24.1277 138.32 24.4585C139.612 24.7892 140.677 25.12 141.513 25.4762C142.349 25.8323 143.084 26.3666 143.692 27.079C144.301 27.8169 144.63 28.7582 144.656 29.954C144.656 30.9972 144.377 31.9386 143.794 32.7527C143.211 33.5669 142.4 34.2284 141.336 34.6864C140.271 35.1443 139.029 35.3733 137.585 35.3733C136.14 35.3733 134.797 35.1189 133.631 34.5846Z" fill="white"/>
<path d="M153.627 20.8202V29.5215C153.627 30.1321 153.779 30.5647 154.058 30.8445C154.336 31.1244 154.843 31.2516 155.527 31.2516H157.631V35.0934H154.793C150.966 35.0934 149.065 33.2361 149.065 29.4961V20.8202H146.936V17.0801H149.065V12.6277H153.627V17.0801H157.631V20.8202H153.627Z" fill="white"/>
<path d="M161.23 14.1797C160.697 13.6708 160.444 13.0347 160.444 12.2715C160.444 11.5082 160.697 10.8721 161.23 10.3633C161.762 9.85442 162.421 9.6 163.232 9.6C164.043 9.6 164.702 9.85442 165.234 10.3633C165.766 10.8721 166.019 11.5082 166.019 12.2715C166.019 13.0347 165.766 13.6708 165.234 14.1797C164.702 14.6885 164.043 14.9429 163.232 14.9429C162.421 14.9429 161.762 14.6885 161.23 14.1797ZM165.462 17.0801V35.0934H160.925V17.0801H165.462Z" fill="white"/>
<path d="M177.398 30.8954L181.935 17.0801H186.75L180.11 35.0934H174.61L167.996 17.0801H172.862L177.398 30.8954Z" fill="white"/>
<path d="M192.604 34.2284C191.21 33.4651 190.145 32.3711 189.36 30.9717C188.574 29.5724 188.169 27.9441 188.169 26.0868C188.169 24.2295 188.574 22.6266 189.385 21.2018C190.196 19.8025 191.311 18.7084 192.705 17.9452C194.099 17.1819 195.67 16.8002 197.393 16.8002C199.117 16.8002 200.688 17.1819 202.082 17.9452C203.476 18.7084 204.591 19.8025 205.402 21.2018C206.213 22.6011 206.618 24.2295 206.618 26.0868C206.618 27.9441 206.213 29.547 205.376 30.9717C204.54 32.3711 203.425 33.4651 202.006 34.2284C200.587 34.9917 199.015 35.3733 197.267 35.3733C195.518 35.3733 193.998 34.9917 192.604 34.2284ZM199.598 30.8191C200.333 30.412 200.891 29.8268 201.322 29.0127C201.752 28.2239 201.98 27.2317 201.98 26.0868C201.98 24.3821 201.524 23.0591 200.637 22.1432C199.75 21.2272 198.635 20.7693 197.343 20.7693C196.05 20.7693 194.961 21.2272 194.099 22.1432C193.237 23.0591 192.781 24.3821 192.781 26.0868C192.781 27.7914 193.212 29.1144 194.048 30.0304C194.91 30.9463 195.974 31.4043 197.267 31.4043C198.559 31.4043 198.863 31.2007 199.573 30.7936L199.598 30.8191Z" fill="white"/>
<path d="M225.093 18.8611C226.411 20.2095 227.07 22.1177 227.07 24.5348V35.0934H222.533V25.1454C222.533 23.7206 222.179 22.6266 221.469 21.8379C220.759 21.0746 219.796 20.6929 218.555 20.6929C217.313 20.6929 216.324 21.0746 215.589 21.8379C214.855 22.6011 214.5 23.6952 214.5 25.1454V35.0934H209.963V17.0801H214.5V19.3191C215.108 18.5303 215.868 17.9197 216.806 17.4872C217.744 17.0547 218.783 16.8257 219.898 16.8257C222.026 16.8257 223.75 17.5126 225.068 18.8611H225.093Z" fill="white"/>
<path d="M92.7286 48.7306C92.7286 48.7052 93.8436 48.7052 93.8436 48.7052V48.9087C93.8436 50.0028 94.2998 50.5371 96.0738 50.5371C97.8478 50.5371 97.9238 50.13 97.9238 49.3158C97.9238 48.5016 97.4169 48.2218 96.2258 47.9928L94.908 47.7638C93.6409 47.5348 92.7032 46.9242 92.7032 45.5249C92.7032 44.1255 93.8436 43.235 95.719 43.235C97.5943 43.235 98.8615 44.1764 98.8615 45.9574V46.0337H97.7717V45.9065C97.7717 44.9651 97.3916 44.2273 95.719 44.2273C94.0464 44.2273 93.8436 44.6853 93.8436 45.4994C93.8436 46.3136 94.2491 46.568 95.4149 46.797L96.758 47.0514C98.1265 47.3059 99.0389 47.9165 99.0389 49.2395C99.0389 50.5625 97.8985 51.4784 96.0738 51.4784C94.2491 51.4784 92.7286 50.5625 92.7286 48.7306Z" fill="white"/>
<path d="M102.764 42.3446V40.589H103.905V42.3446H102.764ZM102.764 51.3258V43.3114H103.905V51.3258H102.764Z" fill="white"/>
<path d="M107.478 46.9242C107.478 44.6853 108.72 43.235 110.925 43.235C113.129 43.235 113.357 43.922 113.712 44.9397H113.788V43.3877H114.802V50.9696C114.802 53.1067 113.433 54.2008 111.355 54.2008C109.277 54.2008 107.909 53.1322 107.909 51.3258H109.049C109.049 52.6233 109.708 53.1831 111.355 53.1831C113.003 53.1831 113.636 52.5725 113.636 50.995V48.9851C113.256 49.901 112.268 50.6388 110.899 50.6388C108.72 50.6388 107.478 49.1886 107.478 46.9496V46.9242ZM111.153 49.6211C112.572 49.6211 113.636 48.807 113.636 47.1786V46.6952C113.636 45.0669 112.572 44.2527 111.102 44.2527C109.632 44.2527 108.618 44.8634 108.618 46.9496C108.618 49.0359 109.632 49.6466 111.153 49.6466V49.6211Z" fill="white"/>
<path d="M118.806 51.3258V43.4131H119.845V45.0415H119.896C120.2 44.2019 121.087 43.235 122.734 43.235C124.381 43.235 125.699 44.5581 125.699 46.4662V51.3258H124.559V46.7207C124.559 45.016 124.001 44.2527 122.379 44.2527C120.757 44.2527 119.972 44.9906 119.972 46.7461V51.3258H118.831H118.806Z" fill="white"/>
<path d="M129.273 49.4176C129.273 48.0437 130.286 47.4331 132.01 47.1786L134.797 46.797V46.2118C134.797 44.8125 134.214 44.2527 132.719 44.2527C131.224 44.2527 130.616 44.8125 130.616 46.0846V46.3136H129.526V46.1864C129.526 44.5326 130.793 43.2096 132.846 43.2096C134.899 43.2096 135.912 44.5835 135.912 46.339V51.3003H134.873V49.8501H134.797C134.341 50.7406 133.327 51.4784 131.832 51.4784C130.337 51.4784 129.298 50.7406 129.298 49.4176H129.273ZM132.111 50.5371C133.479 50.5371 134.797 49.8247 134.797 47.9419V47.662L132.111 48.0437C130.844 48.2218 130.388 48.4762 130.388 49.3158C130.388 50.1554 130.894 50.5116 132.111 50.5116V50.5371Z" fill="white"/>
<path d="M140.398 49.0868V44.4054H139.08V43.4131H140.423L140.702 41.4032H141.564V43.4131H144.047V44.4054H141.564V49.1632C141.564 50.1045 141.995 50.3081 143.008 50.3081H144.047V51.2494C143.769 51.3003 143.287 51.3767 142.704 51.3767C141.26 51.3767 140.398 50.7915 140.398 49.1123V49.0868Z" fill="white"/>
<path d="M147.393 48.1709V43.4131H148.533V48.0182C148.533 49.7229 149.217 50.4862 150.763 50.4862C152.309 50.4862 153.196 49.7229 153.196 47.8656V43.4131H154.336V51.3258H153.297V49.5702H153.247C152.917 50.4862 152.03 51.4784 150.383 51.4784C148.736 51.4784 147.367 50.0536 147.367 48.1455L147.393 48.1709Z" fill="white"/>
<path d="M158.391 51.3258V43.3114H159.43V44.6344H159.506C159.76 43.8965 160.52 43.235 161.686 43.235C162.852 43.235 163.941 44.4054 163.941 45.7793V46.2373H162.801V45.9574C162.801 44.7107 162.421 44.2527 161.28 44.2527C160.14 44.2527 159.532 44.8125 159.532 46.11V51.3512H158.391V51.3258Z" fill="white"/>
<path d="M167.033 47.3822C167.033 44.9651 168.452 43.2605 170.708 43.2605C172.963 43.2605 174.18 44.4054 174.18 46.7461C174.18 49.0868 174.154 47.4585 174.104 47.6875H168.123C168.173 49.443 168.858 50.4607 170.733 50.4607C172.608 50.4607 172.963 49.7483 172.963 48.7815V48.6797H174.104V48.7815C174.104 50.3081 172.735 51.4784 170.708 51.4784C168.68 51.4784 167.008 49.7738 167.008 47.3567L167.033 47.3822ZM168.123 46.8479H173.09C173.166 44.9651 172.228 44.2273 170.682 44.2273C169.136 44.2273 168.224 45.245 168.123 46.8479Z" fill="white"/>
<path d="M183.81 49.0868V44.4054H182.492V43.4131H183.835L184.114 41.4032H184.976V43.4131H187.459V44.4054H184.976V49.1632C184.976 50.1045 185.406 50.3081 186.42 50.3081H187.459V51.2494C187.18 51.3003 186.699 51.3767 186.116 51.3767C184.671 51.3767 183.81 50.7915 183.81 49.1123V49.0868Z" fill="white"/>
<path d="M190.171 47.3822C190.171 44.9651 191.691 43.2605 193.998 43.2605C196.304 43.2605 197.774 44.9651 197.774 47.3822C197.774 49.7992 196.304 51.5039 193.998 51.5039C191.691 51.5039 190.171 49.7992 190.171 47.3822ZM196.659 47.3822C196.659 45.3977 195.898 44.3036 193.998 44.3036C192.097 44.3036 191.286 45.4231 191.286 47.3822C191.286 49.3412 192.046 50.4862 193.998 50.4862C195.949 50.4862 196.659 49.3667 196.659 47.3822Z" fill="white"/>
<path d="M201.372 48.1709V43.4131H202.513V48.0182C202.513 49.7229 203.197 50.4862 204.743 50.4862C206.289 50.4862 207.176 49.7229 207.176 47.8656V43.4131H208.316V51.3258H207.277V49.5702H207.226C206.897 50.4862 206.01 51.4784 204.363 51.4784C202.715 51.4784 201.347 50.0536 201.347 48.1455L201.372 48.1709Z" fill="white"/>
<path d="M212.371 51.3258V43.3114H213.41V44.6344H213.486C213.739 43.8965 214.5 43.235 215.665 43.235C216.831 43.235 217.921 44.4054 217.921 45.7793V46.2373H216.781V45.9574C216.781 44.7107 216.4 44.2527 215.26 44.2527C214.12 44.2527 213.511 44.8125 213.511 46.11V51.3512H212.371V51.3258Z" fill="white"/>
<path d="M221.342 48.7306C221.342 48.7052 222.457 48.7052 222.457 48.7052V48.9087C222.457 50.0028 222.913 50.537 224.687 50.537C226.461 50.537 226.537 50.13 226.537 49.3158C226.537 48.5016 226.031 48.2218 224.839 47.9928L223.522 47.7638C222.255 47.5348 221.317 46.9242 221.317 45.5249C221.317 44.1255 222.457 43.235 224.333 43.235C226.208 43.235 227.475 44.1764 227.475 45.9574V46.0337H226.385V45.9065C226.385 44.9651 226.005 44.2273 224.333 44.2273C222.66 44.2273 222.457 44.6853 222.457 45.4994C222.457 46.3136 222.863 46.568 224.029 46.797L225.372 47.0514C226.74 47.3058 227.653 47.9165 227.653 49.2395C227.653 50.5625 226.512 51.4784 224.687 51.4784C222.863 51.4784 221.342 50.5625 221.342 48.7306Z" fill="white"/>
</svg>
