<svg width="64" height="64" viewBox="0 0 64 64" fill="none" xmlns="http://www.w3.org/2000/svg">
<path d="M53.1422 31.4462L44.3514 26.8706C43.6702 26.5123 43.7513 25.5191 44.4811 25.2748L50.8715 23.2231C51.5365 23.0114 51.6825 22.1321 51.131 21.7088L47.1735 18.7452C46.9465 18.5824 46.6545 18.5336 46.395 18.615L36.4202 21.8228C33.7115 22.6858 32.2194 25.6005 33.079 28.3198L38.4476 45.1404C38.5935 45.5963 39.0801 45.8405 39.5343 45.694L43.362 44.4727C43.8161 44.3262 44.0594 43.8377 43.9135 43.3818L40.6372 33.0908C40.4101 32.358 41.1724 31.7067 41.8536 32.0649L50.4823 36.5754C50.904 36.8033 51.423 36.6242 51.65 36.2009L53.499 32.6185C53.7261 32.1952 53.5477 31.6741 53.126 31.4462H53.1422Z" fill="#C43131"/>
<path d="M28.0672 21.8065L18.0924 18.5987C17.8329 18.5173 17.5409 18.5662 17.3139 18.729L13.3564 21.6925C12.7887 22.1159 12.9347 22.9952 13.6159 23.2069L20.0063 25.2586C20.7361 25.4865 20.8172 26.4961 20.136 26.8543L11.3452 31.4299C10.9235 31.6579 10.7613 32.1789 10.9721 32.6023L12.8211 36.1846C13.0482 36.608 13.5672 36.7708 13.9889 36.5591L22.6176 32.0487C23.2988 31.6905 24.0773 32.3418 23.834 33.0745L20.5577 43.3655C20.4117 43.8215 20.655 44.31 21.1092 44.4565L24.9369 45.6777C25.391 45.8243 25.8776 45.58 26.0236 45.1241L31.3922 28.3035C32.2518 25.5842 30.7596 22.6695 28.051 21.8065H28.0672Z" fill="#C43131"/>
</svg>
