<svg width="238" height="64" viewBox="0 0 238 64" fill="none" xmlns="http://www.w3.org/2000/svg">
<path d="M75.5977 30.5345L61.8621 23.3851C60.7977 22.8254 60.9244 21.2734 62.0648 20.8917L72.0498 17.686C73.0888 17.3552 73.3169 15.9813 72.4553 15.3198L66.2717 10.6893C65.9169 10.4348 65.4607 10.3585 65.0552 10.4857L49.4695 15.4979C45.2373 16.8464 42.9058 21.4006 44.249 25.6495L52.6374 51.9316C52.8655 52.644 53.6257 53.0257 54.3353 52.7967L60.3162 50.8885C61.0258 50.6595 61.4059 49.8962 61.1778 49.1838L56.0586 33.1041C55.7038 31.9592 56.8949 30.9415 57.9593 31.5013L71.4416 38.5489C72.1005 38.905 72.9114 38.6252 73.2662 37.9637L76.1553 32.3663C76.5101 31.7048 76.2313 30.8906 75.5724 30.5345H75.5977Z" fill="#C43131"/>
<path d="M36.4175 15.4725L20.8318 10.4603C20.4264 10.3331 19.9702 10.4094 19.6154 10.6639L13.4318 15.2944C12.5448 15.9559 12.7729 17.3298 13.8373 17.6606L23.8223 20.8663C24.9627 21.2225 25.0894 22.8 24.025 23.3597L10.2893 30.5091C9.63042 30.8653 9.37699 31.6794 9.70645 32.3409L12.5955 37.9383C12.9503 38.5998 13.7613 38.8542 14.4202 38.5235L27.9024 31.4759C28.9668 30.9161 30.1833 31.9338 29.8031 33.0788L24.6839 49.1584C24.4558 49.8708 24.836 50.6341 25.5456 50.8631L31.5264 52.7713C32.236 53.0003 32.9963 52.6186 33.2244 51.9062L41.6128 25.6241C42.9559 21.3752 40.6244 16.821 36.3922 15.4725H36.4175Z" fill="#C43131"/>
<path d="M107.528 12.3989V16.0627H98.1008V21.889H105.323V25.5018H98.1008V35.0937H93.5645V12.3989H107.528Z" fill="#3A3F42"/>
<path d="M127.295 27.4608H114.193C114.294 28.7583 114.75 29.776 115.561 30.5139C116.347 31.2517 117.335 31.6079 118.501 31.6079C120.173 31.6079 121.39 30.8701 122.099 29.4198H126.991C126.484 31.1499 125.47 32.5747 124 33.6942C122.53 34.8137 120.731 35.3734 118.602 35.3734C116.473 35.3734 115.333 34.9918 113.964 34.2285C112.596 33.4652 111.532 32.3712 110.771 30.9718C110.011 29.5725 109.631 27.9442 109.631 26.0869C109.631 24.2296 110.011 22.5758 110.771 21.1765C111.532 19.7771 112.596 18.6831 113.939 17.9198C115.308 17.1565 116.853 16.7749 118.627 16.7749C120.401 16.7749 121.871 17.1311 123.214 17.8689C124.558 18.6068 125.622 19.6499 126.357 20.9984C127.092 22.3468 127.472 23.8988 127.472 25.6543C127.472 27.4099 127.421 26.901 127.345 27.4099L127.295 27.4608ZM122.708 24.3822C122.708 23.2119 122.277 22.2705 121.441 21.5835C120.63 20.8712 119.616 20.515 118.425 20.515C117.234 20.515 116.347 20.8457 115.586 21.5327C114.826 22.2196 114.345 23.161 114.167 24.3822H122.682H122.708Z" fill="#3A3F42"/>
<path d="M133.631 34.5847C132.466 34.0504 131.553 33.338 130.869 32.4221C130.185 31.5061 129.805 30.5139 129.754 29.3944H134.316C134.392 30.0814 134.746 30.6665 135.329 31.1245C135.912 31.5825 136.672 31.8114 137.559 31.8114C138.446 31.8114 139.105 31.6333 139.587 31.3026C140.068 30.9464 140.322 30.5139 140.322 29.9796C140.322 29.4453 140.018 28.9619 139.435 28.6566C138.852 28.3513 137.889 28.0459 136.596 27.6898C135.253 27.359 134.164 27.0282 133.302 26.6721C132.44 26.3159 131.705 25.807 131.097 25.0692C130.489 24.3568 130.185 23.39 130.185 22.1687C130.185 20.9475 130.463 20.2605 131.046 19.4464C131.629 18.6322 132.44 17.9707 133.505 17.4873C134.569 17.0039 135.836 16.7749 137.281 16.7749C139.409 16.7749 141.133 17.3092 142.4 18.3778C143.667 19.4464 144.377 20.8966 144.503 22.7285H140.17C140.094 22.0161 139.815 21.4563 139.283 21.0238C138.751 20.5913 138.041 20.3877 137.154 20.3877C136.267 20.3877 135.709 20.5404 135.253 20.8457C134.822 21.151 134.594 21.5835 134.594 22.1178C134.594 22.6521 134.898 23.1864 135.507 23.4917C136.115 23.797 137.053 24.1278 138.32 24.4586C139.612 24.7893 140.677 25.1201 141.513 25.4763C142.349 25.8324 143.084 26.3667 143.692 27.0791C144.301 27.817 144.63 28.7583 144.655 29.9541C144.655 30.9973 144.377 31.9387 143.794 32.7528C143.211 33.567 142.4 34.2285 141.335 34.6865C140.271 35.1444 139.029 35.3734 137.585 35.3734C136.14 35.3734 134.797 35.119 133.631 34.5847Z" fill="#3A3F42"/>
<path d="M153.626 20.8204V29.5218C153.626 30.1324 153.778 30.5649 154.057 30.8448C154.336 31.1247 154.842 31.2519 155.527 31.2519H157.63V35.0937H154.792C150.965 35.0937 149.064 33.2364 149.064 29.4963V20.8204H146.936V17.0804H149.064V12.6279H153.626V17.0804H157.63V20.8204H153.626Z" fill="#3A3F42"/>
<path d="M161.229 14.1798C160.697 13.6709 160.443 13.0348 160.443 12.2716C160.443 11.5083 160.697 10.8722 161.229 10.3634C161.761 9.85452 162.42 9.6001 163.231 9.6001C164.042 9.6001 164.701 9.85452 165.233 10.3634C165.765 10.8722 166.019 11.5083 166.019 12.2716C166.019 13.0348 165.765 13.6709 165.233 14.1798C164.701 14.6886 164.042 14.943 163.231 14.943C162.42 14.943 161.761 14.6886 161.229 14.1798ZM165.461 17.0802V35.0935H160.925V17.0802H165.461Z" fill="#3A3F42"/>
<path d="M177.398 30.8954L181.935 17.0801H186.75L180.11 35.0934H174.611L167.996 17.0801H172.862L177.398 30.8954Z" fill="#3A3F42"/>
<path d="M192.603 34.2284C191.209 33.4652 190.145 32.3711 189.359 30.9718C188.573 29.5725 188.168 27.9441 188.168 26.0868C188.168 24.2295 188.573 22.6266 189.384 21.2019C190.195 19.8025 191.31 18.7085 192.704 17.9452C194.098 17.1819 195.669 16.8003 197.393 16.8003C199.116 16.8003 200.687 17.1819 202.081 17.9452C203.475 18.7085 204.59 19.8025 205.401 21.2019C206.212 22.6012 206.617 24.2295 206.617 26.0868C206.617 27.9441 206.212 29.547 205.376 30.9718C204.539 32.3711 203.424 33.4652 202.005 34.2284C200.586 34.9917 199.015 35.3733 197.266 35.3733C195.517 35.3733 193.997 34.9917 192.603 34.2284ZM199.597 30.8191C200.332 30.4121 200.89 29.8269 201.321 29.0127C201.752 28.224 201.98 27.2317 201.98 26.0868C201.98 24.3822 201.524 23.0592 200.637 22.1432C199.75 21.2273 198.634 20.7693 197.342 20.7693C196.05 20.7693 194.96 21.2273 194.098 22.1432C193.236 23.0592 192.78 24.3822 192.78 26.0868C192.78 27.7915 193.211 29.1145 194.047 30.0304C194.909 30.9463 195.973 31.4043 197.266 31.4043C198.558 31.4043 198.863 31.2008 199.572 30.7937L199.597 30.8191Z" fill="#3A3F42"/>
<path d="M225.092 18.8611C226.41 20.2095 227.069 22.1177 227.069 24.5348V35.0934H222.533V25.1454C222.533 23.7206 222.178 22.6266 221.468 21.8379C220.759 21.0746 219.796 20.6929 218.554 20.6929C217.312 20.6929 216.324 21.0746 215.589 21.8379C214.854 22.6011 214.499 23.6952 214.499 25.1454V35.0934H209.963V17.0801H214.499V19.3191C215.107 18.5303 215.868 17.9197 216.805 17.4872C217.743 17.0547 218.782 16.8257 219.897 16.8257C222.026 16.8257 223.749 17.5126 225.067 18.8611H225.092Z" fill="#3A3F42"/>
<path d="M92.7285 48.7309C92.7285 48.7055 93.8435 48.7055 93.8435 48.7055V48.909C93.8435 50.0031 94.2997 50.5374 96.0737 50.5374C97.8477 50.5374 97.9237 50.1303 97.9237 49.3161C97.9237 48.502 97.4169 48.2221 96.2258 47.9931L94.9079 47.7641C93.6408 47.5351 92.7031 46.9245 92.7031 45.5252C92.7031 44.1258 93.8435 43.2354 95.7189 43.2354C97.5943 43.2354 98.8614 44.1767 98.8614 45.9577V46.034H97.7716V45.9068C97.7716 44.9654 97.3915 44.2276 95.7189 44.2276C94.0463 44.2276 93.8435 44.6856 93.8435 45.4997C93.8435 46.3139 94.249 46.5683 95.4148 46.7973L96.7579 47.0517C98.1264 47.3062 99.0388 47.9168 99.0388 49.2398C99.0388 50.5628 97.8984 51.4787 96.0737 51.4787C94.249 51.4787 92.7285 50.5628 92.7285 48.7309Z" fill="#808285"/>
<path d="M102.764 42.3449V40.5894H103.904V42.3449H102.764ZM102.764 51.3261V43.3117H103.904V51.3261H102.764Z" fill="#808285"/>
<path d="M107.479 46.9245C107.479 44.6856 108.72 43.2354 110.925 43.2354C113.13 43.2354 113.358 43.9223 113.713 44.94H113.789V43.388H114.803V50.9699C114.803 53.1071 113.434 54.2011 111.356 54.2011C109.278 54.2011 107.909 53.1325 107.909 51.3261H109.05C109.05 52.6237 109.709 53.1834 111.356 53.1834C113.003 53.1834 113.637 52.5728 113.637 50.9953V48.9854C113.257 49.9013 112.268 50.6391 110.9 50.6391C108.72 50.6391 107.479 49.1889 107.479 46.95V46.9245ZM111.153 49.6214C112.572 49.6214 113.637 48.8073 113.637 47.1789V46.6955C113.637 45.0672 112.572 44.2531 111.103 44.2531C109.633 44.2531 108.619 44.8637 108.619 46.95C108.619 49.0362 109.633 49.6469 111.153 49.6469V49.6214Z" fill="#808285"/>
<path d="M118.807 51.3261V43.4134H119.846V45.0418H119.896C120.2 44.2022 121.087 43.2354 122.735 43.2354C124.382 43.2354 125.7 44.5584 125.7 46.4666V51.3261H124.559V46.721C124.559 45.0163 124.002 44.2531 122.38 44.2531C120.758 44.2531 119.972 44.9909 119.972 46.7464V51.3261H118.832H118.807Z" fill="#808285"/>
<path d="M129.273 49.4179C129.273 48.044 130.287 47.4334 132.01 47.179L134.798 46.7974V46.2122C134.798 44.8128 134.215 44.2531 132.72 44.2531C131.225 44.2531 130.617 44.8128 130.617 46.085V46.314H129.527V46.1867C129.527 44.533 130.794 43.21 132.847 43.21C134.9 43.21 135.913 44.5839 135.913 46.3394V51.3007H134.874V49.8505H134.798C134.342 50.741 133.328 51.4788 131.833 51.4788C130.338 51.4788 129.299 50.741 129.299 49.4179H129.273ZM132.112 50.5374C133.48 50.5374 134.798 49.825 134.798 47.9423V47.6624L132.112 48.044C130.845 48.2221 130.389 48.4766 130.389 49.3162C130.389 50.1558 130.895 50.512 132.112 50.512V50.5374Z" fill="#808285"/>
<path d="M140.398 49.087V44.4055H139.08V43.4133H140.423L140.702 41.4033H141.564V43.4133H144.047V44.4055H141.564V49.1633C141.564 50.1047 141.994 50.3082 143.008 50.3082H144.047V51.2496C143.768 51.3005 143.287 51.3768 142.704 51.3768C141.26 51.3768 140.398 50.7916 140.398 49.1124V49.087Z" fill="#808285"/>
<path d="M147.393 48.1713V43.4136H148.533V48.0187C148.533 49.7233 149.217 50.4866 150.763 50.4866C152.309 50.4866 153.196 49.7233 153.196 47.866V43.4136H154.336V51.3262H153.297V49.5707H153.247C152.917 50.4866 152.03 51.4789 150.383 51.4789C148.736 51.4789 147.367 50.0541 147.367 48.1459L147.393 48.1713Z" fill="#808285"/>
<path d="M158.391 51.3261V43.3117H159.43V44.6347H159.506C159.759 43.8969 160.519 43.2354 161.685 43.2354C162.851 43.2354 163.941 44.4057 163.941 45.7796V46.2376H162.8V45.9577C162.8 44.711 162.42 44.2531 161.28 44.2531C160.139 44.2531 159.531 44.8128 159.531 46.1104V51.3515H158.391V51.3261Z" fill="#808285"/>
<path d="M167.033 47.3824C167.033 44.9654 168.452 43.2607 170.708 43.2607C172.963 43.2607 174.18 44.4057 174.18 46.7464C174.18 49.0871 174.154 47.4588 174.104 47.6877H168.123C168.174 49.4433 168.858 50.461 170.733 50.461C172.609 50.461 172.963 49.7486 172.963 48.7818V48.68H174.104V48.7818C174.104 50.3083 172.735 51.4787 170.708 51.4787C168.68 51.4787 167.008 49.774 167.008 47.357L167.033 47.3824ZM168.123 46.8481H173.09C173.166 44.9654 172.228 44.2276 170.682 44.2276C169.137 44.2276 168.224 45.2453 168.123 46.8481Z" fill="#808285"/>
<path d="M183.81 49.087V44.4055H182.492V43.4133H183.835L184.114 41.4033H184.976V43.4133H187.459V44.4055H184.976V49.1633C184.976 50.1047 185.407 50.3082 186.42 50.3082H187.459V51.2496C187.181 51.3005 186.699 51.3768 186.116 51.3768C184.672 51.3768 183.81 50.7916 183.81 49.1124V49.087Z" fill="#808285"/>
<path d="M190.17 47.3824C190.17 44.9654 191.69 43.2607 193.997 43.2607C196.303 43.2607 197.773 44.9654 197.773 47.3824C197.773 49.7995 196.303 51.5041 193.997 51.5041C191.69 51.5041 190.17 49.7995 190.17 47.3824ZM196.658 47.3824C196.658 45.3979 195.897 44.3039 193.997 44.3039C192.096 44.3039 191.285 45.4234 191.285 47.3824C191.285 49.3415 192.045 50.4864 193.997 50.4864C195.948 50.4864 196.658 49.367 196.658 47.3824Z" fill="#808285"/>
<path d="M201.373 48.1713V43.4136H202.513V48.0187C202.513 49.7233 203.198 50.4866 204.744 50.4866C206.289 50.4866 207.176 49.7233 207.176 47.866V43.4136H208.317V51.3262H207.278V49.5707H207.227C206.898 50.4866 206.011 51.4789 204.363 51.4789C202.716 51.4789 201.348 50.0541 201.348 48.1459L201.373 48.1713Z" fill="#808285"/>
<path d="M212.371 51.3261V43.3117H213.41V44.6347H213.486C213.74 43.8969 214.5 43.2354 215.666 43.2354C216.831 43.2354 217.921 44.4057 217.921 45.7796V46.2376H216.781V45.9577C216.781 44.711 216.401 44.2531 215.26 44.2531C214.12 44.2531 213.512 44.8128 213.512 46.1104V51.3515H212.371V51.3261Z" fill="#808285"/>
<path d="M221.342 48.7309C221.342 48.7055 222.457 48.7055 222.457 48.7055V48.909C222.457 50.0031 222.913 50.5374 224.687 50.5374C226.461 50.5374 226.537 50.1303 226.537 49.3161C226.537 48.502 226.03 48.2221 224.839 47.9931L223.521 47.7641C222.254 47.5351 221.316 46.9245 221.316 45.5252C221.316 44.1258 222.457 43.2354 224.332 43.2354C226.208 43.2354 227.475 44.1767 227.475 45.9577V46.034H226.385V45.9068C226.385 44.9654 226.005 44.2276 224.332 44.2276C222.66 44.2276 222.457 44.6856 222.457 45.4997C222.457 46.3139 222.862 46.5683 224.028 46.7973L225.371 47.0517C226.74 47.3062 227.652 47.9168 227.652 49.2398C227.652 50.5628 226.512 51.4787 224.687 51.4787C222.862 51.4787 221.342 50.5628 221.342 48.7309Z" fill="#808285"/>
</svg>
