<svg width="13" height="13" viewBox="0 0 13 13" fill="none" xmlns="http://www.w3.org/2000/svg">
<path d="M6.33333 12.6667C5.45811 12.6667 4.63511 12.5004 3.86433 12.168C3.09356 11.8356 2.42311 11.3844 1.853 10.8145C1.28289 10.2446 0.8315 9.57444 0.498833 8.804C0.166278 8.03356 0 7.21039 0 6.3345C0 5.4585 0.166222 4.63511 0.498667 3.86433C0.831111 3.09356 1.28228 2.42311 1.85217 1.853C2.42206 1.28289 3.09222 0.8315 3.86267 0.498833C4.63311 0.166278 5.45628 0 6.33217 0C7.20817 0 8.03156 0.166278 8.80233 0.498833C9.57311 0.831278 10.2436 1.2825 10.8137 1.8525C11.3838 2.4225 11.8352 3.09278 12.1678 3.86333C12.5004 4.63389 12.6667 5.45722 12.6667 6.33333V7.14617C12.6667 7.75472 12.4577 8.27139 12.0398 8.69617C11.6219 9.12094 11.1087 9.33333 10.5 9.33333C10.1068 9.33333 9.74222 9.23717 9.40633 9.04483C9.07045 8.8525 8.80506 8.58794 8.61017 8.25117C8.32217 8.59483 7.98183 8.86111 7.58917 9.05C7.19639 9.23889 6.77778 9.33333 6.33333 9.33333C5.50089 9.33333 4.79278 9.04144 4.209 8.45767C3.62522 7.87389 3.33333 7.16578 3.33333 6.33333C3.33333 5.50089 3.62522 4.79278 4.209 4.209C4.79278 3.62522 5.50089 3.33333 6.33333 3.33333C7.16578 3.33333 7.87389 3.62522 8.45767 4.209C9.04144 4.79278 9.33333 5.50089 9.33333 6.33333V7.14617C9.33333 7.4735 9.44595 7.75322 9.67117 7.98533C9.89639 8.21733 10.1727 8.33333 10.5 8.33333C10.8273 8.33333 11.1036 8.21733 11.3288 7.98533C11.5541 7.75322 11.6667 7.4735 11.6667 7.14617V6.33333C11.6667 4.84444 11.15 3.58333 10.1167 2.55C9.08333 1.51667 7.82222 1 6.33333 1C4.84444 1 3.58333 1.51667 2.55 2.55C1.51667 3.58333 1 4.84444 1 6.33333C1 7.82222 1.51667 9.08333 2.55 10.1167C3.58333 11.15 4.84444 11.6667 6.33333 11.6667H9.66667V12.6667H6.33333ZM6.33333 8.33333C6.88889 8.33333 7.36111 8.13889 7.75 7.75C8.13889 7.36111 8.33333 6.88889 8.33333 6.33333C8.33333 5.77778 8.13889 5.30556 7.75 4.91667C7.36111 4.52778 6.88889 4.33333 6.33333 4.33333C5.77778 4.33333 5.30556 4.52778 4.91667 4.91667C4.52778 5.30556 4.33333 5.77778 4.33333 6.33333C4.33333 6.88889 4.52778 7.36111 4.91667 7.75C5.30556 8.13889 5.77778 8.33333 6.33333 8.33333Z" fill="#1C1B1F"/>
</svg>
