<svg width="20" height="20" viewBox="0 0 20 20" fill="none" xmlns="http://www.w3.org/2000/svg">
<path d="M16.2504 1.66675C16.7459 1.66646 17.2494 1.79226 17.7087 2.05737C19.1038 2.86279 19.5819 4.64673 18.7764 6.04175L12.5264 16.8669C11.721 18.2619 9.93711 18.7401 8.54203 17.9347C7.84518 17.5322 7.37687 16.8839 7.18382 16.1647L5.71166 10.6698L1.68822 6.64559C0.549089 5.50646 0.549388 3.66015 1.68822 2.52124C2.21507 1.99434 2.94532 1.66684 3.7504 1.66675H16.2504ZM3.7504 3.33342C3.40507 3.33351 3.09363 3.47258 2.86661 3.69962C2.3784 4.18792 2.3786 4.9792 2.86661 5.46721L6.59545 9.19608L12.4093 5.83912C12.8078 5.60908 13.3176 5.74581 13.5478 6.14429C13.7777 6.54278 13.641 7.05268 13.2426 7.2828L7.42878 10.6397L8.79353 15.7325C8.8767 16.0425 9.07653 16.3183 9.37536 16.491C9.9732 16.8361 10.7375 16.6313 11.0828 16.0336L17.3328 5.20842C17.6779 4.61055 17.4733 3.84624 16.8754 3.50106C16.6778 3.38697 16.4634 3.33327 16.2512 3.33342H3.7504Z" fill="#3A3F42"/>
</svg>
