<svg width="20" height="20" viewBox="0 0 20 20" fill="none" xmlns="http://www.w3.org/2000/svg">
<path d="M3.33398 18.3335C3.33398 14.6516 6.31875 11.6668 10.0007 11.6668C13.6826 11.6668 16.6673 14.6516 16.6673 18.3335H15.0007C15.0007 15.5721 12.7621 13.3335 10.0007 13.3335C7.23923 13.3335 5.00065 15.5721 5.00065 18.3335H3.33398ZM10.0007 10.8335C7.23815 10.8335 5.00065 8.596 5.00065 5.8335C5.00065 3.071 7.23815 0.833496 10.0007 0.833496C12.7632 0.833496 15.0007 3.071 15.0007 5.8335C15.0007 8.596 12.7632 10.8335 10.0007 10.8335ZM10.0007 9.16683C11.8423 9.16683 13.334 7.67516 13.334 5.8335C13.334 3.99183 11.8423 2.50016 10.0007 2.50016C8.15898 2.50016 6.66732 3.99183 6.66732 5.8335C6.66732 7.67516 8.15898 9.16683 10.0007 9.16683Z" fill="#3A3F42"/>
</svg>
