<svg xmlns="http://www.w3.org/2000/svg" version="1.1" xmlns:xlink="http://www.w3.org/1999/xlink" width="512" height="512" x="0" y="0" viewBox="0 0 68 68" style="enable-background:new 0 0 512 512" xml:space="preserve" class=""><g><path d="M59.7 42.05h-1.21v-19.9c0-7.74-6.29-14.02-14.02-14.02h-.42C42.53 3.9 38.47 1 33.93 1c-4.55 0-8.61 2.9-10.12 7.13h-.28c-7.73 0-14.02 6.28-14.02 14.02v19.9H8.3c-2.48 0-4.49 2.01-4.49 4.48v9.98c0 2.47 2.01 4.48 4.49 4.48h1.21v.47C9.51 64.52 12 67 15.05 67h37.9a5.54 5.54 0 0 0 5.54-5.54v-.47h1.21c2.48 0 4.49-2.01 4.49-4.48v-9.98c0-2.47-2.01-4.48-4.49-4.48zM9.51 58.99H8.3c-1.37 0-2.49-1.11-2.49-2.48v-9.98c0-1.37 1.12-2.48 2.49-2.48h1.21zM33.93 3c3.45 0 6.56 2.06 7.97 5.13H25.96C27.36 5.06 30.47 3 33.93 3zm22.56 58.46c0 1.96-1.58 3.54-3.54 3.54h-37.9a3.54 3.54 0 0 1-3.54-3.54V31.5c1 .88 2.32 1.4 3.75 1.4h3.69v1.42c0 1.09.89 1.97 1.98 1.97h2.96c1.09 0 1.98-.88 1.98-1.97V32.9h16.27v1.42c0 1.09.89 1.97 1.98 1.97h2.95c1.09 0 1.98-.88 1.98-1.97V32.9h3.71c1.43 0 2.73-.52 3.73-1.39v29.95zM20.95 34.32v-5.41l2.92-.02.02 5.4zm23.19 0v-5.41l2.91-.02.02 5.4zm12.35-7.16c0 2.06-1.68 3.74-3.73 3.74h-3.71v-2.01c0-1.1-.89-1.98-1.98-1.98h-2.95c-1.09 0-1.98.88-1.98 1.98v2.01H25.87v-2.01c0-1.1-.89-1.98-1.98-1.98h-2.96c-1.09 0-1.98.88-1.98 1.98v2.01h-3.69a3.75 3.75 0 0 1-3.75-3.74v-5.01c0-6.63 5.39-12.02 12.02-12.02h20.94c6.63 0 12.02 5.39 12.02 12.02v5.01zm5.7 29.35c0 1.37-1.12 2.48-2.49 2.48h-1.21V44.05h1.21c1.37 0 2.49 1.11 2.49 2.48z" fill="#000000" opacity="1" data-original="#000000" class=""></path><path d="M44.911 43.4H23.094a3.971 3.971 0 0 0-3.967 3.967V57.82a4.289 4.289 0 0 0 4.284 4.283h21.183a4.289 4.289 0 0 0 4.284-4.283V47.367a3.971 3.971 0 0 0-3.967-3.967zm-21.817 2h21.817c1.085 0 1.967.882 1.967 1.967v.7h-25.75v-.7c0-1.085.881-1.967 1.966-1.967zm21.5 14.703H23.411a2.286 2.286 0 0 1-2.284-2.283v-7.753h2.1v2.166a1 1 0 1 0 2 0v-2.166h21.651v7.753a2.286 2.286 0 0 1-2.284 2.283zM53.36 51.752a1 1 0 0 0-1 1v4.24a3.503 3.503 0 0 1-1.698 3.005 1 1 0 1 0 1.042 1.707 5.49 5.49 0 0 0 2.656-4.712v-4.24a1 1 0 0 0-1-1zM53.36 47.762a1 1 0 0 0-1 1v.542a1 1 0 1 0 2 0v-.542a1 1 0 0 0-1-1z" fill="#000000" opacity="1" data-original="#000000" class=""></path></g></svg>