<svg xmlns="http://www.w3.org/2000/svg" version="1.1" xmlns:xlink="http://www.w3.org/1999/xlink" width="512" height="512" x="0" y="0" viewBox="0 0 7111 7111" style="enable-background:new 0 0 512 512" xml:space="preserve" fill-rule="evenodd" class=""><g><path d="M3530 6514c-1645 0-3051-1228-3277-2848-6-47 29-93 75-99 47-6 93 29 99 75 214 1540 1545 2698 3108 2698s2895-1164 3109-2698c6-46 52-81 98-75 47 6 81 52 76 99-226 1620-1639 2848-3288 2848z" fill="#000000" opacity="1" data-original="#000000" class=""></path><path d="M4583 5420c-1100 0-2049-759-2205-1760-6-47 23-93 75-99 46-5 92 24 98 76 139 920 1013 1615 2032 1615 1036 0 1922-695 2061-1610 6-46 52-81 98-75 47 6 81 52 76 99-157 1001-1118 1754-2235 1754z" fill="#000000" opacity="1" data-original="#000000" class=""></path><path d="M3570 5188c-29 0-64-17-75-46-23-41-6-93 40-116 573-289 967-811 1048-1384 6-46 52-81 99-75 46 6 81 52 75 99-93 631-521 1198-1141 1516-17 6-34 6-46 6zM2534 3741H288c-157 0-290-128-290-290 0-156 128-289 290-289h2252c156 0 289 127 289 289-6 157-133 290-295 290zM288 3336c-64 0-116 52-116 115 0 64 52 116 116 116h2252c63 0 115-52 115-116 0-63-52-115-115-115z" fill="#000000" opacity="1" data-original="#000000" class=""></path><path d="M6823 3741H4572c-157 0-290-133-290-290 0-156 133-289 290-289h2251c157 0 290 133 290 289 0 157-133 290-290 290zm-2251-405c-58 0-116 52-116 115 0 58 52 116 116 116h2251c58 0 116-52 116-116 0-58-52-115-116-115zM4039 6068c-1470 0-2779-984-3184-2391-12-46 12-93 58-110 46-11 93 12 110 58 382 1337 1627 2269 3016 2269 46 0 87 41 87 87s-35 87-87 87z" fill="#000000" opacity="1" data-original="#000000" class=""></path><path d="M4467 5790c-1372 0-2582-828-3085-2107-18-46 6-93 46-110 46-17 93 6 110 46 481 1210 1627 1997 2929 1997 47 0 87 41 87 87 0 47-40 87-87 87zM4664 3336c-17 0-40-6-52-18-35-29-40-87-12-121l1031-1274c17-23 40-35 69-35s52 12 70 35l1036 1274c29 34 23 92-12 121-34 29-92 23-121-11l-978-1193-961 1193c-18 23-41 29-70 29zM375 3336c-18 0-41-6-53-18-34-29-40-87-11-121l1036-1274c35-40 104-40 133 0l1036 1274c29 34 24 92-11 121s-93 23-122-11l-972-1193-967 1193c-17 23-41 29-69 29z" fill="#000000" opacity="1" data-original="#000000" class=""></path><path d="M1411 2062c-47 0-87-41-87-87V684c0-46 40-87 87-87 46 0 87 41 87 87v1291c0 46-41 87-87 87zM5695 2062c-47 0-87-41-87-87V684c0-46 40-87 87-87 46 0 86 41 86 87v1291c0 46-40 87-86 87z" fill="#000000" opacity="1" data-original="#000000" class=""></path></g></svg>