<svg xmlns="http://www.w3.org/2000/svg" version="1.1" xmlns:xlink="http://www.w3.org/1999/xlink" width="512" height="512" x="0" y="0" viewBox="0 0 64 64" style="enable-background:new 0 0 512 512" xml:space="preserve" class=""><g><circle cx="11" cy="59" r="1" fill="#000000" opacity="1" data-original="#000000" class=""></circle><circle cx="49" cy="59" r="1" fill="#000000" opacity="1" data-original="#000000" class=""></circle><path d="M63.655 43.953 61.3 23.542A4 4 0 0 0 57.326 20h-3.882c.344-.59.556-1.268.556-2v-1a1 1 0 0 0-1-1h-1.05C51.512 10.313 47.41 5.648 42 4.363V4c0-1.066-.416-2.07-1.173-2.827A3.97 3.97 0 0 0 38 0c-2.206 0-4 1.794-4 4v.363a13.029 13.029 0 0 0-7.828 5.457c-.06-.071-.11-.149-.172-.219V3a1 1 0 0 0-1-1h-4a1 1 0 0 0-1 1v6.603a7.89 7.89 0 0 0-2 5.227V20h-3.326a3.99 3.99 0 0 0-3.452 2H3c-1.654 0-3 1.346-3 3s1.346 3 3 3h7.185l-1.84 15.955a2.987 2.987 0 0 0 1.349 2.863c.96.624 2.17.65 3.193.042.375-.222.717-.42 1.113-.572v8.738A4.951 4.951 0 0 0 11 54c-2.757 0-5 2.243-5 5s2.243 5 5 5 5-2.243 5-5v-1h28.101A5.006 5.006 0 0 0 49 64a5.006 5.006 0 0 0 4.899-6H59a1 1 0 0 0 1-1v-9.78c.778.182 1.606.049 2.305-.404a2.986 2.986 0 0 0 1.35-2.863zM26 20c-1.103 0-2-.897-2-2h28c0 1.103-.897 2-2 2zM36 4c0-1.103.897-2 2-2 .532 0 1.034.208 1.413.587S40 3.467 40 4v.05c-.331-.025-.662-.05-1-.05h-2a13 13 0 0 0-1 .05zm1 2h2c5.729 0 10.448 4.401 10.955 10h-23.91c.507-5.599 5.226-10 10.954-10zM22 4h2v2h-2zm-2 10.83c0-1.535.622-3.038 1.707-4.123A1 1 0 0 0 22 10V8h2v2a1 1 0 0 0 .293.707c.326.326.588.686.816 1.06A12.89 12.89 0 0 0 24.051 16H23a1 1 0 0 0-1 1v1c0 .732.212 1.41.556 2H20v-5.17zM3 26a1 1 0 0 1 0-2h7.647l-.23 2zm22.374 21.415.038-.019c.362-.17.682-.356.985-.536.811-.48 1.452-.86 2.866-.86 1.413 0 2.053.38 2.863.86.901.535 1.922 1.14 3.883 1.14s2.983-.606 3.884-1.14c.811-.48 1.452-.86 2.865-.86s2.053.38 2.864.86c.9.535 1.922 1.14 3.883 1.14s2.983-.606 3.884-1.14c.81-.48 1.45-.86 2.864-.86.753 0 1.285.11 1.747.287V52H16v-5.992c1.242.043 1.862.401 2.625.852.901.535 1.924 1.14 3.887 1.14 1.279 0 2.155-.258 2.862-.585zM11 62c-1.654 0-3-1.346-3-3s1.346-3 3-3 3 1.346 3 3-1.346 3-3 3zm38 0c-1.654 0-3-1.346-3-3s1.346-3 3-3 3 1.346 3 3-1.346 3-3 3zm9-6h-5.026c-.913-1.207-2.347-2-3.974-2s-3.06.793-3.974 2H16v-2h42zm3.217-10.862c-.324.21-.715.22-1.08.002a14.339 14.339 0 0 0-.743-.419l-.008-.003C58.633 44.33 57.7 44 56.253 44c-1.961 0-2.983.606-3.884 1.14-.81.48-1.451.86-2.864.86s-2.052-.38-2.863-.86c-.901-.534-1.923-1.14-3.884-1.14s-2.983.606-3.884 1.14c-.812.48-1.452.86-2.865.86-1.412 0-2.052-.38-2.862-.86A10.298 10.298 0 0 0 32 44.529V40a1 1 0 1 0-2 0v4.033a8.438 8.438 0 0 0-.737-.033c-1.531 0-2.487.37-3.263.785V32a1 1 0 1 0-2 0v13.802c-.402.122-.869.198-1.488.198-1.415 0-2.057-.38-2.869-.86-.902-.534-1.924-1.14-3.887-1.14s-2.986.606-3.927 1.163a.978.978 0 0 1-1.046-.022.986.986 0 0 1-.451-.957l2.355-20.413c.015-.13.043-.256.081-.376l.005-.012a2 2 0 0 1 1.9-1.383h42.653a2 2 0 0 1 1.987 1.77l2.355 20.412a.985.985 0 0 1-.451.956z" fill="#000000" opacity="1" data-original="#000000" class=""></path><path d="M31 26a1 1 0 0 0-1 1v7a1 1 0 1 0 2 0v-7a1 1 0 0 0-1-1zM47 31a1 1 0 0 0-1 1v9a1 1 0 1 0 2 0v-9a1 1 0 0 0-1-1z" fill="#000000" opacity="1" data-original="#000000" class=""></path></g></svg>