<svg xmlns="http://www.w3.org/2000/svg" version="1.1" xmlns:xlink="http://www.w3.org/1999/xlink" width="512" height="512" x="0" y="0" viewBox="0 0 511.751 511.751" style="enable-background:new 0 0 512 512" xml:space="preserve" class=""><g><path d="M504.227 252.442c.917 66.337-24.054 129.061-70.313 176.616s-108.268 74.251-174.605 75.168c-66.337.917-129.061-24.054-176.616-70.313S8.442 325.646 7.524 259.309c-.916-66.337 24.054-129.06 70.313-176.616S186.105 8.442 252.442 7.524c66.337-.917 129.061 24.054 176.616 70.313" style="stroke-width:15;stroke-miterlimit:10;" fill="none" stroke="#000000" stroke-width="15" stroke-miterlimit="10" data-original="#000000"></path><path d="m431.15 48.045.446 32.26-32.26.446M255.876 460.876c-54.758 0-106.237-21.324-144.957-60.043-38.719-38.72-60.043-90.199-60.043-144.957S72.2 149.639 110.919 110.919c38.72-38.719 90.199-60.043 144.957-60.043S362.113 72.2 400.833 110.919c38.719 38.72 60.043 90.199 60.043 144.957s-21.324 106.237-60.043 144.957c-38.72 38.719-90.2 60.043-144.957 60.043z" style="stroke-width:15;stroke-miterlimit:10;" fill="none" stroke="#000000" stroke-width="15" stroke-miterlimit="10" data-original="#000000"></path><path d="M218.482 336.081h15M248.482 336.081h15M278.482 336.081h15" style="stroke-width:15;stroke-miterlimit:10;stroke-dasharray:14.9379,14.9379;" fill="none" stroke="#000000" stroke-width="15" stroke-miterlimit="10" stroke-dasharray="14.9379,14.9379" data-original="#000000"></path><path d="M255.876 50.393v28.011M153.165 77.914l14.006 24.258M77.976 153.103l24.259 14.005M50.455 255.813h28.011M77.976 358.523l24.259-14.005M153.165 433.713l14.006-24.259M255.876 461.234v-28.011M358.586 433.713l-14.006-24.259M433.775 358.523l-24.258-14.005M461.296 255.813h-28.011M433.775 153.103l-24.258 14.005M358.586 77.914l-14.006 24.258M312.564 205.479l-38.973 97.989" style="stroke-width:15;stroke-miterlimit:10;" fill="none" stroke="#000000" stroke-width="15" stroke-miterlimit="10" data-original="#000000"></path><path d="M340.2 209.03h53.907v4.032l-42.075 89.957M246.635 274.925h-62.973l37.956-66.148h11.075l-.245 97.496" style="stroke-width:15;stroke-miterlimit:3;" fill="none" stroke="#000000" stroke-width="15" stroke-miterlimit="3" data-original="#000000"></path><path d="m167.645 299.234-46.559-.143.011-3.016 32.564-40.855c5.422-7.747 8.407-14.283 9.677-19.759l.45-3.521c0-12.863-10.427-23.29-23.29-23.29-11.318 0-20.751 8.073-22.853 18.775" style="stroke-width:15;stroke-miterlimit:10;" fill="none" stroke="#000000" stroke-width="15" stroke-miterlimit="10" data-original="#000000"></path></g></svg>