<svg width="20" height="20" viewBox="0 0 20 20" fill="none" xmlns="http://www.w3.org/2000/svg">
<path d="M5.83268 3.33317V16.6665H14.166V3.33317H5.83268ZM4.99935 1.6665H14.9993C15.4596 1.6665 15.8327 2.0396 15.8327 2.49984V17.4998C15.8327 17.9601 15.4596 18.3332 14.9993 18.3332H4.99935C4.53912 18.3332 4.16602 17.9601 4.16602 17.4998V2.49984C4.16602 2.0396 4.53912 1.6665 4.99935 1.6665ZM9.99935 14.1665C10.4596 14.1665 10.8327 14.5396 10.8327 14.9998C10.8327 15.4601 10.4596 15.8332 9.99935 15.8332C9.5391 15.8332 9.16602 15.4601 9.16602 14.9998C9.16602 14.5396 9.5391 14.1665 9.99935 14.1665Z" fill="#3A3F42"/>
</svg>
