<svg width="70" height="51" viewBox="0 0 70 51" fill="none" xmlns="http://www.w3.org/2000/svg">
<path d="M14.8047 0.570312L22.9463 1.84668L23.4268 1.92188L23.3643 2.4043L21.04 20.5059C24.2574 20.5962 26.8128 21.4688 28.6387 23.1855C29.6367 24.1241 30.3498 25.5262 30.8154 27.332C31.2818 29.141 31.5098 31.3923 31.5098 34.0742C31.5098 38.5439 31.0328 41.9202 30.0361 44.1465C29.1226 46.4281 27.397 47.9136 24.915 48.5898C22.5092 49.2453 19.0513 49.5644 14.5684 49.5645C10.9301 49.5645 8.05101 49.2452 5.95801 48.585L5.9502 48.582C3.86951 47.8891 2.43482 46.3798 1.64551 44.127C0.871533 41.9178 0.5 38.5516 0.5 34.0742C0.500024 27.741 1.6289 21.7245 3.8877 16.0293C6.15083 10.3233 9.65194 5.21357 14.3828 0.702148L14.5615 0.532227L14.8047 0.570312ZM52.7959 0.570312L60.9365 1.84668L61.417 1.92188L61.3555 2.4043L59.0312 20.5059C62.2483 20.5963 64.8032 21.4689 66.6289 23.1855C67.627 24.1241 68.34 25.526 68.8057 27.332C69.272 29.141 69.5 31.3922 69.5 34.0742C69.5 38.5571 69.0222 41.9409 68.0195 44.167L68.0186 44.166C67.1031 46.4367 65.3811 47.9155 62.9062 48.5898C60.5004 49.2454 57.0419 49.5645 52.5586 49.5645C48.9202 49.5644 46.0413 49.2452 43.9482 48.585L43.9404 48.582C41.8598 47.8891 40.425 46.3798 39.6357 44.127C38.8618 41.9178 38.4902 38.5516 38.4902 34.0742C38.4903 27.741 39.6191 21.7245 41.8779 16.0293C44.1411 10.3233 47.6421 5.2136 52.373 0.702148L52.5518 0.532227L52.7959 0.570312Z" stroke="#3A3F42"/>
</svg>
