<svg width="20" height="20" viewBox="0 0 20 20" fill="none" xmlns="http://www.w3.org/2000/svg">
<path d="M14.7137 12.3571L13.5352 11.1786L14.7137 10.0001C16.0154 8.69834 16.0154 6.58779 14.7137 5.28604C13.4119 3.9843 11.3013 3.9843 9.99959 5.28604L8.82109 6.46456L7.64258 5.28604L8.82109 4.10754C10.7737 2.15491 13.9395 2.15491 15.8922 4.10754C17.8448 6.06016 17.8448 9.22601 15.8922 11.1786L14.7137 12.3571ZM12.3566 14.7142L11.1781 15.8927C9.2255 17.8453 6.05966 17.8453 4.10705 15.8927C2.15442 13.94 2.15442 10.7742 4.10705 8.82159L5.28555 7.64307L6.46406 8.82159L5.28555 10.0001C3.9838 11.3018 3.9838 13.4124 5.28555 14.7142C6.5873 16.0158 8.69784 16.0158 9.99959 14.7142L11.1781 13.5356L12.3566 14.7142ZM12.3566 6.46456L13.5352 7.64307L7.64258 13.5356L6.46406 12.3571L12.3566 6.46456Z" fill="#3A3F42"/>
</svg>
