<?xml version="1.0" encoding="utf-8"?>
<!-- Generator: Adobe Illustrator 24.0.1, SVG Export Plug-In . SVG Version: 6.00 Build 0)  -->
<svg version="1.1" id="Layer_1" xmlns="http://www.w3.org/2000/svg" xmlns:xlink="http://www.w3.org/1999/xlink" x="0px" y="0px"
	 viewBox="0 0 264 72" style="enable-background:new 0 0 264 72;" xml:space="preserve">
<style type="text/css">
	.st0{clip-path:url(#SVGID_2_);}
	.st1{fill:#34E0A1;}
	.st2{fill:#FFFFFF;}
	.st3{opacity:0.4;fill:#FFFFFF;enable-background:new    ;}
</style>
<g>
	<defs>
		<rect id="SVGID_1_" y="6" width="60" height="60"/>
	</defs>
	<clipPath id="SVGID_2_">
		<use xlink:href="#SVGID_1_"  style="overflow:visible;"/>
	</clipPath>
	<g class="st0">
		<path class="st1" d="M30,66c16.6,0,30-13.4,30-30C60,19.4,46.6,6,30,6C13.4,6,0,19.4,0,36C0,52.6,13.4,66,30,66z"/>
		<path class="st2" d="M48.6,30.2l3.6-3.9h-8c-4-2.7-8.9-4.3-14.1-4.3c-5.2,0-10.1,1.6-14.1,4.3H7.9l3.6,3.9c-2.2,2-3.6,4.9-3.6,8.2
			c0,6.1,5,11.1,11.1,11.1c2.9,0,5.6-1.1,7.5-3l3.5,3.9l3.5-3.9c2,1.8,4.6,2.9,7.5,2.9c6.1,0,11.1-5,11.1-11.1
			C52.2,35.1,50.8,32.2,48.6,30.2z M18.9,45.8c-4.1,0-7.5-3.4-7.5-7.5c0-4.1,3.4-7.5,7.5-7.5s7.5,3.4,7.5,7.5
			C26.4,42.5,23.1,45.8,18.9,45.8z M30,38.1c0-4.9-3.6-9.2-8.3-11c2.6-1.1,5.4-1.7,8.3-1.7s5.8,0.6,8.3,1.7C33.6,29,30,33.2,30,38.1
			z M41.1,45.8c-4.1,0-7.5-3.4-7.5-7.5c0-4.1,3.4-7.5,7.5-7.5c4.1,0,7.5,3.4,7.5,7.5C48.6,42.5,45.2,45.8,41.1,45.8z M41.1,34.4
			c-2.2,0-3.9,1.8-3.9,3.9s1.8,3.9,3.9,3.9c2.2,0,3.9-1.8,3.9-3.9C45,36.2,43.3,34.4,41.1,34.4z M22.9,38.3c0,2.2-1.8,3.9-3.9,3.9
			S15,40.5,15,38.3c0-2.2,1.8-3.9,3.9-3.9C21.1,34.4,22.9,36.2,22.9,38.3z"/>
	</g>
</g>
<g>
	<path class="st2" d="M74.7,30.8V18.5h-4.1v-1.7h10.4v1.7h-4.1v12.3H74.7z M82.2,30.8v-9.9h1.9l0.2,1.9c0.3-0.7,0.8-1.2,1.4-1.5
		c0.6-0.4,1.4-0.6,2.3-0.6v2.2h-0.6c-0.6,0-1.1,0.1-1.6,0.3c-0.5,0.2-0.8,0.5-1.1,1c-0.3,0.5-0.4,1.1-0.4,1.9v4.8H82.2z M91.4,19
		c-0.4,0-0.7-0.1-1-0.4C90.1,18.3,90,18,90,17.7c0-0.4,0.1-0.7,0.4-0.9c0.3-0.3,0.6-0.4,1-0.4s0.7,0.1,1,0.4
		c0.3,0.2,0.4,0.5,0.4,0.9c0,0.4-0.1,0.7-0.4,0.9C92.1,18.8,91.8,19,91.4,19z M90.3,30.8v-9.9h2.1v9.9H90.3z M95.6,35.2V20.8h1.9
		l0.2,1.5c0.3-0.5,0.8-0.9,1.3-1.2c0.6-0.4,1.3-0.5,2.2-0.5c1,0,1.8,0.2,2.5,0.7c0.7,0.5,1.3,1.1,1.7,1.9c0.4,0.8,0.6,1.7,0.6,2.7
		s-0.2,1.9-0.6,2.7c-0.4,0.8-1,1.4-1.7,1.8c-0.7,0.4-1.6,0.7-2.6,0.7c-0.8,0-1.5-0.2-2.1-0.5c-0.6-0.3-1.1-0.7-1.4-1.3v5.9H95.6z
		 M100.9,29.2c0.9,0,1.7-0.3,2.2-0.9c0.6-0.6,0.9-1.4,0.9-2.4c0-0.7-0.1-1.2-0.4-1.7c-0.3-0.5-0.6-0.9-1.1-1.2
		c-0.5-0.3-1-0.4-1.6-0.4c-0.9,0-1.7,0.3-2.2,0.9c-0.6,0.6-0.9,1.4-0.9,2.4c0,1,0.3,1.8,0.9,2.4C99.2,28.8,100,29.2,100.9,29.2z
		 M112.2,31c-0.8,0-1.5-0.1-2.1-0.4c-0.5-0.3-1-0.6-1.2-1.1c-0.3-0.5-0.4-1-0.4-1.5c0-1,0.4-1.7,1.1-2.3c0.7-0.6,1.8-0.8,3.2-0.8
		h2.6v-0.2c0-0.8-0.2-1.4-0.6-1.7c-0.4-0.4-1-0.6-1.6-0.6c-0.6,0-1.1,0.1-1.5,0.4c-0.4,0.3-0.7,0.7-0.8,1.3h-2.1
		c0.1-0.7,0.3-1.3,0.7-1.8c0.4-0.5,1-0.9,1.6-1.2c0.7-0.3,1.4-0.4,2.1-0.4c1.4,0,2.5,0.4,3.2,1.1c0.8,0.7,1.1,1.7,1.1,3v6.1h-1.8
		l-0.2-1.7c-0.3,0.5-0.7,1-1.2,1.4C113.8,30.8,113.1,31,112.2,31z M112.6,29.3c0.6,0,1.1-0.1,1.4-0.4c0.4-0.3,0.7-0.6,0.9-1.1
		c0.2-0.5,0.4-1,0.4-1.5H113c-0.8,0-1.4,0.1-1.8,0.4c-0.3,0.3-0.5,0.7-0.5,1.1c0,0.5,0.2,0.8,0.5,1.1
		C111.6,29.1,112,29.3,112.6,29.3z M124.9,31c-1,0-1.8-0.2-2.5-0.7c-0.7-0.5-1.3-1.1-1.7-1.9c-0.4-0.8-0.6-1.7-0.6-2.7
		s0.2-1.9,0.6-2.7c0.4-0.8,1-1.4,1.7-1.8c0.7-0.5,1.6-0.7,2.6-0.7c0.8,0,1.5,0.2,2.1,0.5c0.6,0.3,1.1,0.7,1.4,1.3v-6h2.1v14.4h-1.9
		l-0.2-1.5c-0.3,0.5-0.8,0.9-1.3,1.2C126.5,30.8,125.8,31,124.9,31z M125.3,29.2c0.9,0,1.6-0.3,2.2-0.9c0.6-0.6,0.9-1.4,0.9-2.4
		c0-1-0.3-1.8-0.9-2.4c-0.6-0.6-1.3-0.9-2.2-0.9c-0.9,0-1.7,0.3-2.2,0.9c-0.6,0.6-0.9,1.4-0.9,2.4c0,0.7,0.1,1.2,0.4,1.7
		c0.3,0.5,0.6,0.9,1.1,1.2C124.2,29,124.7,29.2,125.3,29.2z M136.4,30.8l-3.7-9.9h2.2l2.8,7.9l2.8-7.9h2.2l-3.7,9.9H136.4z
		 M145.9,19c-0.4,0-0.7-0.1-1-0.4c-0.3-0.3-0.4-0.6-0.4-0.9c0-0.4,0.1-0.7,0.4-0.9c0.3-0.3,0.6-0.4,1-0.4c0.4,0,0.7,0.1,1,0.4
		c0.3,0.2,0.4,0.5,0.4,0.9c0,0.4-0.1,0.7-0.4,0.9C146.7,18.8,146.3,19,145.9,19z M144.9,30.8v-9.9h2.1v9.9H144.9z M154.2,31
		c-1.3,0-2.3-0.3-3.1-0.9c-0.8-0.6-1.3-1.4-1.4-2.4h2.1c0.1,0.5,0.4,0.8,0.8,1.2c0.4,0.3,0.9,0.5,1.6,0.5c0.6,0,1.1-0.1,1.4-0.4
		c0.3-0.3,0.4-0.6,0.4-0.9c0-0.5-0.2-0.8-0.6-1c-0.4-0.2-1-0.4-1.7-0.5c-0.6-0.1-1.1-0.3-1.7-0.5c-0.5-0.2-1-0.5-1.4-0.8
		c-0.4-0.4-0.5-0.9-0.5-1.5c0-0.9,0.3-1.6,1-2.2c0.7-0.6,1.6-0.9,2.8-0.9c1.1,0,2,0.3,2.7,0.8c0.7,0.5,1.1,1.3,1.2,2.3h-2
		c-0.1-0.4-0.3-0.8-0.6-1c-0.3-0.2-0.8-0.4-1.3-0.4c-0.5,0-0.9,0.1-1.2,0.3c-0.3,0.2-0.4,0.5-0.4,0.8s0.2,0.6,0.6,0.8
		c0.4,0.2,1,0.4,1.6,0.5c0.7,0.1,1.3,0.3,1.8,0.5c0.6,0.2,1,0.5,1.4,0.8c0.3,0.4,0.5,0.9,0.5,1.6c0,0.9-0.3,1.7-1.1,2.3
		C156.4,30.7,155.4,31,154.2,31z M165.5,31c-0.9,0-1.8-0.2-2.6-0.6c-0.7-0.4-1.3-1-1.8-1.8c-0.4-0.8-0.7-1.7-0.7-2.7
		c0-1,0.2-1.9,0.7-2.7c0.5-0.8,1.1-1.4,1.8-1.8c0.8-0.4,1.6-0.7,2.5-0.7c0.9,0,1.8,0.2,2.5,0.7c0.8,0.4,1.4,1,1.8,1.8
		c0.5,0.8,0.7,1.7,0.7,2.7c0,1-0.2,2-0.7,2.7c-0.4,0.8-1,1.4-1.8,1.8C167.3,30.8,166.4,31,165.5,31z M165.5,29.2
		c0.5,0,1-0.1,1.4-0.4c0.4-0.3,0.8-0.6,1.1-1.1c0.3-0.5,0.4-1.1,0.4-1.9s-0.1-1.4-0.4-1.9c-0.3-0.5-0.6-0.9-1-1.1
		c-0.4-0.3-0.9-0.4-1.4-0.4c-0.5,0-1,0.1-1.4,0.4c-0.4,0.3-0.8,0.6-1,1.1c-0.3,0.5-0.4,1.1-0.4,1.9s0.1,1.4,0.4,1.9
		c0.3,0.5,0.6,0.9,1,1.1C164.5,29,165,29.2,165.5,29.2z M173.2,30.8v-9.9h1.9l0.2,1.9c0.3-0.7,0.8-1.2,1.4-1.5
		c0.6-0.4,1.4-0.6,2.3-0.6v2.2h-0.6c-0.6,0-1.1,0.1-1.6,0.3c-0.5,0.2-0.8,0.5-1.1,1c-0.3,0.5-0.4,1.1-0.4,1.9v4.8H173.2z
		 M186.7,30.8v-14h4.8c1.1,0,2,0.2,2.7,0.6c0.7,0.4,1.3,0.9,1.6,1.5c0.3,0.6,0.5,1.3,0.5,2.1c0,0.9-0.2,1.7-0.7,2.4
		c-0.5,0.7-1.2,1.2-2.1,1.5l3,5.9h-2.5l-2.7-5.6h-2.5v5.6H186.7z M188.8,23.5h2.6c1,0,1.7-0.2,2.1-0.7c0.5-0.5,0.7-1.1,0.7-1.8
		s-0.2-1.3-0.7-1.8c-0.4-0.5-1.2-0.7-2.1-0.7h-2.6V23.5z M203.3,31c-1,0-1.8-0.2-2.6-0.6c-0.7-0.4-1.3-1-1.8-1.8
		c-0.4-0.8-0.6-1.7-0.6-2.7c0-1,0.2-2,0.6-2.7c0.4-0.8,1-1.4,1.8-1.8c0.8-0.4,1.6-0.7,2.6-0.7c1,0,1.8,0.2,2.5,0.7
		c0.7,0.4,1.3,1,1.7,1.7c0.4,0.7,0.6,1.5,0.6,2.4c0,0.1,0,0.3,0,0.4c0,0.1,0,0.3,0,0.5h-7.7c0.1,1,0.4,1.7,0.9,2.2
		c0.6,0.5,1.2,0.7,2,0.7c0.6,0,1.1-0.1,1.5-0.4c0.4-0.3,0.7-0.7,0.9-1.1h2.1c-0.3,0.9-0.8,1.7-1.6,2.3C205.4,30.7,204.4,31,203.3,31
		z M203.3,22.3c-0.7,0-1.3,0.2-1.9,0.6c-0.5,0.4-0.9,1-1,1.9h5.6c0-0.8-0.3-1.4-0.8-1.8C204.6,22.6,204,22.3,203.3,22.3z
		 M213.1,30.8l-3.7-9.9h2.2l2.8,7.9l2.8-7.9h2.2l-3.7,9.9H213.1z M222.6,19c-0.4,0-0.7-0.1-1-0.4c-0.3-0.3-0.4-0.6-0.4-0.9
		c0-0.4,0.1-0.7,0.4-0.9c0.3-0.3,0.6-0.4,1-0.4c0.4,0,0.7,0.1,1,0.4c0.3,0.2,0.4,0.5,0.4,0.9c0,0.4-0.1,0.7-0.4,0.9
		C223.4,18.8,223,19,222.6,19z M221.6,30.8v-9.9h2.1v9.9H221.6z M231.5,31c-1,0-1.8-0.2-2.6-0.6c-0.7-0.4-1.3-1-1.8-1.8
		c-0.4-0.8-0.6-1.7-0.6-2.7c0-1,0.2-2,0.6-2.7c0.4-0.8,1-1.4,1.8-1.8c0.8-0.4,1.6-0.7,2.6-0.7c1,0,1.8,0.2,2.5,0.7
		c0.7,0.4,1.3,1,1.7,1.7s0.6,1.5,0.6,2.4c0,0.1,0,0.3,0,0.4c0,0.1,0,0.3,0,0.5h-7.7c0.1,1,0.4,1.7,0.9,2.2c0.6,0.5,1.2,0.7,2,0.7
		c0.6,0,1.1-0.1,1.5-0.4c0.4-0.3,0.7-0.7,0.9-1.1h2.1c-0.3,0.9-0.8,1.7-1.6,2.3C233.7,30.7,232.7,31,231.5,31z M231.5,22.3
		c-0.7,0-1.3,0.2-1.9,0.6c-0.5,0.4-0.9,1-1,1.9h5.6c0-0.8-0.3-1.4-0.8-1.8C232.9,22.6,232.3,22.3,231.5,22.3z M240.6,30.8l-2.9-9.9
		h2.1l1.9,7.5l2.2-7.5h2.4l2.2,7.5l1.9-7.5h2.1l-2.9,9.9h-2.2L245,23l-2.3,7.8H240.6z M258.5,31c-1.3,0-2.3-0.3-3.1-0.9
		c-0.8-0.6-1.3-1.4-1.4-2.4h2.1c0.1,0.5,0.4,0.8,0.8,1.2c0.4,0.3,0.9,0.5,1.6,0.5c0.6,0,1.1-0.1,1.4-0.4c0.3-0.3,0.4-0.6,0.4-0.9
		c0-0.5-0.2-0.8-0.6-1c-0.4-0.2-1-0.4-1.7-0.5c-0.6-0.1-1.1-0.3-1.7-0.5c-0.5-0.2-1-0.5-1.4-0.8c-0.4-0.4-0.5-0.9-0.5-1.5
		c0-0.9,0.3-1.6,1-2.2c0.7-0.6,1.6-0.9,2.8-0.9c1.1,0,2,0.3,2.7,0.8c0.7,0.5,1.1,1.3,1.2,2.3h-2c-0.1-0.4-0.3-0.8-0.6-1
		c-0.3-0.2-0.8-0.4-1.3-0.4c-0.5,0-0.9,0.1-1.2,0.3c-0.3,0.2-0.4,0.5-0.4,0.8s0.2,0.6,0.6,0.8c0.4,0.2,1,0.4,1.6,0.5
		c0.7,0.1,1.3,0.3,1.8,0.5c0.6,0.2,1,0.5,1.4,0.8c0.3,0.4,0.5,0.9,0.5,1.6c0,0.9-0.3,1.7-1.1,2.3C260.7,30.7,259.7,31,258.5,31z"/>
	<path class="st1" d="M83.4,40.9l1.4,2.8c0.2,0.4,0.7,0.8,1.1,0.8l2.6,0.4c1.6,0.3,2,1.4,0.8,2.6l-2,2c-0.3,0.3-0.5,1-0.4,1.5
		l0.6,2.5c0.4,1.9-0.6,2.7-2.3,1.7l-2.4-1.4c-0.4-0.3-1.2-0.3-1.6,0l-2.4,1.4c-1.7,1-2.8,0.3-2.3-1.7l0.6-2.5
		c0.1-0.5-0.1-1.1-0.4-1.5l-2-2c-1.2-1.2-0.8-2.4,0.8-2.6l2.6-0.4c0.4-0.1,0.9-0.5,1.1-0.8l1.4-2.8C81.4,39.4,82.6,39.4,83.4,40.9z"
		/>
	<path class="st1" d="M107.4,40.9l1.4,2.8c0.2,0.4,0.7,0.8,1.1,0.8l2.5,0.4c1.6,0.3,2,1.4,0.8,2.6l-2,2c-0.3,0.3-0.5,1-0.4,1.5
		l0.6,2.5c0.5,1.9-0.6,2.7-2.3,1.7l-2.4-1.4c-0.4-0.3-1.2-0.3-1.6,0l-2.4,1.4c-1.7,1-2.8,0.3-2.3-1.7l0.6-2.5
		c0.1-0.5-0.1-1.1-0.4-1.5l-2-2c-1.2-1.2-0.8-2.4,0.8-2.6l2.5-0.4c0.4-0.1,0.9-0.5,1.1-0.8l1.4-2.8
		C105.4,39.4,106.6,39.4,107.4,40.9z"/>
	<path class="st1" d="M131.4,40.9l1.4,2.8c0.2,0.4,0.7,0.8,1.1,0.8l2.6,0.4c1.6,0.3,2,1.4,0.8,2.6l-2,2c-0.3,0.3-0.5,1-0.4,1.5
		l0.6,2.5c0.4,1.9-0.6,2.7-2.3,1.7l-2.4-1.4c-0.4-0.3-1.1-0.3-1.6,0l-2.4,1.4c-1.7,1-2.8,0.3-2.3-1.7l0.6-2.5
		c0.1-0.5-0.1-1.1-0.4-1.5l-2-2c-1.2-1.2-0.8-2.4,0.8-2.6l2.6-0.4c0.4-0.1,0.9-0.5,1.1-0.8l1.4-2.8
		C129.4,39.4,130.6,39.4,131.4,40.9z"/>
	<path class="st1" d="M155.4,40.9l1.4,2.8c0.2,0.4,0.7,0.8,1.1,0.8l2.6,0.4c1.6,0.3,2,1.4,0.8,2.6l-2,2c-0.3,0.3-0.5,1-0.4,1.5
		l0.6,2.5c0.4,1.9-0.6,2.7-2.3,1.7l-2.4-1.4c-0.4-0.3-1.1-0.3-1.6,0l-2.4,1.4c-1.7,1-2.8,0.3-2.3-1.7l0.6-2.5
		c0.1-0.5-0.1-1.1-0.4-1.5l-2-2c-1.2-1.2-0.8-2.4,0.8-2.6l2.6-0.4c0.4-0.1,0.9-0.5,1.1-0.8l1.4-2.8
		C153.4,39.4,154.6,39.4,155.4,40.9z"/>
	<path class="st3" d="M179.4,40.9l1.4,2.8c0.2,0.4,0.7,0.8,1.1,0.8l2.6,0.4c1.6,0.3,2,1.4,0.8,2.6l-2,2c-0.3,0.3-0.5,1-0.4,1.5
		l0.6,2.5c0.4,1.9-0.6,2.7-2.3,1.7l-2.4-1.4c-0.4-0.3-1.1-0.3-1.6,0l-2.4,1.4c-1.7,1-2.8,0.3-2.3-1.7l0.6-2.5
		c0.1-0.5-0.1-1.1-0.4-1.5l-2-2c-1.2-1.2-0.8-2.4,0.8-2.6l2.6-0.4c0.4-0.1,0.9-0.5,1.1-0.8l1.4-2.8
		C177.4,39.4,178.6,39.4,179.4,40.9z"/>
</g>
</svg>
