<svg width="264" height="72" viewBox="0 0 264 72" fill="none" xmlns="http://www.w3.org/2000/svg">
<path d="M74.7 19V6.72H70.56V5H80.94V6.72H76.82V19H74.7ZM82.1892 19V9.08H84.0892L84.2692 10.96C84.6159 10.3067 85.0959 9.79333 85.7092 9.42C86.3359 9.03333 87.0892 8.84 87.9692 8.84V11.06H87.3892C86.8026 11.06 86.2759 11.16 85.8092 11.36C85.3559 11.5467 84.9892 11.8733 84.7092 12.34C84.4426 12.7933 84.3092 13.4267 84.3092 14.24V19H82.1892ZM91.3869 7.2C90.9869 7.2 90.6535 7.08 90.3869 6.84C90.1335 6.58667 90.0069 6.27333 90.0069 5.9C90.0069 5.52667 90.1335 5.22 90.3869 4.98C90.6535 4.72667 90.9869 4.6 91.3869 4.6C91.7869 4.6 92.1135 4.72667 92.3669 4.98C92.6335 5.22 92.7669 5.52667 92.7669 5.9C92.7669 6.27333 92.6335 6.58667 92.3669 6.84C92.1135 7.08 91.7869 7.2 91.3869 7.2ZM90.3269 19V9.08H92.4469V19H90.3269ZM95.6455 23.4V9.08H97.5455L97.7655 10.62C98.0855 10.1533 98.5255 9.74 99.0855 9.38C99.6455 9.02 100.365 8.84 101.245 8.84C102.205 8.84 103.052 9.06667 103.785 9.52C104.519 9.97333 105.092 10.5933 105.505 11.38C105.932 12.1667 106.145 13.06 106.145 14.06C106.145 15.06 105.932 15.9533 105.505 16.74C105.092 17.5133 104.519 18.1267 103.785 18.58C103.052 19.02 102.199 19.24 101.225 19.24C100.452 19.24 99.7655 19.0867 99.1655 18.78C98.5788 18.4733 98.1121 18.04 97.7655 17.48V23.4H95.6455ZM100.865 17.4C101.772 17.4 102.519 17.0933 103.105 16.48C103.692 15.8533 103.985 15.04 103.985 14.04C103.985 13.3867 103.852 12.8067 103.585 12.3C103.319 11.7933 102.952 11.4 102.485 11.12C102.019 10.8267 101.479 10.68 100.865 10.68C99.9588 10.68 99.2121 10.9933 98.6255 11.62C98.0521 12.2467 97.7655 13.0533 97.7655 14.04C97.7655 15.04 98.0521 15.8533 98.6255 16.48C99.2121 17.0933 99.9588 17.4 100.865 17.4ZM112.198 19.24C111.358 19.24 110.665 19.1 110.118 18.82C109.572 18.54 109.165 18.1733 108.898 17.72C108.632 17.2533 108.498 16.7467 108.498 16.2C108.498 15.24 108.872 14.48 109.618 13.92C110.365 13.36 111.432 13.08 112.818 13.08H115.418V12.9C115.418 12.1267 115.205 11.5467 114.778 11.16C114.365 10.7733 113.825 10.58 113.158 10.58C112.572 10.58 112.058 10.7267 111.618 11.02C111.192 11.3 110.932 11.72 110.838 12.28H108.718C108.785 11.56 109.025 10.9467 109.438 10.44C109.865 9.92 110.398 9.52667 111.038 9.26C111.692 8.98 112.405 8.84 113.178 8.84C114.565 8.84 115.638 9.20667 116.398 9.94C117.158 10.66 117.538 11.6467 117.538 12.9V19H115.698L115.518 17.3C115.238 17.8467 114.832 18.3067 114.298 18.68C113.765 19.0533 113.065 19.24 112.198 19.24ZM112.618 17.52C113.192 17.52 113.672 17.3867 114.058 17.12C114.458 16.84 114.765 16.4733 114.978 16.02C115.205 15.5667 115.345 15.0667 115.398 14.52H113.038C112.198 14.52 111.598 14.6667 111.238 14.96C110.892 15.2533 110.718 15.62 110.718 16.06C110.718 16.5133 110.885 16.8733 111.218 17.14C111.565 17.3933 112.032 17.52 112.618 17.52ZM124.93 19.24C123.97 19.24 123.124 19.0133 122.39 18.56C121.657 18.1067 121.084 17.4867 120.67 16.7C120.257 15.9133 120.05 15.02 120.05 14.02C120.05 13.02 120.257 12.1333 120.67 11.36C121.084 10.5733 121.657 9.96 122.39 9.52C123.137 9.06667 123.99 8.84 124.95 8.84C125.737 8.84 126.424 8.99333 127.01 9.3C127.61 9.60667 128.077 10.04 128.41 10.6V4.6H130.53V19H128.63L128.41 17.46C128.09 17.9267 127.65 18.34 127.09 18.7C126.53 19.06 125.81 19.24 124.93 19.24ZM125.31 17.4C126.217 17.4 126.957 17.0867 127.53 16.46C128.117 15.8333 128.41 15.0267 128.41 14.04C128.41 13.04 128.117 12.2333 127.53 11.62C126.957 10.9933 126.217 10.68 125.31 10.68C124.404 10.68 123.657 10.9933 123.07 11.62C122.484 12.2333 122.19 13.04 122.19 14.04C122.19 14.6933 122.324 15.2733 122.59 15.78C122.857 16.2867 123.224 16.6867 123.69 16.98C124.17 17.26 124.71 17.4 125.31 17.4ZM136.383 19L132.663 9.08H134.883L137.643 16.98L140.403 9.08H142.603L138.903 19H136.383ZM145.945 7.2C145.545 7.2 145.212 7.08 144.945 6.84C144.692 6.58667 144.565 6.27333 144.565 5.9C144.565 5.52667 144.692 5.22 144.945 4.98C145.212 4.72667 145.545 4.6 145.945 4.6C146.345 4.6 146.672 4.72667 146.925 4.98C147.192 5.22 147.325 5.52667 147.325 5.9C147.325 6.27333 147.192 6.58667 146.925 6.84C146.672 7.08 146.345 7.2 145.945 7.2ZM144.885 19V9.08H147.005V19H144.885ZM154.164 19.24C152.911 19.24 151.877 18.9333 151.064 18.32C150.251 17.7067 149.784 16.8933 149.664 15.88H151.804C151.911 16.3333 152.164 16.7267 152.564 17.06C152.964 17.38 153.491 17.54 154.144 17.54C154.784 17.54 155.251 17.4067 155.544 17.14C155.837 16.8733 155.984 16.5667 155.984 16.22C155.984 15.7133 155.777 15.3733 155.364 15.2C154.964 15.0133 154.404 14.8467 153.684 14.7C153.124 14.58 152.564 14.42 152.004 14.22C151.457 14.02 150.997 13.74 150.624 13.38C150.264 13.0067 150.084 12.5067 150.084 11.88C150.084 11.0133 150.417 10.2933 151.084 9.72C151.751 9.13333 152.684 8.84 153.884 8.84C154.991 8.84 155.884 9.10667 156.564 9.64C157.257 10.1733 157.664 10.9267 157.784 11.9H155.744C155.677 11.4733 155.477 11.14 155.144 10.9C154.824 10.66 154.391 10.54 153.844 10.54C153.311 10.54 152.897 10.6533 152.604 10.88C152.311 11.0933 152.164 11.3733 152.164 11.72C152.164 12.0667 152.364 12.34 152.764 12.54C153.177 12.74 153.717 12.92 154.384 13.08C155.051 13.2267 155.664 13.4 156.224 13.6C156.797 13.7867 157.257 14.0667 157.604 14.44C157.951 14.8133 158.124 15.36 158.124 16.08C158.137 16.9867 157.784 17.74 157.064 18.34C156.357 18.94 155.391 19.24 154.164 19.24ZM165.478 19.24C164.532 19.24 163.678 19.0267 162.918 18.6C162.172 18.16 161.578 17.5533 161.138 16.78C160.698 15.9933 160.478 15.08 160.478 14.04C160.478 13 160.698 12.0933 161.138 11.32C161.592 10.5333 162.198 9.92667 162.958 9.5C163.718 9.06 164.565 8.84 165.498 8.84C166.445 8.84 167.292 9.06 168.038 9.5C168.798 9.92667 169.398 10.5333 169.838 11.32C170.292 12.0933 170.518 13 170.518 14.04C170.518 15.08 170.292 15.9933 169.838 16.78C169.398 17.5533 168.798 18.16 168.038 18.6C167.278 19.0267 166.425 19.24 165.478 19.24ZM165.478 17.42C165.985 17.42 166.452 17.2933 166.878 17.04C167.318 16.7867 167.672 16.4133 167.938 15.92C168.205 15.4133 168.338 14.7867 168.338 14.04C168.338 13.2933 168.205 12.6733 167.938 12.18C167.685 11.6733 167.338 11.2933 166.898 11.04C166.472 10.7867 166.005 10.66 165.498 10.66C164.992 10.66 164.518 10.7867 164.078 11.04C163.652 11.2933 163.305 11.6733 163.038 12.18C162.772 12.6733 162.638 13.2933 162.638 14.04C162.638 14.7867 162.772 15.4133 163.038 15.92C163.305 16.4133 163.652 16.7867 164.078 17.04C164.505 17.2933 164.972 17.42 165.478 17.42ZM173.211 19V9.08H175.111L175.291 10.96C175.638 10.3067 176.118 9.79333 176.731 9.42C177.358 9.03333 178.111 8.84 178.991 8.84V11.06H178.411C177.824 11.06 177.298 11.16 176.831 11.36C176.378 11.5467 176.011 11.8733 175.731 12.34C175.464 12.7933 175.331 13.4267 175.331 14.24V19H173.211ZM186.728 19V5H191.548C192.654 5 193.561 5.18667 194.268 5.56C194.988 5.93333 195.521 6.44 195.868 7.08C196.214 7.70667 196.388 8.40667 196.388 9.18C196.388 10.0467 196.154 10.8333 195.688 11.54C195.234 12.2467 194.521 12.7533 193.548 13.06L196.528 19H194.068L191.348 13.36H188.848V19H186.728ZM188.848 11.76H191.428C192.388 11.76 193.088 11.5267 193.528 11.06C193.981 10.5933 194.208 9.98667 194.208 9.24C194.208 8.49333 193.988 7.9 193.548 7.46C193.108 7.00667 192.394 6.78 191.408 6.78H188.848V11.76ZM203.25 19.24C202.277 19.24 201.41 19.0267 200.65 18.6C199.904 18.16 199.317 17.5533 198.89 16.78C198.464 16.0067 198.25 15.1067 198.25 14.08C198.25 13.04 198.457 12.1267 198.87 11.34C199.297 10.5533 199.884 9.94 200.63 9.5C201.39 9.06 202.27 8.84 203.27 8.84C204.244 8.84 205.09 9.06 205.81 9.5C206.53 9.92667 207.09 10.5 207.49 11.22C207.89 11.94 208.09 12.7333 208.09 13.6C208.09 13.7333 208.084 13.88 208.07 14.04C208.07 14.1867 208.064 14.3533 208.05 14.54H200.33C200.397 15.5 200.71 16.2333 201.27 16.74C201.844 17.2333 202.504 17.48 203.25 17.48C203.85 17.48 204.35 17.3467 204.75 17.08C205.164 16.8 205.47 16.4267 205.67 15.96H207.79C207.524 16.8933 206.99 17.6733 206.19 18.3C205.404 18.9267 204.424 19.24 203.25 19.24ZM203.25 10.58C202.544 10.58 201.917 10.7933 201.37 11.22C200.824 11.6333 200.49 12.26 200.37 13.1H205.97C205.93 12.3267 205.657 11.7133 205.15 11.26C204.644 10.8067 204.01 10.58 203.25 10.58ZM213.079 19L209.359 9.08H211.579L214.339 16.98L217.099 9.08H219.299L215.599 19H213.079ZM222.642 7.2C222.242 7.2 221.908 7.08 221.642 6.84C221.388 6.58667 221.262 6.27333 221.262 5.9C221.262 5.52667 221.388 5.22 221.642 4.98C221.908 4.72667 222.242 4.6 222.642 4.6C223.042 4.6 223.368 4.72667 223.622 4.98C223.888 5.22 224.022 5.52667 224.022 5.9C224.022 6.27333 223.888 6.58667 223.622 6.84C223.368 7.08 223.042 7.2 222.642 7.2ZM221.582 19V9.08H223.702V19H221.582ZM231.54 19.24C230.567 19.24 229.7 19.0267 228.94 18.6C228.193 18.16 227.607 17.5533 227.18 16.78C226.753 16.0067 226.54 15.1067 226.54 14.08C226.54 13.04 226.747 12.1267 227.16 11.34C227.587 10.5533 228.173 9.94 228.92 9.5C229.68 9.06 230.56 8.84 231.56 8.84C232.533 8.84 233.38 9.06 234.1 9.5C234.82 9.92667 235.38 10.5 235.78 11.22C236.18 11.94 236.38 12.7333 236.38 13.6C236.38 13.7333 236.373 13.88 236.36 14.04C236.36 14.1867 236.353 14.3533 236.34 14.54H228.62C228.687 15.5 229 16.2333 229.56 16.74C230.133 17.2333 230.793 17.48 231.54 17.48C232.14 17.48 232.64 17.3467 233.04 17.08C233.453 16.8 233.76 16.4267 233.96 15.96H236.08C235.813 16.8933 235.28 17.6733 234.48 18.3C233.693 18.9267 232.713 19.24 231.54 19.24ZM231.54 10.58C230.833 10.58 230.207 10.7933 229.66 11.22C229.113 11.6333 228.78 12.26 228.66 13.1H234.26C234.22 12.3267 233.947 11.7133 233.44 11.26C232.933 10.8067 232.3 10.58 231.54 10.58ZM240.569 19L237.649 9.08H239.769L241.689 16.56L243.849 9.08H246.209L248.369 16.56L250.289 9.08H252.409L249.489 19H247.309L245.029 11.2L242.749 19H240.569ZM258.516 19.24C257.262 19.24 256.229 18.9333 255.416 18.32C254.602 17.7067 254.136 16.8933 254.016 15.88H256.156C256.262 16.3333 256.516 16.7267 256.916 17.06C257.316 17.38 257.842 17.54 258.496 17.54C259.136 17.54 259.602 17.4067 259.896 17.14C260.189 16.8733 260.336 16.5667 260.336 16.22C260.336 15.7133 260.129 15.3733 259.716 15.2C259.316 15.0133 258.756 14.8467 258.036 14.7C257.476 14.58 256.916 14.42 256.356 14.22C255.809 14.02 255.349 13.74 254.976 13.38C254.616 13.0067 254.436 12.5067 254.436 11.88C254.436 11.0133 254.769 10.2933 255.436 9.72C256.102 9.13333 257.036 8.84 258.236 8.84C259.342 8.84 260.236 9.10667 260.916 9.64C261.609 10.1733 262.016 10.9267 262.136 11.9H260.096C260.029 11.4733 259.829 11.14 259.496 10.9C259.176 10.66 258.742 10.54 258.196 10.54C257.662 10.54 257.249 10.6533 256.956 10.88C256.662 11.0933 256.516 11.3733 256.516 11.72C256.516 12.0667 256.716 12.34 257.116 12.54C257.529 12.74 258.069 12.92 258.736 13.08C259.402 13.2267 260.016 13.4 260.576 13.6C261.149 13.7867 261.609 14.0667 261.956 14.44C262.302 14.8133 262.476 15.36 262.476 16.08C262.489 16.9867 262.136 17.74 261.416 18.34C260.709 18.94 259.742 19.24 258.516 19.24Z" fill="white"/>
<path d="M72.4 65V55.304L70.496 55.768V54.824L72.848 53.8H73.76V65H72.4ZM81.3531 65L77.4971 60.6L81.0011 56.968H82.6491L78.6331 61.08L78.6491 60.12L83.0651 65H81.3531ZM76.3771 65V53.48H77.7211V65H76.3771ZM87.4476 63.848V56.872H88.6476V63.848H87.4476ZM84.3916 60.92V59.784H91.7036V60.92H84.3916ZM98.5425 65V53.8H102.159C103.033 53.8 103.748 53.9493 104.303 54.248C104.857 54.536 105.268 54.9253 105.535 55.416C105.801 55.9067 105.935 56.4613 105.935 57.08C105.935 57.6773 105.796 58.2267 105.519 58.728C105.252 59.2293 104.836 59.6293 104.271 59.928C103.705 60.2267 102.98 60.376 102.095 60.376H99.8865V65H98.5425ZM104.463 65L101.999 59.992H103.503L106.047 65H104.463ZM99.8865 59.32H102.063C102.916 59.32 103.54 59.112 103.935 58.696C104.34 58.28 104.543 57.7467 104.543 57.096C104.543 56.4347 104.345 55.912 103.951 55.528C103.567 55.1333 102.932 54.936 102.047 54.936H99.8865V59.32ZM111.334 65.192C110.587 65.192 109.921 65.016 109.334 64.664C108.747 64.312 108.283 63.8213 107.942 63.192C107.611 62.5627 107.446 61.8267 107.446 60.984C107.446 60.1307 107.611 59.3947 107.942 58.776C108.273 58.1467 108.731 57.656 109.318 57.304C109.915 56.952 110.598 56.776 111.366 56.776C112.155 56.776 112.827 56.952 113.382 57.304C113.937 57.656 114.358 58.1147 114.646 58.68C114.945 59.2453 115.094 59.8693 115.094 60.552C115.094 60.6587 115.094 60.7707 115.094 60.888C115.094 61.0053 115.089 61.1387 115.078 61.288H108.454V60.248H113.766C113.734 59.512 113.489 58.9413 113.03 58.536C112.582 58.12 112.017 57.912 111.334 57.912C110.886 57.912 110.465 58.0187 110.07 58.232C109.675 58.4347 109.355 58.7333 109.11 59.128C108.875 59.5227 108.758 60.0187 108.758 60.616V61.064C108.758 61.7253 108.881 62.28 109.126 62.728C109.371 63.1653 109.686 63.496 110.07 63.72C110.465 63.944 110.886 64.056 111.334 64.056C111.899 64.056 112.363 63.9333 112.726 63.688C113.099 63.432 113.371 63.0853 113.542 62.648H114.87C114.731 63.1387 114.502 63.576 114.182 63.96C113.862 64.3333 113.462 64.632 112.982 64.856C112.513 65.08 111.963 65.192 111.334 65.192ZM119.203 65L116.163 56.968H117.571L119.987 63.704L122.435 56.968H123.811L120.755 65H119.203ZM125.769 65V56.968H127.113V65H125.769ZM126.441 55.24C126.175 55.24 125.951 55.1547 125.769 54.984C125.599 54.8027 125.513 54.5787 125.513 54.312C125.513 54.0453 125.599 53.832 125.769 53.672C125.951 53.5013 126.175 53.416 126.441 53.416C126.697 53.416 126.916 53.5013 127.097 53.672C127.279 53.832 127.369 54.0453 127.369 54.312C127.369 54.5787 127.279 54.8027 127.097 54.984C126.916 55.1547 126.697 55.24 126.441 55.24ZM133.325 65.192C132.579 65.192 131.912 65.016 131.325 64.664C130.739 64.312 130.275 63.8213 129.933 63.192C129.603 62.5627 129.437 61.8267 129.437 60.984C129.437 60.1307 129.603 59.3947 129.933 58.776C130.264 58.1467 130.723 57.656 131.309 57.304C131.907 56.952 132.589 56.776 133.357 56.776C134.147 56.776 134.819 56.952 135.373 57.304C135.928 57.656 136.349 58.1147 136.637 58.68C136.936 59.2453 137.085 59.8693 137.085 60.552C137.085 60.6587 137.085 60.7707 137.085 60.888C137.085 61.0053 137.08 61.1387 137.069 61.288H130.445V60.248H135.757C135.725 59.512 135.48 58.9413 135.021 58.536C134.573 58.12 134.008 57.912 133.325 57.912C132.877 57.912 132.456 58.0187 132.061 58.232C131.667 58.4347 131.347 58.7333 131.101 59.128C130.867 59.5227 130.749 60.0187 130.749 60.616V61.064C130.749 61.7253 130.872 62.28 131.117 62.728C131.363 63.1653 131.677 63.496 132.061 63.72C132.456 63.944 132.877 64.056 133.325 64.056C133.891 64.056 134.355 63.9333 134.717 63.688C135.091 63.432 135.363 63.0853 135.533 62.648H136.861C136.723 63.1387 136.493 63.576 136.173 63.96C135.853 64.3333 135.453 64.632 134.973 64.856C134.504 65.08 133.955 65.192 133.325 65.192ZM140.507 65L138.155 56.968H139.499L141.339 63.768H141.067L143.083 56.968H144.603L146.635 63.752L146.363 63.768L148.203 56.968H149.563L147.211 65H145.835L143.723 57.896H143.995L141.883 65H140.507ZM154.406 65.192C153.756 65.192 153.18 65.0853 152.678 64.872C152.177 64.648 151.777 64.3333 151.478 63.928C151.19 63.5227 151.009 63.048 150.934 62.504H152.31C152.374 62.7813 152.492 63.0427 152.662 63.288C152.833 63.5227 153.062 63.7093 153.35 63.848C153.649 63.9867 154.006 64.056 154.422 64.056C154.806 64.056 155.121 64.0027 155.366 63.896C155.612 63.7787 155.793 63.624 155.91 63.432C156.028 63.24 156.086 63.032 156.086 62.808C156.086 62.488 156.006 62.2427 155.846 62.072C155.697 61.9013 155.473 61.768 155.174 61.672C154.876 61.5653 154.518 61.4747 154.102 61.4C153.75 61.336 153.404 61.2507 153.062 61.144C152.732 61.0373 152.433 60.8987 152.166 60.728C151.9 60.5573 151.686 60.344 151.526 60.088C151.366 59.8213 151.286 59.5067 151.286 59.144C151.286 58.6853 151.404 58.28 151.638 57.928C151.884 57.5653 152.22 57.2827 152.646 57.08C153.084 56.8773 153.601 56.776 154.198 56.776C155.052 56.776 155.745 56.984 156.278 57.4C156.822 57.816 157.137 58.4187 157.222 59.208H155.894C155.852 58.8027 155.681 58.488 155.382 58.264C155.084 58.0293 154.684 57.912 154.182 57.912C153.681 57.912 153.297 58.0133 153.03 58.216C152.774 58.4187 152.646 58.6853 152.646 59.016C152.646 59.2293 152.716 59.416 152.854 59.576C153.004 59.736 153.222 59.8747 153.51 59.992C153.798 60.0987 154.145 60.1947 154.55 60.28C155.073 60.376 155.553 60.504 155.99 60.664C156.428 60.824 156.78 61.0587 157.046 61.368C157.324 61.6773 157.462 62.12 157.462 62.696C157.473 63.1973 157.35 63.6347 157.094 64.008C156.849 64.3813 156.497 64.6747 156.038 64.888C155.58 65.0907 155.036 65.192 154.406 65.192ZM160.198 65.08C159.931 65.08 159.707 64.9947 159.526 64.824C159.355 64.6427 159.27 64.424 159.27 64.168C159.27 63.912 159.355 63.6987 159.526 63.528C159.707 63.3467 159.931 63.256 160.198 63.256C160.464 63.256 160.683 63.3467 160.854 63.528C161.024 63.6987 161.11 63.912 161.11 64.168C161.11 64.424 161.024 64.6427 160.854 64.824C160.683 64.9947 160.464 65.08 160.198 65.08Z" fill="white"/>
<g clip-path="url(#clip0_10447_65)">
<path d="M30.0208 64.0417C46.6009 64.0417 60.0416 50.6009 60.0416 34.0209C60.0416 17.4408 46.6009 4 30.0208 4C13.4408 4 0 17.4408 0 34.0209C0 50.6009 13.4408 64.0417 30.0208 64.0417Z" fill="#34E0A1"/>
<path d="M48.5634 28.1645L52.1861 24.2232H44.1526C40.1308 21.476 35.2737 19.876 30.0209 19.876C24.7747 19.876 19.9312 21.4794 15.9161 24.2232H7.86243L11.4851 28.1645C9.26456 30.1904 7.87253 33.1087 7.87253 36.349C7.87253 42.4639 12.8302 47.4215 18.9451 47.4215C21.8499 47.4215 24.4964 46.3012 26.4721 44.4697L30.021 48.3339L33.5698 44.4731C35.5455 46.3045 38.1886 47.4215 41.0935 47.4215C47.2084 47.4215 52.1727 42.4639 52.1727 36.349C52.176 33.1054 50.784 30.1872 48.5634 28.1645ZM18.9484 43.8424C14.8091 43.8424 11.4549 40.4882 11.4549 36.349C11.4549 32.2097 14.8092 28.8555 18.9484 28.8555C23.0876 28.8555 26.4418 32.2097 26.4418 36.349C26.4418 40.4882 23.0876 43.8424 18.9484 43.8424ZM30.0243 36.131C30.0243 31.2001 26.4386 26.967 21.7056 25.159C24.2649 24.0889 27.0725 23.4953 30.0209 23.4953C32.9693 23.4953 35.7801 24.0889 38.3395 25.159C33.61 26.9704 30.0243 31.2002 30.0243 36.131ZM41.0968 43.8424C36.9576 43.8424 33.6033 40.4882 33.6033 36.349C33.6033 32.2097 36.9576 28.8555 41.0968 28.8555C45.2361 28.8555 48.5903 32.2097 48.5903 36.349C48.5903 40.4882 45.236 43.8424 41.0968 43.8424ZM41.0968 32.4177C38.9266 32.4177 37.1689 34.1754 37.1689 36.3456C37.1689 38.5158 38.9266 40.2735 41.0968 40.2735C43.267 40.2735 45.0247 38.5158 45.0247 36.3456C45.0246 34.1787 43.267 32.4177 41.0968 32.4177ZM22.8763 36.349C22.8763 38.5192 21.1186 40.2768 18.9484 40.2768C16.7782 40.2768 15.0205 38.5192 15.0205 36.349C15.0205 34.1787 16.7782 32.421 18.9484 32.421C21.1186 32.4177 22.8763 34.1787 22.8763 36.349Z" fill="white"/>
</g>
<path d="M83.3895 29.1488L84.7995 31.9688C84.9895 32.3588 85.4995 32.7288 85.9295 32.8088L88.4795 33.2288C90.1095 33.4988 90.4895 34.6788 89.3195 35.8588L87.3295 37.8488C86.9995 38.1788 86.8095 38.8288 86.9195 39.2988L87.4895 41.7588C87.9395 43.6988 86.8995 44.4588 85.1895 43.4388L82.7995 42.0188C82.3695 41.7588 81.6495 41.7588 81.2195 42.0188L78.8295 43.4388C77.1195 44.4488 76.0795 43.6988 76.5295 41.7588L77.0995 39.2988C77.1895 38.8188 76.9995 38.1688 76.6695 37.8388L74.6795 35.8488C73.5095 34.6788 73.8895 33.4988 75.5195 33.2188L78.0695 32.7988C78.4995 32.7288 79.0095 32.3488 79.1995 31.9588L80.6095 29.1388C81.3795 27.6188 82.6195 27.6188 83.3895 29.1488Z" fill="#34E0A1"/>
<path d="M107.389 29.1488L108.799 31.9688C108.989 32.3588 109.499 32.7288 109.929 32.8088L112.479 33.2288C114.109 33.4988 114.489 34.6788 113.319 35.8588L111.329 37.8488C110.999 38.1788 110.809 38.8288 110.919 39.2988L111.489 41.7588C111.939 43.6988 110.899 44.4588 109.189 43.4388L106.799 42.0188C106.369 41.7588 105.649 41.7588 105.219 42.0188L102.829 43.4388C101.119 44.4488 100.079 43.6988 100.529 41.7588L101.099 39.2988C101.189 38.8188 100.999 38.1688 100.669 37.8388L98.6795 35.8488C97.5095 34.6788 97.8895 33.4988 99.5195 33.2188L102.069 32.7988C102.499 32.7288 103.009 32.3488 103.199 31.9588L104.609 29.1388C105.379 27.6188 106.619 27.6188 107.389 29.1488Z" fill="#34E0A1"/>
<path d="M131.389 29.1488L132.799 31.9688C132.989 32.3588 133.499 32.7288 133.929 32.8088L136.479 33.2288C138.109 33.4988 138.489 34.6788 137.319 35.8588L135.329 37.8488C134.999 38.1788 134.809 38.8288 134.919 39.2988L135.489 41.7588C135.939 43.6988 134.899 44.4588 133.189 43.4388L130.799 42.0188C130.369 41.7588 129.649 41.7588 129.219 42.0188L126.829 43.4388C125.119 44.4488 124.079 43.6988 124.529 41.7588L125.099 39.2988C125.189 38.8188 124.999 38.1688 124.669 37.8388L122.679 35.8488C121.509 34.6788 121.889 33.4988 123.519 33.2188L126.069 32.7988C126.499 32.7288 127.009 32.3488 127.199 31.9588L128.609 29.1388C129.379 27.6188 130.619 27.6188 131.389 29.1488Z" fill="#34E0A1"/>
<path d="M155.389 29.1488L156.799 31.9688C156.989 32.3588 157.499 32.7288 157.929 32.8088L160.479 33.2288C162.109 33.4988 162.489 34.6788 161.319 35.8588L159.329 37.8488C158.999 38.1788 158.809 38.8288 158.919 39.2988L159.489 41.7588C159.939 43.6988 158.899 44.4588 157.189 43.4388L154.799 42.0188C154.369 41.7588 153.649 41.7588 153.219 42.0188L150.829 43.4388C149.119 44.4488 148.079 43.6988 148.529 41.7588L149.099 39.2988C149.189 38.8188 148.999 38.1688 148.669 37.8388L146.679 35.8488C145.509 34.6788 145.889 33.4988 147.519 33.2188L150.069 32.7988C150.499 32.7288 151.009 32.3488 151.199 31.9588L152.609 29.1388C153.379 27.6188 154.619 27.6188 155.389 29.1488Z" fill="#34E0A1"/>
<path opacity="0.4" d="M179.389 29.1488L180.799 31.9688C180.989 32.3588 181.499 32.7288 181.929 32.8088L184.479 33.2288C186.109 33.4988 186.489 34.6788 185.319 35.8588L183.329 37.8488C182.999 38.1788 182.809 38.8288 182.919 39.2988L183.489 41.7588C183.939 43.6988 182.899 44.4588 181.189 43.4388L178.799 42.0188C178.369 41.7588 177.649 41.7588 177.219 42.0188L174.829 43.4388C173.119 44.4488 172.079 43.6988 172.529 41.7588L173.099 39.2988C173.189 38.8188 172.999 38.1688 172.669 37.8388L170.679 35.8488C169.509 34.6788 169.889 33.4988 171.519 33.2188L174.069 32.7988C174.499 32.7288 175.009 32.3488 175.199 31.9588L176.609 29.1388C177.379 27.6188 178.619 27.6188 179.389 29.1488Z" fill="white"/>
<defs>
<clipPath id="clip0_10447_65">
<rect width="60" height="60" fill="white" transform="translate(0 4)"/>
</clipPath>
</defs>
</svg>
