<?xml version="1.0" encoding="utf-8"?>
<!-- Generator: Adobe Illustrator 24.0.1, SVG Export Plug-In . SVG Version: 6.00 Build 0)  -->
<svg version="1.1" id="Layer_1" xmlns="http://www.w3.org/2000/svg" xmlns:xlink="http://www.w3.org/1999/xlink" x="0px" y="0px"
	 viewBox="0 0 24 24" style="enable-background:new 0 0 24 24;" xml:space="preserve">
<style type="text/css">
	.st0{fill:#F61C0D;}
	.st1{fill:#FFFFFF;}
</style>
<circle class="st0" cx="12" cy="12" r="11.7"/>
<g>
	<path class="st1" d="M16.7,6.3H7.3C5.5,6.3,4,7.8,4,9.7v4.7c0,1.8,1.5,3.3,3.3,3.3h9.4c1.8,0,3.3-1.5,3.3-3.3V9.7
		C20,7.8,18.5,6.3,16.7,6.3L16.7,6.3z M14.4,12.2l-4.4,2.1c-0.1,0.1-0.3,0-0.3-0.2V9.9c0-0.1,0.1-0.2,0.3-0.2l4.4,2.2
		C14.6,12,14.6,12.2,14.4,12.2L14.4,12.2z"/>
</g>
</svg>
